<?xml version="1.0" encoding="utf-8"?>
<svg xmlns="http://www.w3.org/2000/svg" version="1.1" viewBox="0 0 100 70">
	<title>A small piece of half-charred paper with cursive letters “ll” and “and” visible.</title>
	<path d="M26.128 69.933c-.043-.043-.738-.098-1.543-.124-2.653-.084-5.156-.562-8.12-1.552-1.357-.453-5.447-2.457-6.88-3.37-.497-.318-1.462-.84-2.144-1.16-.682-.318-1.697-.983-2.255-1.475-.56-.492-1.093-.898-1.188-.9-.094-.005-.55-.574-1.015-1.266l-1.235-1.84c-.216-.32-.463-.733-.55-.917-.085-.184-.355-.605-.6-.935-.598-.813-.822-3.787-.32-4.282.185-.184.678-1.193 1.093-2.243.602-1.52 1.063-2.246 2.268-3.57.83-.914 1.595-1.794 1.698-1.956.3-.47 2.4-2.11 2.903-2.264.252-.078.956-.64 1.563-1.25 1.105-1.11 1.105-1.11.828-3.18-.274-2.05-.287-2.08-1.394-3.192-.615-.617-1.118-1.29-1.118-1.497 0-.205-.21-.568-.468-.804-.257-.237-.49-.582-.517-.767-.028-.186-.178-.49-.333-.675-.156-.185-.34-.68-.408-1.098-.107-.648-.01-.882.658-1.58.907-.952 1.47-1.028 2.22-.302.297.286.73.588.962.672.354.13.4.072.28-.352-.078-.278-.204-1.066-.28-1.752-.14-1.243-.138-1.25.66-1.737.766-.468 1.963-2.135 1.963-2.732 0-.156.264-.555.587-.888.396-.41.6-.885.63-1.466.06-1.136.2-1.322 1.48-1.963.595-.298 1.134-.676 1.197-.838.062-.164.974-.718 2.024-1.233 1.44-.705 2.294-.973 3.467-1.086 1.988-.19 2.227-.19 3.585.02 1.534.233 1.935.408 2.715 1.184.672.667.672.667 2.25.387 1.66-.294 3.798-.927 6.13-1.814.767-.29 1.515-.528 1.663-.528.148 0 .69-.214 1.202-.475.513-.26 1.11-.562 1.328-.67.217-.11 1.426-.604 2.688-1.1 1.263-.498 2.53-1.088 2.82-1.312.288-.224.902-.478 1.365-.563.462-.086 1.148-.32 1.524-.52.845-.448 2.082-.918 2.817-1.07 2.435-.504 4.392-1.032 4.812-1.298.274-.175.92-.427 1.432-.56.513-.134 1.058-.393 1.212-.576.154-.183.377-.333.498-.333.12 0 .386-.187.592-.416.453-.503 2.26-1.176 4.55-1.694.93-.21 2.265-.626 2.966-.923 1.298-.55 2.384-.82 4.84-1.203.76-.118 1.973-.367 2.7-.554.913-.235 2.42-.34 4.89-.34 3.2 0 3.67.05 4.522.476 1.48.742 2.877 1.798 3.42 2.586.473.685 1.37 1.383 2.606 2.03.52.27 1.904 2.002 2.707 3.388.186.32.604.93.928 1.35.79 1.027 1.12 2.488 1.253 5.562.093 2.14.185 2.643.553 3.035.242.258.522.98.622 1.606.104.647.43 1.457.756 1.88.585.76 1.304 2.555 1.3 3.246-.003.21-.256.82-.565 1.353-.72 1.245-.707 1.422.133 1.79 1.253.548 1.26 1.544.015 2.704-.328.307-.885.98-1.238 1.493-.353.514-1.165 1.42-1.804 2.013-.64.593-1.453 1.46-1.807 1.926-.354.464-.81.905-1.015.977-.204.072-.878.543-1.5 1.048-1.586 1.292-3.49 2.64-4.278 3.03-.37.182-.85.482-1.067.666-.218.185-.9.737-1.513 1.228-.615.49-1.125 1.015-1.134 1.165-.01.15-.79.926-1.74 1.726-2.025 1.708-4.365 4.63-4.373 5.46-.036 3.33-.107 3.712-.867 4.66-.41.512-.83.93-.934.93-.105 0-.48.24-.834.536-.902.75-2.038 1-5.064 1.11-1.443.053-2.832.206-3.086.34-.253.135-.7.245-.99.245-.29 0-.736.145-.99.32-.255.177-1.318.48-2.363.677-1.046.196-2.56.526-3.367.732l-1.58.402c-.062.015-.275.098-.474.186-.198.087-.452.133-.564.1-.11-.03-.558.106-.992.305-.855.392-3.22 1.257-3.948 1.445-.25.063-.772.256-1.163.428-.39.172-.832.313-.98.313-.15 0-.59.14-.982.315-2.006.893-2.952 1.245-3.34 1.245-.238 0-.91.24-1.496.533-.585.293-1.52.663-2.08.824-.557.16-1.223.42-1.48.58-.86.536-2.672.962-3.482.82-.435-.078-1.183-.335-1.662-.574-1.48-.735-1.655-.7-2.922.587-1.17 1.187-1.17 1.187-3.46 1.2-1.262.006-2.33-.024-2.372-.067zm4.27-2.927c.426-.32.877-.876 1.003-1.23.29-.82.926-1.183 1.52-.87.24.128.773.232 1.184.233.412 0 1.147.24 1.634.53.975.584 2.12.585 3.435.005.39-.173.81-.314.93-.314.19 0 1.72-.614 3.323-1.332.248-.11 1.365-.473 2.48-.805 2.832-.84 5.374-1.68 5.642-1.863.44-.302 3.176-1.294 4.286-1.555.62-.146 1.523-.467 2.006-.713.482-.246 1.294-.533 1.804-.637 3.404-.694 5.21-1.16 5.346-1.377.086-.138.258-.19.38-.114.125.076.77.04 1.437-.078.665-.118 1.767-.263 2.448-.32.68-.06 2.135-.278 3.23-.488 1.785-.34 2.054-.458 2.563-1.118.478-.62.545-.88.416-1.635-.11-.64-.015-1.34.326-2.43.51-1.63.89-2.217 2.497-3.848 1.505-1.527 2.928-3.083 2.928-3.2 0-.203 1.047-1.168 2.482-2.286.807-.628 1.765-1.452 2.13-1.832.364-.38.743-.69.843-.69.704 0 9.408-7.733 9.808-8.714.203-.496.136-.688-.5-1.438-.648-.763-.78-.83-1.11-.557-.56.458-.827-.103-.638-1.338.084-.552.133-1.204.108-1.45-.025-.245-.044-.985-.043-1.645.002-.724-.16-1.52-.41-2.008-1.013-1.98-1.145-2.458-1.27-4.6-.184-3.108-.513-4.66-1.374-6.47-.736-1.552-2.28-3.285-3.482-3.907-.31-.16-1.027-.678-1.594-1.15-.566-.47-1.112-.855-1.213-.855-.1 0-.76-.29-1.467-.646-1.116-.56-1.608-.66-3.733-.757-3.778-.17-11.21.712-11.947 1.42-.118.113-.437.206-.71.206-1.193 0-3.25 1.407-3.25 2.224 0 .422-1.812 1.065-3.473 1.232-.855.086-1.972.308-2.48.493-.51.183-1.385.467-1.943.628-.558.162-1.574.51-2.256.776-.682.265-1.595.58-2.03.702-.434.12-1.325.464-1.98.763-.655.298-1.275.542-1.378.542-.103 0-.887.362-1.742.804-1.804.93-5.612 2.476-7.083 2.872-.558.15-1.472.48-2.03.73-.558.25-1.472.578-2.03.727-.56.15-1.22.352-1.467.45-.248.1-.857.245-1.354.322-4.49.695-4.42.698-5.52-.21-.682-.563-1.05-.738-1.215-.575-.13.13-.44.234-.69.234-.248 0-1.065.293-1.815.65-1.435.684-3.084 1.135-4.15 1.135-1.147 0-2.21 1.046-2.904 2.856-.5 1.306-.834 1.806-1.695 2.523-.59.49-1.073 1.026-1.073 1.188 0 .16-.164.428-.364.592-.487.4-.27 2.302.36 3.144.51.682.566 1.123.222 1.758-.246.454-1.218.593-1.46.208-.234-.377-.563-.247-.563.223 0 .245.09.446.2.446.426 0 .94 1.166 1.056 2.394.264 2.8.274 3.452.063 4.208-.12.432-.177.905-.124 1.05.125.352.702-.992 1.657-3.86.428-1.29.844-2.493.924-2.677.17-.393.297-.96.275-1.233-.006-.064.134-.39.31-.725.338-.642.6-1.248 1.064-2.465.39-1.026 1.137-1.463 2.243-1.317 1.1.146 1.412.444 1.81 1.724.672 2.156.16 6.044-1.035 7.858-.302.457-.548.89-.548.963 0 .073-.254.46-.564.863-.31.402-.567.872-.57 1.045-.003.172-.26.615-.568.983-.884 1.052-3.94 5.752-3.94 6.06 0 .154-.31.803-.693 1.443-.713 1.194-.967 2.65-.726 4.153.14.875.644.95 1.478.223.316-.277.834-.703 1.15-.95.317-.244.58-.53.586-.634.006-.104.29-.47.63-.81.342-.34.723-.757.847-.926.124-.168.667-.807 1.207-1.42 1.277-1.45 1.836-2.54 1.608-3.138-.276-.727 2.143-6.53 3.53-8.463.262-.37.53-.92.593-1.228.177-.857.937-2.78 1.133-2.865.097-.042.38-.443.628-.892 1.665-3.005 2.097-3.567 3.053-3.962.755-.312 1.478-.21 2.316.324.587.375.585.573-.046 3.38-.302 1.342-.643 2.206-2.086 5.284-.298.638-.542 1.22-.542 1.296 0 .076-.392.71-.87 1.408-.838 1.223-2.057 3.22-2.717 4.45-.173.325-.783 1.298-1.354 2.164-.83 1.256-1.102 1.922-1.348 3.29-.17.942-.245 1.962-.168 2.267.188.738 1.322 1.102 2.823.905.957-.126 1.17-.088 1.292.227.277.714-.313 1.447-1.63 2.022-1.53.67-2.21.693-3.552.124-1.557-.66-1.95-1.158-1.95-2.468 0-.614-.09-1.115-.2-1.115-.11 0-.485.377-.836.837-.35.46-.718.87-.816.91-.098.042-.178.2-.178.352 0 .406-.832 1.1-2.407 2.007-1.034.595-1.643.798-2.37.79-1.06-.01-2.417-.57-2.678-1.104-.602-1.233-.693-1.566-.595-2.182.06-.38.172-.79.25-.912.075-.122.226-.655.335-1.184.11-.53.472-1.698.808-2.596.635-1.698.62-2.138-.053-1.552-.218.19-.83.56-1.36.822-1.245.62-1.92.355-1.814-.714.067-.675.126-.714 1.43-.933.747-.125 1.563-.378 1.813-.562.67-.493 1.453-1.676 1.453-2.197 0-.25.09-.508.2-.574.108-.067.247-.35.308-.627.062-.28.187-.682.278-.897.1-.238.066-.39-.09-.39-.14 0-.355.26-.477.577-.24.63-2.786 3.1-4.052 3.934-.435.286-1.095.985-1.467 1.554-2.486 3.8-2.64 4.203-2.62 6.846.01 1.238.1 1.55.655 2.24.355.44 1.175 1.578 1.822 2.53 1.073 1.58 2.497 2.842 3.205 2.842.252 0 2.243 1.3 2.484 1.624.147.196 2.166 1.306 3.367 1.85l1.917.878c1.876.863 3.463 1.176 6.656 1.313 2.975.13 4.982.32 5.17.495.17.156.305.094 1.09-.498zm17.588-18.378c-.318-.247-.644-.748-.725-1.113-.08-.365-.23-.715-.33-.776-.1-.063-.654.147-1.23.465-1.236.683-2.333.766-3.15.237-.515-.335-.59-.532-.58-1.55.017-2.1.33-3.02 1.7-4.995.723-1.04 1.49-1.985 1.704-2.098.594-.315 2.26-.246 2.974.123.35.18.807.314 1.015.297.87-.068 1.176.075 1.504.704.385.735.192 2.13-.468 3.39-.276.528-.29.73-.072.992.237.28.383.225 1.028-.393.414-.396.81-.903.882-1.125.07-.222.26-.404.42-.404.16 0 .804-.536 1.43-1.19 1.1-1.152 2.34-1.933 3.067-1.933.91 0 2.377 1.065 2.394 1.737.02.822 1.17.483 2.49-.733.912-.843 2.492-1.19 3.45-.76.788.355 1.207 1.38.867 2.12-.463 1.004-.33 1.6.39 1.758.357.077.94.072 1.298-.012.71-.167 1.664-.918 1.664-1.312 0-.297.582-1.417 1.453-2.797.937-1.482 1.72-2.017 3.17-2.165 1.242-.127 1.242-.127 1.252-1.38.005-.687.11-1.702.234-2.254.122-.55.262-1.333.31-1.736.047-.403.4-1.215.78-1.804.383-.59.696-1.185.696-1.325 0-.14.26-.423.577-.628.54-.35.602-.35.958 0 .425.42.445.933.206 5.27-.15 2.753-.82 7.236-1.157 7.778-.302.48.07 1.334.712 1.638 1.018.482.898.964-.4 1.61-1.327.658-1.852.714-2.25.24-.398-.475-.944-.416-1.862.2-.438.294-1.123.606-1.522.692-.648.14-.833.054-1.73-.813-1.006-.97-1.006-.97-1.453-.37-.586.79-1.8 1.518-2.527 1.518-.32 0-.643.1-.72.223-.21.335-1.4.268-2.164-.122-.847-.432-1.095-1.063-.943-2.398.067-.576.065-1.048-.003-1.048-.19 0-3.094 2.345-4.11 3.318-1.063 1.02-1.504 1.202-2.237.927-.684-.258-.918-.954-.545-1.617.407-.72.858-2.003.862-2.45.008-.807-.487-.57-2.28 1.1-1.71 1.593-2.303 2.175-4.656 4.577-.922.942-1.533 1.042-2.374.387zm-.67-5.028c.802-1.2.93-2.105.38-2.65-.52-.513-1.063-.43-1.732.263-.702.727-1.125 1.71-1.11 2.58.025 1.604 1.334 1.502 2.463-.193zm27.51-1.683c.367-.134.53-.433.644-1.18.168-1.108-.015-1.67-.417-1.272-.135.133-.53.242-.88.242-.474 0-.748.184-1.082.725-.507.824-.583 1.64-.166 1.8.3.112 1.085-.018 1.902-.315zM24.54 40.844c.16-.352.593-.955.965-1.34.373-.386.775-.924.895-1.197s.31-.646.424-.83c.114-.184.36-.686.544-1.116 1.876-4.352 2.21-5.178 2.122-5.264-.182-.18-.635.525-1.857 2.893-.664 1.284-1.488 2.82-1.832 3.413-1.022 1.764-2.115 3.88-2.115 4.095 0 .41.578-.032.856-.654zm-8.093-.716c.493-.75.96-1.653 1.04-2.005.077-.353.235-.7.35-.77.114-.07.207-.405.207-.747 0-.342.207-1.214.46-1.94.253-.723.494-1.668.534-2.097.084-.885-.198-1.906-.37-1.34-.396 1.307-.94 2.894-1.188 3.458-.16.368-.615 1.723-1.01 3.012-.393 1.288-.81 2.573-.924 2.854-.228.56-.27.938-.102.938.058 0 .51-.614 1.003-1.364zM96.07 25.752c-.122-.626-.64-.66-.64-.043 0 .296.068.607.153.69.24.238.574-.208.487-.648z"/>
</svg>
