<?xml version="1.0" encoding="utf-8"?>
<svg xmlns="http://www.w3.org/2000/svg" version="1.1" viewBox="0 0 1000 700">
	<title>A small piece of half-charred paper with cursive letters “ll” and “and” visible.</title>
	<path d="m 261.27521,699.34234 c -0.43001,-0.43002 -7.38012,-0.98003 -15.43025,-1.24004 -26.53044,-0.84002 -51.56085,-5.62018 -81.20133,-15.5205 -13.57023,-4.53014 -54.4709,-24.57078 -68.801128,-33.70107 -4.970081,-3.1801 -14.620239,-8.40026 -21.440351,-11.60037 -6.820112,-3.1801 -16.970278,-9.83032 -22.55037,-14.75047 -5.600091,-4.92016 -10.930179,-8.98029 -11.880194,-9.00029 -0.940016,-0.05 -5.50009,-5.74018 -10.150167,-12.6604 L 17.471218,582.4686 c -2.160035,-3.2001 -4.630076,-7.33023 -5.50009,-9.17029 -0.850014,-1.84006 -3.5500581,-6.05018 -6.0000982,-9.3503 -5.98009805,-8.13025 -8.2201347,-37.8712 -3.2000525,-42.82136 1.8500303,-1.84006 6.7801111,-11.93039 10.9301787,-22.43072 6.020099,-15.20049 10.630174,-22.46072 22.680372,-35.70114 8.300136,-9.14029 15.950261,-17.94058 16.980278,-19.56062 3.000049,-4.70015 24.000393,-21.10068 29.030476,-22.64072 2.520041,-0.78004 9.560156,-6.40021 15.630256,-12.50041 11.050182,-11.10035 11.050182,-11.10035 8.280132,-31.80101 -2.74004,-20.50066 -2.87005,-20.80067 -13.940225,-31.92102 -6.150101,-6.17019 -11.180183,-12.90042 -11.180183,-14.97048 0,-2.05006 -2.100034,-5.68018 -4.680077,-8.04026 -2.570042,-2.37007 -4.90008,-5.82019 -5.170084,-7.67025 -0.280005,-1.86006 -1.78003,-4.90015 -3.330055,-6.75021 -1.560026,-1.85006 -3.400056,-6.80022 -4.080067,-10.98035 -1.070017,-6.4802 -0.100001,-8.82028 6.580108,-15.80051 9.070149,-9.5203 14.700241,-10.28032 22.200364,-3.02009 2.970048,2.86009 7.300119,5.88019 9.620159,6.72021 3.54005,1.30005 4.00006,0.72003 2.80004,-3.52011 -0.78001,-2.78009 -2.04003,-10.66034 -2.80004,-17.52056 -1.40003,-12.43039 -1.38003,-12.50039 6.6001,-17.37055 7.66013,-4.68015 19.63033,-21.35068 19.63033,-27.32087 0,-1.56006 2.64004,-5.55018 5.87009,-8.88029 3.96007,-4.10014 6.0001,-8.85028 6.3001,-14.66047 0.60001,-11.36036 2.00004,-13.22042 14.80025,-19.63062 5.95009,-2.9801 11.34018,-6.76022 11.97019,-8.38028 0.62001,-1.64004 9.74016,-7.18022 20.24034,-12.33039 14.40023,-7.05022 22.94037,-9.73031 34.67056,-10.86035 19.88033,-1.90006 22.27037,-1.90006 35.85059,0.20002 15.34025,2.33006 19.35032,4.08012 27.15045,11.84037 6.72011,6.67022 6.72011,6.67022 22.50036,3.87012 16.60028,-2.94008 37.98063,-9.27029 61.30101,-18.14057 7.67012,-2.9001 15.15025,-5.28017 16.63027,-5.28017 1.48003,0 6.90011,-2.14008 12.0202,-4.75016 5.13008,-2.60008 11.10018,-5.62017 13.28022,-6.70021 2.17003,-1.10004 14.26023,-6.04019 26.88044,-11.00035 12.6302,-4.98016 25.30041,-10.88035 28.20046,-13.12042 2.88005,-2.240071 9.02015,-4.780152 13.65022,-5.630179 4.62008,-0.860027 11.48019,-3.200103 15.24025,-5.200167 8.45014,-4.480142 20.82034,-9.180293 28.17046,-10.700341 24.3504,-5.040162 43.92072,-10.32033 48.12079,-12.980415 2.74005,-1.750055 9.20015,-4.270137 14.32024,-5.600178 5.13008,-1.340043 10.58017,-3.930127 12.1202,-5.760185 1.54002,-1.830058 3.77006,-3.330106 4.98008,-3.330106 1.20002,0 3.86006,-1.87006 5.92009,-4.160134 4.53008,-5.03016 22.60037,-11.760375 45.50075,-16.94054 9.30015,-2.100068 22.65037,-6.260201 29.66049,-9.230295 12.98021,-5.500175 23.84039,-8.200262 48.40079,-12.0303844 7.60012,-1.1800377 19.73032,-3.6701172 27.00044,-5.540177 C 768.43352,1.0500335 783.50377,0 808.20417,0 c 32.00053,0 36.7006,0.50001597 45.22074,4.7601521 14.80025,7.4202379 28.77047,17.9805749 34.20056,25.8608259 4.73008,6.850219 13.70023,13.830442 26.06043,20.300648 5.20009,2.700087 19.04031,20.02064 27.07044,33.881083 1.86003,3.200102 6.0401,9.300297 9.28016,13.500431 7.90013,10.27033 11.20018,24.8808 12.5302,55.62177 0.93002,21.40069 1.85003,26.43086 5.53009,30.35098 2.42004,2.58008 5.22009,9.80031 6.2201,16.06051 1.04002,6.47021 4.30007,14.57046 7.56013,18.8006 5.85009,7.60025 13.04021,25.55082 13.00021,32.46103 -0.03,2.10008 -2.56004,8.20027 -5.65009,13.53044 -7.20012,12.4504 -7.07012,14.22046 1.33002,17.90057 12.53024,5.48018 12.60024,15.44049 0.15,27.04086 -3.28005,3.0701 -8.85014,9.80032 -12.3802,14.93049 -3.53006,5.14016 -11.65019,14.20045 -18.0403,20.13064 -6.4001,5.93018 -14.53023,14.60046 -18.07029,19.26061 -3.54006,4.64015 -8.10013,9.05029 -10.15017,9.77031 -2.04003,0.72002 -8.78014,5.43018 -15.00024,10.48033 -15.86026,12.92042 -34.90058,26.40086 -42.7807,30.30098 -3.70007,1.82005 -8.50014,4.82015 -10.67018,6.66021 -2.18004,1.85006 -9.00015,7.37023 -15.13025,12.28039 -6.1501,4.90016 -11.25018,10.15033 -11.34018,11.65037 -0.10001,1.50006 -7.90013,9.2603 -17.40029,17.26055 -20.25033,17.08055 -43.65071,46.30148 -43.73072,54.60175 -0.36,33.30106 -1.07001,37.12119 -8.67014,46.60149 -4.10006,5.12016 -8.30013,9.30029 -9.34015,9.30029 -1.05002,0 -4.80008,2.40008 -8.34014,5.36017 -9.02014,7.50024 -20.38033,10.00033 -50.64083,11.10036 -14.43023,0.53001 -28.32046,2.06007 -30.8605,3.40011 -2.53004,1.35004 -7.00012,2.45008 -9.90016,2.45008 -2.90005,0 -7.36013,1.45004 -9.90017,3.2001 -2.55004,1.77005 -13.18021,4.80015 -23.63038,6.77021 -10.46018,1.96007 -25.60042,5.26017 -33.67056,7.32024 l -15.80025,4.02013 c -0.62001,0.15 -2.75005,0.98003 -4.74008,1.86006 -1.98003,0.87002 -4.52008,1.33004 -5.64009,1.00003 -1.10002,-0.30001 -5.5801,1.06003 -9.92017,3.0501 -8.55014,3.92012 -32.20053,12.5704 -39.48064,14.45046 -2.50005,0.63002 -7.72013,2.56008 -11.63019,4.28013 -3.90007,1.72006 -8.32014,3.1301 -9.80017,3.1301 -1.50002,0 -5.90009,1.40005 -9.82016,3.15011 -20.06033,8.93028 -29.52048,12.45039 -33.40054,12.45039 -2.38004,0 -9.10015,2.40008 -14.96025,5.33018 -5.85009,2.93009 -15.20025,6.63021 -20.80034,8.24025 -5.57009,1.60006 -12.2302,4.20014 -14.80024,5.80019 -8.60014,5.36017 -26.72044,9.6203 -34.82057,8.20026 -4.35007,-0.78002 -11.8302,-3.3501 -16.62028,-5.74018 -14.80024,-7.35023 -16.55027,-7.00023 -29.22047,5.87018 -11.7002,11.87039 -11.7002,11.87039 -34.60057,12.00039 -12.62021,0.06 -23.30038,-0.24 -23.72039,-0.67002 z m 42.7007,-29.27093 c 4.26007,-3.2001 8.77014,-8.76028 10.03016,-12.3004 2.90005,-8.20026 9.26016,-11.83038 15.20025,-8.70027 2.40004,1.28004 7.73013,2.32006 11.8402,2.33007 4.12006,0 11.47019,2.40007 16.34027,5.30017 9.75015,5.84019 21.20034,5.85019 34.35056,0.05 3.90006,-1.73006 8.10013,-3.1401 9.30015,-3.1401 1.90003,0 17.20028,-6.1402 33.23054,-13.32043 2.48005,-1.10003 13.65023,-4.73015 24.80041,-8.05025 28.32047,-8.40027 53.74088,-16.80054 56.42093,-18.6306 4.40007,-3.02009 31.76052,-12.94041 42.8607,-15.55049 6.2001,-1.46005 15.23025,-4.67016 20.06033,-7.13024 4.82008,-2.46007 12.94021,-5.33016 18.04029,-6.37019 34.04056,-6.94023 52.10086,-11.60038 53.46088,-13.77045 0.86001,-1.38004 2.58004,-1.90006 3.80006,-1.14004 1.25002,0.76003 7.70013,0.40002 14.37024,-0.78002 6.65011,-1.18004 17.67029,-2.63008 24.4804,-3.2001 6.80011,-0.60002 21.35035,-2.78009 32.30053,-4.88015 17.85029,-3.40012 20.54033,-4.58016 25.63042,-11.18036 4.78007,-6.20021 5.45009,-8.80029 4.16006,-16.35052 -1.10001,-6.40021 -0.15,-13.40043 3.26006,-24.30078 5.10008,-16.30052 8.90014,-22.17071 24.97041,-38.48123 15.05024,-15.27049 29.28048,-30.83099 29.28048,-32.00103 0,-2.03006 10.47017,-11.68037 24.8204,-22.86072 8.07014,-6.2802 17.65029,-14.52047 21.30035,-18.32059 3.64006,-3.80012 7.43012,-6.90022 8.43014,-6.90022 7.04012,0 94.08154,-77.33247 98.08161,-87.14278 2.03003,-4.96016 1.36002,-6.88022 -5.00008,-14.38047 -6.48011,-7.63023 -7.80013,-8.30025 -11.10019,-5.57017 -5.60009,4.58015 -8.27013,-1.03003 -6.3801,-13.38043 0.84001,-5.52018 1.33002,-12.04038 1.08002,-14.50046 -0.25001,-2.45007 -0.44001,-9.85032 -0.43001,-16.45052 0.02,-7.24023 -1.60003,-15.20049 -4.10007,-20.08064 -10.13016,-19.80064 -11.45018,-24.5808 -12.7002,-46.00148 -1.84003,-31.08099 -5.13009,-46.60149 -13.74023,-64.70207 -7.36012,-15.52049 -22.80037,-32.851044 -34.82057,-39.071243 -3.10005,-1.600051 -10.27017,-6.780216 -15.94026,-11.500367 -5.66009,-4.70015 -11.12018,-8.550273 -12.1302,-8.550273 -1.00002,0 -7.60012,-2.900093 -14.67024,-6.460206 -11.16018,-5.600179 -16.08026,-6.600211 -37.33061,-7.570242 -37.78062,-1.700054 -112.10184,7.120228 -119.47196,14.200454 -1.18002,1.130036 -4.37007,2.060065 -7.10012,2.060065 -11.93019,0 -32.50053,14.07045 -32.50053,22.240711 0,4.220135 -18.1203,10.65034 -34.73057,12.320394 -8.55014,0.860027 -19.72032,3.080098 -24.8004,4.930157 -5.10009,1.830059 -13.85023,4.670149 -19.43032,6.2802 -5.58009,1.620052 -15.74026,5.10016 -22.56037,7.76025 -6.82011,2.65008 -15.95026,5.80018 -20.30034,7.02022 -4.34007,1.20004 -13.25021,4.64015 -19.80032,7.63025 -6.55011,2.9801 -12.75021,5.42017 -13.78023,5.42017 -1.03001,0 -8.87014,3.62012 -17.42028,8.04026 -18.0403,9.30029 -56.12092,24.76078 -70.83116,28.72092 -5.58009,1.50004 -14.72024,4.80015 -20.30033,7.30023 -5.5801,2.50008 -14.72025,5.78018 -20.30034,7.27023 -5.60009,1.50005 -12.2002,3.52012 -14.67024,4.50014 -2.48004,1.00004 -8.57014,2.45008 -13.54022,3.2201 -44.90074,6.95023 -44.20072,6.98023 -55.2009,-2.10006 -6.82012,-5.63018 -10.50018,-7.38024 -12.1502,-5.75018 -1.30002,1.30004 -4.40008,2.34007 -6.90012,2.34007 -2.48004,0 -10.65017,2.93009 -18.15029,6.50021 -14.35024,6.84021 -30.84051,11.35036 -41.50068,11.35036 -11.47019,0 -22.10037,10.46034 -29.04048,28.56091 -5.00008,13.06042 -8.34014,18.06058 -16.95028,25.23081 -5.90009,4.90016 -10.73017,10.26033 -10.73017,11.88038 0,1.60005 -1.64003,4.28013 -3.64006,5.92019 -4.87008,4.00013 -2.70005,23.02074 3.60006,31.441 5.10008,6.82022 5.66009,11.23036 2.22003,17.58056 -2.46004,4.54015 -12.1802,5.93019 -14.60024,2.08007 -2.34003,-3.77012 -5.63009,-2.47008 -5.63009,2.23007 0,2.45008 0.90002,4.46015 2.00003,4.46015 4.26007,0 9.40016,11.66037 10.56018,23.94076 2.64004,28.0009 2.74004,34.5211 0.63001,42.08134 -1.20002,4.32014 -1.77003,9.0503 -1.24002,10.50034 1.25002,3.52011 7.02011,-9.92032 16.57027,-38.60123 4.28007,-12.90041 8.44014,-24.9308 9.24015,-26.77086 1.70003,-3.93013 2.97005,-9.60031 2.75005,-12.33039 -0.06,-0.64002 1.34002,-3.90013 3.10005,-7.25023 3.38005,-6.42021 6.00009,-12.48041 10.64017,-24.6508 3.90006,-10.26032 11.37019,-14.63047 22.43037,-13.17041 11.00018,1.46004 14.12023,4.44014 18.10029,17.24055 6.72011,21.56068 1.60003,60.44193 -10.35017,78.58251 -3.02004,4.57014 -5.48009,8.90028 -5.48009,9.63031 0,0.73002 -2.54004,4.60014 -5.64009,8.63027 -3.10005,4.02013 -5.67009,8.72028 -5.70009,10.45034 -0.03,1.72005 -2.60004,6.15019 -5.68009,9.83031 -8.84015,10.52033 -39.40065,57.52183 -39.40065,60.60193 0,1.54005 -3.10005,8.03026 -6.93011,14.43047 -7.13012,11.94038 -9.67016,26.50084 -7.26012,41.53132 1.40002,8.75028 6.4401,9.50031 14.78024,2.23008 3.16005,-2.7701 8.34014,-7.03023 11.50019,-9.50031 3.17005,-2.44008 5.80009,-5.30017 5.86009,-6.3402 0.06,-1.04004 2.90005,-4.70015 6.30011,-8.10027 3.42005,-3.4001 7.23012,-7.57023 8.47014,-9.26029 1.24002,-1.68005 6.67011,-8.07026 12.07019,-14.20045 12.77021,-14.50047 18.36031,-25.40082 16.08027,-31.381 -2.76005,-7.27023 21.43035,-65.30209 35.30058,-84.63271 2.62004,-3.70011 5.30008,-9.20029 5.93009,-12.28039 1.77003,-8.57027 9.37016,-27.80089 11.33019,-28.65091 0.97002,-0.42002 3.80006,-4.43014 6.2801,-8.92029 16.65027,-30.05096 20.97035,-35.67114 30.5305,-39.62127 7.55013,-3.1201 14.78024,-2.10006 23.16038,3.24011 5.8701,3.75012 5.8501,5.73018 -0.46001,33.80108 -3.02005,13.42043 -6.4301,22.0607 -20.86034,52.84169 -2.98005,6.3802 -5.42009,12.20039 -5.42009,12.96041 0,0.76002 -3.92006,7.10022 -8.70014,14.08045 -8.38014,12.23039 -20.57034,32.20103 -27.17044,44.50142 -1.73003,3.2501 -7.83013,12.98042 -13.54023,21.64069 -8.30013,12.56041 -11.02018,19.22062 -13.48022,32.90105 -1.70002,9.42031 -2.45004,19.62063 -1.68002,22.67072 1.88003,7.38024 13.22021,11.02036 28.23046,9.0503 9.57016,-1.26004 11.70019,-0.88003 12.92021,2.27007 2.77005,7.14023 -3.13005,14.47047 -16.30027,20.22065 -15.30025,6.70021 -22.10036,6.93021 -35.52058,1.24003 -15.57025,-6.60021 -19.50032,-11.58037 -19.50032,-24.68078 0,-6.14019 -0.90001,-11.15036 -2.00003,-11.15036 -1.10002,0 -4.85008,3.77013 -8.36014,8.37027 -3.50006,4.60015 -7.18012,8.70027 -8.16013,9.10029 -0.98002,0.42002 -1.78003,2.00006 -1.78003,3.52011 0,4.06013 -8.32014,11.00035 -24.0704,20.07065 -10.34017,5.95018 -16.43027,7.98025 -23.70038,7.90025 -10.60018,-0.10001 -24.170397,-5.70019 -26.78044,-11.04036 -6.020099,-12.33039 -6.930114,-15.6605 -5.950098,-21.82069 0.60001,-3.80013 1.720029,-7.90026 2.500041,-9.12029 0.750013,-1.22004 2.260037,-6.55022 3.350055,-11.84039 1.100018,-5.30016 4.720072,-16.98053 8.080132,-25.96082 6.3501,-16.98055 6.2001,-21.38069 -0.53001,-15.5205 -2.18004,1.90007 -8.300134,5.60018 -13.600221,8.22026 -12.450204,6.2002 -19.200314,3.55012 -18.140297,-7.14023 0.670011,-6.75021 1.260021,-7.14023 14.300234,-9.33029 7.470123,-1.25004 15.630254,-3.78012 18.130294,-5.62018 6.70011,-4.93016 14.53024,-16.76054 14.53024,-21.9707 0,-2.50008 0.90001,-5.08017 2.00003,-5.74019 1.08002,-0.67002 2.47004,-3.50011 3.08005,-6.2702 0.62001,-2.80009 1.87003,-6.82021 2.78005,-8.97029 1.00001,-2.38007 0.66001,-3.90012 -0.90002,-3.90012 -1.40002,0 -3.55006,2.60008 -4.77008,5.77018 -2.40004,6.30021 -27.860449,31.00099 -40.520657,39.34126 -4.350071,2.8601 -10.950179,9.85032 -14.67024,15.5405 -24.860407,38.00122 -26.400433,42.03134 -26.200429,68.46218 0.100001,12.3804 1.000016,15.5005 6.550107,22.40072 3.550058,4.40014 11.750192,15.7805 18.220298,25.30081 10.730176,15.80051 24.97041,28.4209 32.050526,28.4209 2.520041,0 22.430365,13.00043 24.840405,16.24053 1.47002,1.96006 21.66035,13.06041 33.67055,18.50059 l 19.17031,8.78028 c 18.76031,8.63028 34.63057,11.76037 66.5611,13.13042 29.75048,1.30004 49.82081,3.2001 51.70084,4.95015 1.70003,1.56006 3.05005,0.94004 10.90018,-4.98015 z M 479.85879,486.28554 c -3.18005,-2.47008 -6.4401,-7.48024 -7.25012,-11.13036 -0.80001,-3.65011 -2.30003,-7.15023 -3.30005,-7.76025 -1.00002,-0.63002 -6.54011,1.47005 -12.3002,4.65015 -12.36021,6.83022 -23.33038,7.66024 -31.50052,2.37007 -5.15008,-3.3501 -5.9001,-5.32016 -5.80009,-15.50049 0.17,-21.00067 3.30005,-30.20097 17.00027,-49.9516 7.23012,-10.40033 14.90025,-19.85063 17.04028,-20.98066 5.9401,-3.1501 22.60037,-2.46008 29.74049,1.23004 3.50006,1.80005 8.07013,3.14009 10.15017,2.97009 8.70014,-0.68002 11.76019,0.75002 15.04024,7.04022 3.85007,7.35024 1.92004,21.30068 -4.68007,33.90109 -2.76005,5.28016 -2.90005,7.30023 -0.72001,9.92031 2.37003,2.8001 3.83006,2.25008 10.28016,-3.93012 4.14007,-3.96013 8.10014,-9.03029 8.82015,-11.25036 0.70001,-2.22008 2.60004,-4.04014 4.20007,-4.04014 1.60002,0 8.04013,-5.36016 14.30023,-11.90037 11.00018,-11.52037 23.40039,-19.33062 30.6705,-19.33062 9.10015,0 23.77039,10.65034 23.9404,17.37056 0.2,8.22026 11.70019,4.83015 24.9004,-7.33024 9.12015,-8.43027 24.92041,-11.90038 34.50057,-7.60024 7.88013,3.55011 12.0702,13.80044 8.67014,21.20068 -4.63007,10.04032 -3.30005,16.00051 3.90007,17.58056 3.57005,0.77002 9.40015,0.72002 12.98021,-0.12 7.10012,-1.67006 16.64027,-9.1803 16.64027,-13.12043 0,-2.97009 5.8201,-14.17045 14.53024,-27.97089 9.37015,-14.82047 17.20028,-20.17065 31.70052,-21.65069 12.4202,-1.27004 12.4202,-1.27004 12.5202,-13.80044 0.05,-6.87022 1.10002,-17.02055 2.34004,-22.54072 1.22002,-5.50018 2.62005,-13.33043 3.10005,-17.36055 0.47001,-4.03014 4.00007,-12.15039 7.80013,-18.04058 3.83006,-5.90019 6.96012,-11.85038 6.96012,-13.25042 0,-1.40005 2.60004,-4.23014 5.77009,-6.28021 5.40009,-3.5001 6.0201,-3.5001 9.58016,0 4.25007,4.20014 4.45007,9.33031 2.06003,52.70169 -1.50002,27.53088 -8.20013,72.36231 -11.57019,77.78248 -3.02005,4.80016 0.70001,13.34043 7.12012,16.38053 10.18016,4.82015 8.98014,9.64031 -4.00007,16.10051 -13.27022,6.58021 -18.5203,7.14023 -22.50037,2.40007 -3.98006,-4.75015 -9.44015,-4.16013 -18.6203,2.00008 -4.38007,2.94008 -11.23019,6.06018 -15.22025,6.92021 -6.48011,1.40005 -8.33014,0.54002 -17.30028,-8.13025 -10.06017,-9.70031 -10.06017,-9.70031 -14.53024,-3.70013 -5.8601,7.90025 -18.0003,15.18049 -25.27042,15.18049 -3.20005,0 -6.4301,1.00003 -7.20011,2.23007 -2.10004,3.35011 -14.00023,2.68008 -21.64036,-1.22004 -8.47014,-4.32014 -10.95018,-10.63033 -9.43015,-23.98076 0.67001,-5.76019 0.65001,-10.48034 -0.03,-10.48034 -1.90004,0 -30.94051,23.45075 -41.10068,33.18106 -10.63017,10.20033 -15.04024,12.02039 -22.37036,9.2703 -6.84012,-2.58008 -9.18016,-9.54031 -5.45009,-16.17052 4.07006,-7.20023 8.58014,-20.03064 8.62014,-24.50079 0.08,-8.07025 -4.87008,-5.70018 -22.80038,11.00035 -17.10028,15.93052 -23.03037,21.7507 -46.56076,45.77147 -9.22015,9.4203 -15.33025,10.42034 -23.74039,3.87013 z m -6.70011,-50.28162 c 8.02013,-12.00037 9.30015,-21.05066 3.80006,-26.50084 -5.20008,-5.13016 -10.63017,-4.30014 -17.32028,2.63008 -7.02011,7.27024 -11.25018,17.10055 -11.10018,25.80083 0.25,16.04051 13.34022,15.02048 24.6304,-1.93007 z m 275.10451,-16.83053 c 3.67006,-1.34004 5.30009,-4.33014 6.44011,-11.80037 1.68002,-11.08036 -0.15001,-16.70054 -4.17007,-12.72041 -1.35002,1.33004 -5.30009,2.42008 -8.80015,2.42008 -4.74007,0 -7.48012,1.84006 -10.82017,7.25023 -5.07009,8.24026 -5.8301,16.40052 -1.66003,18.00057 3.00005,1.12004 10.85018,-0.18 19.02031,-3.1501 z M 245.39495,408.44304 c 1.60003,-3.5201 5.9301,-9.55029 9.65016,-13.40042 3.73006,-3.86012 7.75012,-9.2403 8.95014,-11.97038 1.20002,-2.73009 3.10006,-6.46021 4.24007,-8.30027 1.14002,-1.84006 3.60006,-6.86022 5.44009,-11.16035 18.76031,-43.52139 22.10037,-51.78166 21.22035,-52.64168 -1.82003,-1.80006 -6.3501,5.25016 -18.5703,28.93092 -6.64011,12.84041 -14.88025,28.2009 -18.3203,34.13109 -10.22017,17.64056 -21.15035,38.80123 -21.15035,40.95131 0,4.10013 5.78009,-0.32002 8.56014,-6.54022 z m -80.93133,-7.16022 c 4.93008,-7.50024 9.60016,-16.53053 10.40017,-20.05064 0.77002,-3.53011 2.35004,-7.00023 3.50006,-7.70025 1.14002,-0.70002 2.07004,-4.05013 2.07004,-7.47023 0,-3.42012 2.07003,-12.14039 4.60007,-19.40063 2.53004,-7.23023 4.94008,-16.68053 5.34009,-20.97066 0.84001,-8.85029 -1.98003,-19.06062 -3.70006,-13.40043 -3.96007,13.07041 -9.40016,28.94092 -11.8802,34.5811 -1.60002,3.68011 -6.1501,17.23056 -10.10016,30.12097 -3.93007,12.88041 -8.10014,25.73082 -9.24015,28.54091 -2.28004,5.60018 -2.70005,9.3803 -1.02002,9.3803 0.58001,0 5.10008,-6.1402 10.03016,-13.64044 z M 960.70667,257.51823 c -1.22002,-6.2602 -6.4001,-6.60022 -6.4001,-0.43002 0,2.9601 0.68001,6.07019 1.53002,6.90023 2.40004,2.38006 5.7401,-2.08007 4.87008,-6.48021 z"/>
</svg>
