<?xml version="1.0" encoding="utf-8"?>
<svg xmlns="http://www.w3.org/2000/svg" version="1.1" viewBox="0 0 100 74">
	<title>A crumpled envelope. Writing is scrawled on it: “possessed,” “I am possessed,” “He is possessed.”</title>
	<path d="M66.884 73.94c0-.27.31-1.17.584-1.7.225-.435.32-.748.29-.956-.033-.223.026-.387.212-.587.14-.153.36-.448.49-.656.21-.342.217-.4.077-.62-.142-.223-.127-.304.18-.958.292-.625.37-.715.622-.716.227 0 .302.06.356.29.038.16.16.392.27.514.11.122.22.313.244.424.024.11.092.36.15.553.058.193.08.43.047.53-.14.426-.357.84-.57 1.084-.126.145-.304.374-.394.51-.13.197-.24.24-.52.207-.23-.027-.404.016-.5.123-.13.15-.398 1.392-.392 1.834.003.155-.094.186-.57.186-.317 0-.576-.027-.576-.06zm2.66-3.084c.376-.34.155-1.65-.25-1.494-.12.046-.508 1.233-.508 1.554 0 .18.542.136.758-.06zm.895 1.04c-.096-.106-.174-.275-.174-.377 0-.228.895-1.504 1.113-1.588.086-.034.203-.182.26-.33.092-.245.153-.267.763-.27.728-.006 1.728-.305 2.542-.762.68-.38.905-.44 1.086-.29.195.16.197.408.005.623-.082.092-.165.353-.184.58-.055.668.148.7 1.203.184.705-.343.93-.51 1.034-.757.175-.425.79-.953 1.11-.953.15 0 .304.09.373.22.117.218.1.262-.372.905-.07.098-.044.244.09.47.108.184.172.445.144.59-.063.328.037.387.51.298.273-.05.407-.146.48-.34.154-.405.628-.765 1.007-.765.424 0 .585.2.5.62-.055.282-.034.334.137.334.11 0 .39-.098.62-.218.23-.12.765-.363 1.188-.54.568-.24.81-.406.928-.632.087-.17.2-.307.25-.307.048 0 .114-.094.144-.21.03-.113.226-.29.437-.39.36-.173.393-.173.563-.002.155.156.16.214.04.407-.118.192-.11.285.056.633.107.225.245.41.306.41.214.002 1.08-.617 1.275-.914.11-.164.478-.577.82-.917.527-.526.67-.614.95-.587.465.046.493.395.074.905-.322.39-.42.805-.224.928.057.034.075.204.04.377-.056.28-.035.314.202.314.248 0 .924-.558.924-.762 0-.048.053-.086.117-.086s.21-.12.324-.266c.22-.282.5-.334.834-.156.25.134.26.398.033.724-.262.377-.056.5.55.33.368-.103.542-.222.668-.455.294-.548.725-.983 1.177-1.187.497-.225.795-.128.78.254-.008.253.09.29.246.092.174-.22.556-1.435.534-1.698-.026-.32.324-.8.647-.888.514-.14.768.28.527.87-.07.17-.142.487-.16.7-.02.216-.13.55-.245.743-.487.814-.546.974-.55 1.472-.002.288-.047.55-.1.583-.052.033-.095.153-.095.268 0 .126-.107.25-.27.312-.388.147-.51.13-.648-.095-.097-.154-.09-.262.026-.488.285-.552-.072-.65-.617-.17-.39.344-.69.445-1.432.485-.273.014-.79.114-1.15.22-.64.192-.663.192-1.156-.013l-.503-.21-.694.238c-1.11.38-2.065.28-1.995-.205.03-.21.18-.32.815-.607.198-.09.17-.262-.05-.308-.227-.047-.644.16-1.047.524-.175.156-.626.395-1.004.53s-.8.303-.938.374c-.284.145-.634.055-.797-.205-.083-.13-.048-.236.144-.44.14-.15.316-.27.393-.27.17 0 .185-.173.025-.272-.063-.04-.265.067-.45.236-.625.573-1.22.99-1.413.99-.108 0-.48.14-.826.314-.7.348-1.354.412-1.704.166-.122-.085-.243-.133-.27-.107-.057.058-1.04.263-1.564.328-.203.025-.432.067-.508.095-.076.027-.302-.02-.502-.103-.435-.182-.472-.45-.112-.788.206-.195.323-.226.634-.167.44.083.462.022.168-.462-.243-.4-.488-.39-.948.038-.146.135-.522.347-.837.47-.314.125-.702.32-.86.433-.16.114-.336.207-.393.207-.056 0-.158.067-.225.148-.162.196-.627.277-.93.162-.513-.196-.138-.862.56-.994.198-.037.36-.12.36-.183 0-.284-.256-.935-.368-.935-.068 0-.358.12-.644.265-.286.145-.606.264-.712.265-.374 0-.6.207-.6.548 0 .644-.52 1.188-1.374 1.443-.78.233-.917.238-1.095.04zm1.697-.988c.188-.157.172-.265-.072-.51-.21-.21-.21-.21-.582.01-.44.262-.518.365-.432.59.052.13.157.15.507.095.243-.04.504-.122.58-.185zm-3.96-9.11c-.282-.107-.484-.57-.4-.913.035-.133.063-.266.064-.294.002-.028.075-.255.163-.503.15-.428.317-1.27.416-2.096.06-.523.226-1.394.345-1.825.073-.267.06-.46-.045-.714-.193-.46-.19-.483.138-.788.233-.217.32-.243.502-.147.38.2.397.294.21 1.223-.063.315.138.306.392-.018.11-.142.363-.31.56-.377.45-.15 1.014.058 1.284.47.173.266.172.31-.013.855-.107.316-.163.607-.123.647.04.04.227.027.417-.027.24-.068.41-.22.557-.496.246-.463.582-.59 1.05-.394.55.23.976.248 1.348.058.192-.098.6-.273.905-.39.398-.15.68-.36.998-.738.532-.633.867-.676.895-.115.01.192.073.417.14.5.076.09.097.278.055.472-.055.25-.035.322.09.322.21 0 .714-.224.894-.396.076-.073.18-.133.23-.133.05 0 .247-.217.437-.482.275-.385.4-.476.613-.45.234.027.278.097.34.54.104.728.346 1.065.705.98.445-.103.863-.288.863-.38 0-.046.193-.238.43-.425.372-.297.462-.326.686-.223.144.065.258.208.258.322 0 .198-.55.753-.748.753-.054 0-.098.078-.098.172 0 .133.07.16.303.112.687-.138 2.404-1.07 2.76-1.5.073-.09.174-.162.225-.162.05 0 .312-.217.58-.483.585-.578.957-.62.913-.1-.048.554.057.795.346.795.144 0 .262-.05.262-.108 0-.06.13-.167.29-.238.16-.07.328-.185.372-.256.077-.12.77-.484 1.153-.603.113-.035.16-.13.125-.256-.03-.123.06-.335.234-.543.224-.268.353-.334.604-.31.464.048.583.305.318.682-.232.33-.222.97.017 1.06.203.08.7-.154.916-.43.215-.274.997-.695 1.29-.695.267 0 .32.255.13.62-.197.385-.09.492.396.393.51-.105 1.674-.723 1.806-.96.36-.65 1.108-1.325 1.467-1.325.125 0 .245.12.32.318.21.557.383.383.453-.454.026-.304.065-.706.087-.894.046-.395.42-1.05.682-1.19.12-.063.185-.243.197-.54.02-.484.25-.745.598-.677.41.08.582.593.222.662-.35.067-.446.232-.177.302.186.05.234.127.21.34-.025.21-.146.33-.492.495-.405.19-.44.234-.29.358.188.157.224.49.062.59-.058.037-.105.16-.105.276 0 .115-.12.497-.27.85-.162.387-.28.9-.302 1.3-.02.363-.1.764-.178.89-.183.295-.648.49-.944.395-.186-.06-.216-.127-.16-.355.15-.615.128-.707-.173-.686-.156.01-.382.116-.502.237-.125.125-.356.22-.537.22-.175 0-.52.09-.766.2-1.568.696-2.21.808-2.823.49-.275-.142-.366-.137-.963.055-.362.116-.71.25-.774.3-.204.16-.813.23-1.023.116-.112-.06-.202-.22-.202-.36 0-.203.095-.29.475-.436.504-.193.55-.25.354-.445-.142-.143-.36-.048-.935.406-.205.16-.522.38-.707.487-.185.107-.628.373-.985.592-.357.218-.74.397-.853.397-.252 0-.268-.285-.03-.547.14-.157.148-.222.04-.353-.22-.264-.47-.187-1.017.31-.285.26-1.036.74-1.67 1.067-.983.507-1.22.588-1.636.56-.404-.025-.51-.077-.618-.306l-.13-.275-.61.154c-.335.083-.685.22-.777.3-.198.177-.457.19-.738.04-.295-.158-.254-.397.13-.755.297-.28.316-.33.173-.474-.144-.143-.204-.13-.572.123-.226.155-.673.423-.992.595-.32.172-.703.39-.852.483-.378.238-.973.114-1.212-.25-.176-.27-.174-.285.07-.473.137-.106.405-.194.593-.196.274 0 .344-.045.344-.216 0-.246-.282-.396-.473-.252-.826.62-1.732 1.103-2.07 1.103-.37 0-.788.26-1.318.817-.545.574-.81.67-1.223.45-.17-.092-.195-.18-.137-.49.07-.37.066-.373-.18-.24-.555.297-1.654.342-1.824.074-.168-.264.233-.647.664-.634.212.006.375-.065.473-.205.18-.257.167-.373-.084-.753-.208-.31-.49-.366-.96-.186-.426.162-.752 1.066-.862 2.386-.03.35-.097.78-.15.954-.054.175-.124.63-.156 1.008-.032.38-.08.795-.108.924-.065.306-.352.453-.657.338zm4.987-4.09c.038-.097.025-.22-.027-.27-.115-.117-.47.21-.382.35.097.158.336.11.41-.08zM96.9 53.59c.074-.088.11-.184.08-.213-.095-.096-.4.077-.4.228 0 .194.153.188.32-.014zm-55.288 6.687c-.026-.027-.34-.075-.695-.108-1.46-.132-2.04-.36-2.04-.804 0-.36 1.193-1.146 1.537-1.014.145.055.16.102.067.196-.18.182-.154.245.168.396.504.237.975.305 1.366.197.208-.06.472-.124.588-.146.28-.055.926-.73.927-.97 0-.106.094-.335.21-.51.115-.175.21-.493.21-.707 0-.327-.055-.423-.355-.61-.416-.257-.675-.273-.96-.058-.313.238-.468.19-.658-.21-.16-.337-.16-.384 0-.63.34-.518 1.65-.37 2.313.262.348.332.4.445.4.858 0 .636-.57 1.803-1.207 2.47-.268.28-.473.525-.455.543.018.018.34-.014.715-.07 1.007-.153 2.123-.22 2.454-.146.37.08.405.508.054.696-.31.167-.902.216-.985.08-.098-.157-2.88 0-3.238.184-.315.162-.344.17-.415.098zm9.07-.846c-.106-.08-.213-.314-.238-.518-.04-.312.03-.472.44-1.02.534-.712 1.09-1.067 1.668-1.067.54 0 .723.24.68.89l-.034.54.35-.027c.385-.03 1.753-.74 2.15-1.115.63-.595.71-.642.88-.502.204.17.202.264-.01.478-.095.094-.145.198-.113.23.06.06.238-.068.596-.423.435-.43.84.084.49.622-.197.3-.207.368-.055.368.1 0 .993-.62 1.18-.82l.485-.53c.443-.49.955-.627.987-.267.032.366-.033.706-.197 1.023-.09.18-.23.603-.31.944-.232.995-.57 1.31-1.102 1.026-.24-.13-.263-.394-.062-.69.644-.945.57-1.08-.26-.473-.313.23-.637.48-.72.554-.313.282-.7.506-.876.507-.272 0-.435-.37-.274-.628.072-.117.1-.24.064-.277-.102-.103-.485.14-.552.348-.033.103-.2.266-.37.363-.256.145-.342.152-.495.04-.173-.127-.17-.153.053-.44.342-.434.113-.432-.495.005-.286.208-.61.378-.72.378-.11 0-.335.072-.502.16-.382.2-.748.2-.944.004-.133-.133-.18-.126-.373.053-.12.114-.29.206-.377.206-.086 0-.186.047-.222.105-.092.15-.493.125-.72-.046zm1.406-1.04l.37-.236-.29-.035c-.333-.042-.374-.172-.106-.34.154-.097.14-.105-.08-.045-.323.09-.445.26-.305.43.075.09.043.147-.11.196-.12.04-.218.114-.218.17 0 .17.356.105.738-.14zm-18.896-8.37c-.216-.218-.14-.675.232-1.43l.7-1.412c.187-.38.475-.928.64-1.22.163-.29.302-.65.307-.795.006-.146.08-.357.165-.47.086-.114.155-.382.155-.596 0-.453.337-.948.646-.948.304 0 .354.264.15.798-.098.26-.16.528-.14.595.024.067.29-.1.595-.37.305-.272.627-.494.716-.494.336 0 .57.216.57.528 0 .17.053.425.117.566.085.187.085.316 0 .475-.227.425-.01.408 1.395-.113.18-.067.38-.275.507-.524.262-.516.453-.593.885-.36.485.262 1.492.193 2.525-.173.457-.162.912-.295 1.012-.295.1 0 .367-.142.595-.315.443-.336.77-.4.976-.194.177.178.166.218-.184.66-.228.288-.31.5-.305.807.008.645.145.67 1.093.21.463-.226 1.077-.518 1.364-.65.288-.13.662-.397.832-.592.534-.61.895-.817 1.19-.683.543.25.163.936-.627 1.135-.363.09-.308.295.1.366.254.044.313.11.34.39.047.482.234.602.726.465.22-.062.574-.113.783-.113.438 0 1.095-.427 1.468-.953.322-.452.708-.596.968-.36.108.1.197.265.197.37 0 .24-.4.624-.648.624s-.366.213-.185.334c.233.155 1.275.03 1.383-.164.052-.093.214-.17.36-.17.412 0 1.274-.314 1.477-.54.1-.11.245-.2.32-.2.257 0 .933-.445 1.552-1.02.696-.647 1.06-.793 1.323-.53.23.23.1.44-.554.885l-.504.344.3.113c.165.063.38.187.477.275.16.145.275.113 1.185-.325.555-.267 1.058-.486 1.117-.486.06 0 .37-.24.69-.53.626-.568.79-.625 1.05-.364.245.246.21.335-.252.656-.23.16-.42.323-.423.364-.002.04.127.137.287.214.183.088.29.225.293.37.005.347.07.362.638.147.287-.11.77-.23 1.075-.272.304-.042.66-.16.794-.266.133-.105.445-.252.694-.327.38-.114.475-.11.602.016.18.18.094.627-.12.627-.08 0-.145.048-.145.106 0 .154.62.126 1.13-.053.242-.085 1.312-.254 2.377-.376 2.043-.234 2.982-.448 3.277-.747.368-.372 1.415-1.13 1.67-1.207.146-.045.312-.12.37-.166.155-.123 1.025-.416 1.24-.418.13 0 .22-.145.306-.487.067-.267.21-.54.318-.608.11-.068.198-.18.198-.248 0-.412 1.56-2.264 1.907-2.264.66 0 .727.577.14 1.182-.625.64-1.297 1.84-1.74 3.105-.16.462-.368.928-.46 1.034-.09.107-.164.232-.164.28 0 .132-.55.765-.768.882-.143.075-.266.058-.453-.065-.338-.22-.326-.378.058-.747.315-.302.416-.583.21-.583-.058 0-.306.145-.55.323-.624.453-1.297.737-2.037.86-.85.142-1.56.266-2.324.405-1.587.29-2.67.446-2.998.433-.195-.008-.604.058-.91.147-.844.246-1.417.232-1.883-.046-.415-.248-.825-.248-1.607.002-.175.054-.545.172-.823.26-.833.263-1.978.173-1.978-.155 0-.21.353-.428.695-.428.46 0 .464-.166.01-.383-.33-.158-.383-.155-.872.056-.286.123-.663.3-.837.393-2.296 1.224-2.466 1.3-2.756 1.22-.16-.042-.344-.16-.406-.264-.09-.15-.064-.23.136-.393.138-.113.383-.206.547-.206.747 0 .828-.257.13-.408-.447-.097-.545-.083-.873.126-.646.41-.788.495-1.004.592-1.926.862-2.774 1.067-3.31.798-.185-.092-.336-.212-.336-.266 0-.146-.443-.12-.936.055-.98.347-3.585.55-3.836.298-.09-.092-.078-.19.055-.393.19-.29.575-.353 1.053-.17.207.078.3.056.45-.11.237-.264.14-.346-.61-.52-.597-.136-.606-.135-1.12.196-.284.184-.567.334-.628.334-.06 0-.386.167-.724.37-.338.205-.664.377-.726.383-1.347.134-2.007-.06-1.762-.52.184-.344.475-.465.81-.337.41.156.605-.12.413-.58-.075-.177-.208-.338-.296-.356-.087-.018-.47.114-.852.292-.658.31-1.644.588-2.333.66-.21.024-.386.14-.53.355-.117.176-.42.506-.67.733-.4.362-.49.4-.74.314-.23-.08-.29-.176-.316-.496-.036-.43-.12-.473-.474-.24-.13.085-.523.222-.876.304-.352.083-.748.208-.878.278-.194.103-.286.095-.5-.046-.356-.234-.412-.43-.21-.74.14-.215.267-.263.766-.29.734-.04.924-.24.652-.693-.24-.396-.487-.41-1.012-.056-.574.387-1.044 1.037-1.345 1.86-.575 1.57-.793 2.108-.947 2.328-.09.13-.164.334-.164.456 0 .25-.36.686-.564.686-.073 0-.19-.057-.26-.127zm7.04-4.407c.038-.26-.08-.308-.276-.11-.19.19-.154.423.058.383.102-.02.2-.143.22-.273zm35.054-2.796c.68-.365 1.137-.75.996-.84-.272-.168-1.79.663-1.79.98 0 .155.366.09.794-.14zM7.828 49.49c-.177-.18-.16-.34.084-.774.175-.312.19-.413.082-.585-.114-.18-.086-.244.222-.502.367-.307.524-.644.875-1.882.21-.734.26-.953.348-1.5.052-.324.236-.474.536-.435.25.033.338.43.168.76-.2.386-.874 2.437-.892 2.707-.014.23.03.26.417.29.36.024.45-.01.544-.207.172-.36.324-.833.403-1.243.04-.204.132-.442.207-.53.19-.222.368-.922.368-1.455 0-.358.053-.482.26-.618.347-.23.736-.164.778.13.018.127-.08.414-.218.637-.138.224-.315.573-.393.777-.078.204-.224.514-.324.69-.1.174-.24.508-.312.74-.073.235-.173.47-.225.526-.16.174-.112.62.06.553.083-.032.333-.11.554-.17.232-.065.583-.297.826-.546.602-.618.948-.78 1.324-.625.36.15.447.337.315.685-.105.276-.76.746-1.197.855-.145.037-.375.186-.51.333l-.25.266.344.29c.188.158.343.343.343.41 0 .242-.51.473-.887.402-.52-.098-.642-.29-.51-.804.102-.41.097-.424-.154-.424-.43 0-.668.188-.668.53 0 .22-.082.367-.27.49-.248.163-.286.164-.44.01-.14-.143-.147-.218-.036-.487.167-.404.07-.562-.29-.477-.36.083-.55.32-.55.68 0 .494-.61.826-.93.505zm13.434-1.662c-.162-.26.135-.764.65-1.098.205-.133.4-.32.43-.418.125-.383.895-.65.895-.312 0 .056-.202.295-.45.532-.426.41-.435.43-.186.432.145 0 .692-.196 1.216-.438l1.557-.716c.332-.152.605-.323.608-.382.003-.058.346-.297.762-.53.417-.233.86-.535.99-.67.32-.344.83-.29.873.092.024.207-.067.35-.39.61-.232.186-.473.34-.537.34-.132 0-.6.287-.88.54-.136.125-.17.254-.12.454.088.352-.174.928-.563 1.236-.24.19-.378.22-.81.168-.288-.034-.594-.133-.682-.22-.14-.142-.132-.19.09-.425.177-.19.342-.26.575-.24.274.02.32-.01.292-.188-.055-.33-.21-.438-.417-.296-.448.303-1.646.984-1.734.984-.055 0-.274.092-.49.205-1.09.574-1.482.653-1.677.338zm3.083-3.023c-.135-.207-.14-.302-.037-.532.166-.365.6-.485.795-.218.2.274.18.4-.117.722-.32.345-.43.35-.64.028zM14.125 26.78c-.984-.21-1.267-.63-.796-1.176.312-.363.536-.366 1.274-.015.568.27.655.282 1.17.175.676-.14 1.377-.67 1.297-.98-.028-.112-.005-.34.053-.506.09-.257.053-.402-.235-.94-.282-.527-.416-.664-.778-.803-.24-.092-.535-.167-.654-.167-.568 0-.706-.79-.196-1.125.216-.142.308-.136.924.064 1.328.43 1.68.992 1.704 2.72.01.747-.02.9-.214 1.114-.124.136-.256.342-.293.46-.105.332-.652.88-1.043 1.043-.197.083-.556.153-.8.156-.242.004-.523.028-.624.056-.1.026-.455-.01-.787-.08zm13.127-2.61c-.063-.118-.088-.258-.055-.31.033-.054.014-.126-.042-.16-.055-.035-.14 0-.186.074-.11.172-.61.398-.885.398-.343 0-.64-.384-.6-.775.047-.443.148-.603.384-.603.112 0 .32-.214.516-.53.515-.83 1.444-1.246 1.702-.76.116.216.06.803-.11 1.143-.132.266-.09.59.087.648.07.023.533-.364 1.033-.86.988-.98 1.56-1.392 1.804-1.298.215.083.195.37-.065.907-.12.25-.18.497-.13.547.097.098.773-.478.773-.657 0-.06.107-.093.238-.074.17.023.247.115.27.32.03.253.06.273.265.176.127-.06.394-.316.594-.57.425-.54.787-.66 1.015-.333.085.122.155.322.155.444s.118.326.264.453c.146.126.265.276.265.332 0 .233-.257.642-.44.7-.32.102-.842-.062-1.104-.346l-.242-.263-.507.42c-.653.54-.843.605-1.008.34-.13-.21-.396-.29-.396-.12 0 .212-.535.653-.79.653-.424 0-.442-.28-.065-.968.332-.605.352-.834.072-.834-.075 0-.485.387-.91.86-.52.577-.93.926-1.24 1.06-.568.244-.522.245-.66-.014zm-.31-1.168c.258-.138.558-.704.42-.79-.238-.147-.965.642-.77.836.084.085.113.082.35-.045zm-25.078.666c-.198-.224-.68-1.833-.623-2.078.013-.05-.04-.165-.114-.255-.074-.09-.16-.43-.188-.758-.05-.57-.064-.592-.34-.563-.59.062-.77-.8-.203-.98.11-.034.283-.157.387-.272.176-.195.177-.222.014-.403C.7 18.25.62 18.09.62 18c0-.09-.142-.597-.316-1.128-.363-1.103-.39-1.375-.142-1.47.21-.08.71.45.628.668-.064.166.13.785.247.785.044 0 .165-.096.27-.212.267-.296.545-.265.71.078.186.392.47.432.628.088.068-.15.18-.27.25-.27s.392-.264.715-.584c.322-.32.628-.583.68-.583.1 0 .43-.237.815-.584.13-.117.346-.5.48-.85.31-.796.39-.9.706-.9.345 0 .426.274.197.663-.184.312-.183.326.024.492.118.094.245.302.282.462.037.16.14.29.227.29s.487-.225.888-.502l.73-.504-.01-.53c-.01-.686.077-.94.384-1.106.34-.183.65-.062.805.316.143.347.162.36.346.213.982-.774 1.526-1.512 1.92-2.602.35-.972.425-1.113.59-1.113.22 0 .42.21.42.446 0 .118.077.19.202.19.27 0 .663.51.584.758-.26.825.774-.116 1.385-1.258.212-.395.45-.793.532-.885.08-.092.148-.247.148-.345 0-.097.043-.177.096-.177.054 0 .13-.186.168-.414.08-.48.363-.788.627-.686.147.056.167.15.11.495-.07.41-.064.42.177.347.61-.19.937-.002.937.536 0 .404.106.44.51.173.156-.102.377-.246.493-.32.116-.075.36-.23.54-.348.254-.162.348-.316.402-.654.132-.827.395-1.458.698-1.675.614-.44 1.046-.174.867.53-.105.416-.1.425.172.423.2-.002.577-.27 1.337-.954.58-.524 1.092-.952 1.137-.953.14 0 1.028-.87 1.028-1.006 0-.23.636-.943.964-1.08.262-.112.31-.184.273-.43-.023-.16-.07-.364-.103-.452-.033-.087-.088-.358-.122-.602-.07-.503.11-.776.51-.776.49 0 .592.282.597 1.652.006 1.617-.17 3.33-.364 3.523-.174.176-.586.077-.606-.146l-.026-.277c-.03-.285-.238-.158-.426.26-.25.554-.658.915-1.043.92-.244.003-.305-.05-.358-.316-.09-.452-.176-.464-.533-.075-.173.188-.52.51-.77.713-.25.204-.626.52-.836.7-.485.418-.774.57-1.413.738-.49.13-.935.41-1.924 1.213-.806.654-1.076.845-1.564 1.105-.432.232-.5.24-.7.1-.337-.236-.27-.52.198-.853.766-.544.46-.973-.394-.548-.407.2-.533.333-.663.693-.09.245-.267.567-.396.717-.13.15-.236.365-.236.48 0 .115-.11.282-.246.37-.135.09-.31.282-.388.428-.077.145-.196.264-.264.264s-.34.168-.602.374c-.6.47-1.08.624-1.257.408-.18-.216.052-.617.51-.89.43-.252.456-.664.05-.722-.362-.05-.716.232-1.003.802-.422.838-.634 1.133-1.132 1.57-.262.23-.523.474-.58.54-.06.067-.45.304-.867.526-.417.223-.812.502-.876.62-.13.24-1.378 1.117-1.798 1.264-.145.05-.385.206-.534.345-.148.137-.352.25-.452.25-.45 0-.287-.895.222-1.218.428-.273.436-.478.02-.478-.262 0-.48.156-1.137.812-.447.447-.897.885-1 .973-.103.09-.183.308-.183.5 0 .694-.122 1.004-.464 1.18-.18.092-.367.233-.414.312-.155.266-.5.167-.62-.178-.154-.443-.3-.35-.525.33-.235.708-.247 1.092-.04 1.265.088.072.16.21.16.307 0 .096.064.27.142.384.08.116.176.422.216.68.04.26.19.705.333.99.32.636.324.793.033 1.046-.285.248-.538.252-.75.012zm-.292-5.108c0-.055.055-.234.12-.398.178-.432.163-.716-.037-.754-.223-.043-.41.305-.447.836-.024.344.004.415.167.415.108 0 .197-.046.197-.1zm24.42-14.563c.126-.163.204-.322.174-.352-.11-.11-.457.2-.675.6-.25.46-.185.67.092.294.1-.136.285-.38.41-.543zM42.637 21c-.14-.157-.173-.33-.135-.732.027-.29.086-.587.13-.66.046-.074.1-.282.12-.462.02-.18.102-.734.18-1.23.137-.85.134-.908-.052-1.04-.25-.175-.25-.348.01-.83.157-.297.18-.436.095-.595-.12-.226-.038-.88.125-.982.19-.118.523.068.588.328.08.325.12.323.485-.026.234-.226.424-.295.91-.33.59-.043.63-.03.912.308.276.328.29.396.228 1.01-.037.363-.027.685.023.715.05.03.293-.044.54-.167.418-.207.6-.454.79-1.066.06-.2.533-.26.642-.084.04.066.16.066.33 0 .148-.056.36-.102.473-.102.114 0 .404-.143.644-.318.24-.175.495-.318.564-.318.07 0 .28-.17.468-.377.463-.51.774-.47.872.113.04.233.105.627.146.876.088.528-.172 1.343-.483 1.51-.294.158-.8.126-.954-.06-.1-.12-.108-.245-.034-.45.087-.24.158-.282.444-.26.223.02.362-.026.4-.13.09-.227-.193-.798-.393-.798-.195 0-.69.362-.968.706-.102.128-.324.263-.493.3-.34.075-.444.24-.358.573.146.56-.308 1.05-1.138 1.234-.32.07-.383.04-.69-.328-.37-.44-.288-.442-1.113.013-.665.366-1.78.275-1.78-.146 0-.322.333-.533.898-.57l.53-.033.032-.404c.05-.6-.123-.745-.807-.674-1.014.105-1.158.426-1.166 2.588-.005 1.226-.114 2.307-.293 2.918-.073.248-.49.237-.72-.02zm5.598-4.362c.082-.133-.242-.524-.434-.524-.208 0-.245.247-.067.45.182.21.4.242.502.074zm4.17-.81c-.223-.09-.3-.236-.24-.464.083-.315.307-.437.846-.46 1.185-.05 1.194-.053 1.29-.307.12-.313.78-.9 1.11-.982.754-.19.92.29.277.8-.236.187-.4.387-.365.445.086.138 1.415.01 1.613-.156.083-.07.322-.176.532-.236.278-.08.428-.208.557-.477.097-.2.362-.548.59-.77.363-.35.448-.388.686-.297.376.144.45.308.24.54-.165.183-.165.213.003.47.22.337.262.338.746.008.213-.145.453-.264.532-.264.08 0 .144-.036.144-.08 0-.046.282-.38.628-.744.59-.62.644-.654.898-.538.39.18.4.555.025.858l-.23.186.254.198c.18.14.237.266.196.424-.033.124-.017.252.035.284.113.07 1.32-.14 1.564-.27s2.118-.442 2.233-.37c.053.032.32-.158.595-.422.338-.324.59-.48.782-.48.586 0 .843.747.4 1.162-.127.12-.187.22-.132.227.356.042.87-.08 1.843-.438.61-.224 1.514-.51 2.008-.638.977-.25 1.21-.347 1.532-.63.116-.104.51-.34.873-.53.734-.378 1.084-.372 1.26.024l.11.24.326-.35c.18-.192.358-.454.396-.582.117-.393.72-1.22.977-1.34.266-.124.797.076.89.334.122.34-.15.836-.664 1.223-.573.428-.966 1.12-1.104 1.94-.128.756-.692 1.15-1.158.807-.22-.16-.17-.578.1-.85.174-.173.403-.704.304-.704-.033 0-.272.143-.53.318-.26.175-.5.318-.534.318-.034 0-.365.154-.733.342-.603.306-.706.328-1.003.216-.262-.1-.476-.094-1.03.027-.66.143-2.03.574-2.498.785-.414.187-1.133.307-1.743.29-.494-.013-.673-.068-.89-.272-.255-.24-.305-.25-.828-.14-.767.16-1.837.338-2.406.4-.262.03-.618.1-.792.16-.553.188-1.825.253-2.006.103-.213-.178-.204-.278.05-.533.13-.13.352-.212.575-.212.2 0 .397-.053.437-.118.095-.154-.173-.323-.377-.237-.087.036-.273.06-.412.05-.14-.007-.41.106-.6.252-.192.146-.382.265-.424.265-.042 0-.224.113-.403.25-.18.138-.43.282-.555.322-.125.04-.286.142-.356.228-.165.198-.674.2-.838.003-.093-.113-.095-.21-.01-.37.16-.298.065-.277-.397.086-.766.6-2.49.93-3.067.588-.287-.17-.386-.176-.936-.057-.934.204-1.025.216-1.196.148zm22.55-3.19c.03-.047.014-.148-.033-.224-.068-.11-.14-.102-.363.044-.153.1-.278.2-.278.223 0 .08.622.04.674-.043z"/>
</svg>
