<?xml version="1.0" encoding="utf-8"?>
<svg xmlns="http://www.w3.org/2000/svg" version="1.1" viewBox="0 0 1000 740">
	<title>A crumpled envelope. Writing is scrawled on it: “possessed,” “I am possessed,” “He is possessed.”</title>
	<path d="m 668.86799,739.38002 c 0,-2.69993 3.10011,-11.69969 5.8402,-16.99955 2.25008,-4.34987 3.20011,-7.47979 2.9001,-9.55973 -0.33001,-2.22995 0.26001,-3.8699 2.12007,-5.86984 1.40005,-1.52996 3.60013,-4.47988 4.90017,-6.55982 2.10007,-3.41992 2.17007,-3.9999 0.77003,-6.19984 -1.42005,-2.22994 -1.27005,-3.03992 1.80006,-9.57974 2.9201,-6.24983 3.70012,-7.14981 6.22021,-7.15981 2.27008,0 3.0201,0.59999 3.56012,2.89993 0.38001,1.59995 1.60005,3.91989 2.70009,5.13985 1.10004,1.21997 2.20008,3.12992 2.44008,4.2399 0.24001,1.09996 0.92004,3.5999 1.50006,5.52984 0.58001,1.92995 0.80002,4.29989 0.47001,5.29986 -1.40005,4.25989 -3.57012,8.39977 -5.70019,10.8397 -1.26005,1.44997 -3.04011,3.73991 -3.94014,5.09986 -1.30004,1.96995 -2.40008,2.39995 -5.20017,2.06996 -2.30008,-0.27 -4.04014,0.15999 -5.00017,1.22996 -1.30005,1.49996 -3.98014,13.91962 -3.92014,18.3395 0.03,1.54996 -0.94003,1.85995 -5.70019,1.85995 -3.17011,0 -5.7602,-0.26999 -5.7602,-0.59998 z m 26.60091,-30.83917 c 3.76013,-3.3999 1.55005,-16.49956 -2.50009,-14.93959 -1.20004,0.45998 -5.08017,12.32967 -5.08017,15.53957 0,1.79996 5.42018,1.35997 7.58026,-0.59998 z m 8.9503,10.39972 c -0.96003,-1.05997 -1.74006,-2.74993 -1.74006,-3.7699 0,-2.27994 8.95031,-15.03959 11.13038,-15.87957 0.86003,-0.33999 2.03007,-1.81995 2.60009,-3.29991 0.92003,-2.44994 1.53005,-2.66992 7.63026,-2.69992 7.28025,-0.06 17.28059,-3.04993 25.42086,-7.6198 6.80023,-3.79989 9.05031,-4.39988 10.86037,-2.89992 1.95007,1.59995 1.97007,4.07989 0.05,6.22983 -0.82003,0.91997 -1.65005,3.5299 -1.84006,5.79985 -0.55002,6.67981 1.48005,6.99981 12.03041,1.83994 7.05024,-3.42991 9.30031,-5.09985 10.34035,-7.56979 1.75006,-4.24988 7.90027,-9.52974 11.10038,-9.52974 1.50005,0 3.0401,0.89997 3.73012,2.19993 1.17004,2.17995 1.00004,2.61993 -3.72012,9.04976 -0.70003,0.97997 -0.44002,2.43993 0.90003,4.69987 1.08003,1.83995 1.72006,4.44988 1.44005,5.89984 -0.63002,3.27991 0.37001,3.8699 5.10017,2.97992 2.73009,-0.49998 4.07014,-1.45996 4.80016,-3.3999 1.54005,-4.04989 6.28022,-7.64979 10.07034,-7.64979 4.24015,0 5.8502,1.99994 5.00017,6.19983 -0.55001,2.81992 -0.34001,3.3399 1.37005,3.3399 1.10004,0 3.90013,-0.97997 6.20021,-2.17993 2.30008,-1.19997 7.65026,-3.62991 11.88041,-5.39986 5.68019,-2.39994 8.10027,-4.05989 9.28031,-6.31983 0.87003,-1.69995 2.00007,-3.06991 2.50009,-3.06991 0.48001,0 1.14003,-0.93998 1.44004,-2.09995 0.30001,-1.12996 2.26008,-2.89992 4.37015,-3.89989 3.60012,-1.72996 3.93014,-1.72996 5.63019,-0.02 1.55006,1.55995 1.60006,2.13994 0.40002,4.06989 -1.18004,1.91994 -1.10004,2.84993 0.56002,6.32982 1.07003,2.24995 2.45008,4.09989 3.0601,4.09989 2.14007,0.02 10.80037,-6.16983 12.75043,-9.13975 1.10004,-1.63995 4.78017,-5.76984 8.20028,-9.16975 5.27018,-5.25986 6.70023,-6.13984 9.50032,-5.86984 4.65016,0.45999 4.93017,3.9499 0.74003,9.04976 -3.22011,3.89989 -4.20014,8.04977 -2.24008,9.27974 0.57002,0.34 0.75003,2.03995 0.40002,3.7699 -0.56002,2.79993 -0.35001,3.13992 2.02007,3.13992 2.48008,0 9.24031,-5.57985 9.24031,-7.6198 0,-0.47999 0.53002,-0.85997 1.17004,-0.85997 0.64002,0 2.10007,-1.19997 3.24011,-2.65993 2.20007,-2.81992 5.00017,-3.33991 8.34028,-1.55996 2.50009,1.33996 2.60009,3.97989 0.33001,7.2398 -2.62009,3.7699 -0.56002,4.99987 5.50019,3.29992 3.68013,-1.02998 5.42018,-2.21994 6.68023,-4.54988 2.9401,-5.47985 7.25024,-9.82973 11.7704,-11.86968 4.97017,-2.24994 7.95027,-1.27997 7.80026,2.53993 -0.08,2.52993 0.90003,2.89992 2.46009,0.91998 1.74005,-2.19995 5.56018,-14.34961 5.34018,-16.97954 -0.26001,-3.19992 3.24011,-7.99979 6.47022,-8.87976 5.14017,-1.39997 7.68026,2.79992 5.27018,8.69976 -0.70003,1.69995 -1.42005,4.86987 -1.60006,6.99981 -0.20001,2.15994 -1.30004,5.49985 -2.45008,7.4298 -4.87017,8.13978 -5.46019,9.73973 -5.50019,14.7196 -0.02,2.87992 -0.47001,5.49985 -1.00003,5.82984 -0.52002,0.32999 -0.95004,1.52996 -0.95004,2.67993 0,1.25996 -1.07003,2.49994 -2.70009,3.11992 -3.88013,1.46996 -5.10017,1.29996 -6.48022,-0.94997 -0.97003,-1.53997 -0.90003,-2.61993 0.26001,-4.87987 2.8501,-5.51986 -0.72002,-6.49983 -6.17021,-1.69996 -3.90013,3.43991 -6.90023,4.44988 -14.32048,4.84987 -2.7301,0.13999 -7.90027,1.13997 -11.50039,2.19994 -6.40022,1.91995 -6.63023,1.91995 -11.5604,-0.12999 l -5.03017,-2.09995 -6.94023,2.37994 c -11.10038,3.7999 -20.6507,2.79992 -19.95068,-2.04995 0.30001,-2.09994 1.80006,-3.19991 8.15028,-6.06983 1.98006,-0.89998 1.70005,-2.61994 -0.50002,-3.07992 -2.27008,-0.46999 -6.44022,1.59996 -10.47036,5.23985 -1.75006,1.55997 -6.26021,3.9499 -10.04034,5.29986 -3.78013,1.34997 -8.00027,3.02993 -9.38032,3.7399 -2.84009,1.44996 -6.34021,0.54999 -7.97027,-2.04994 -0.83003,-1.29996 -0.48001,-2.35994 1.44005,-4.39988 1.40005,-1.49996 3.16011,-2.69993 3.93014,-2.69993 1.70005,0 1.85006,-1.72995 0.25,-2.71992 -0.63002,-0.4 -2.65009,0.66998 -4.50015,2.35993 -6.25021,5.72984 -12.20041,9.89973 -14.13048,9.89973 -1.08004,0 -4.80016,1.39996 -8.26028,3.13992 -7.00024,3.4799 -13.54046,4.11989 -17.04058,1.65996 -1.22004,-0.84998 -2.43008,-1.32997 -2.70009,-1.06998 -0.57002,0.57999 -10.40035,2.62993 -15.64053,3.27991 -2.03007,0.25 -4.32015,0.66999 -5.08017,0.94997 -0.76003,0.27 -3.02011,-0.19999 -5.02017,-1.02996 -4.35015,-1.81995 -4.72016,-4.49988 -1.12004,-7.87979 2.06007,-1.94994 3.23011,-2.25994 6.34021,-1.66995 4.40015,0.82997 4.62016,0.21998 1.68006,-4.61988 -2.43008,-3.9999 -4.88017,-3.89989 -9.48032,0.37999 -1.46005,1.34996 -5.22018,3.4699 -8.37029,4.69987 -3.1401,1.24996 -7.02023,3.19991 -8.60029,4.32989 -1.60005,1.13997 -3.36011,2.06994 -3.93013,2.06994 -0.56002,0 -1.58006,0.66998 -2.25008,1.47996 -1.62005,1.95995 -6.27021,2.76992 -9.30031,1.61995 -5.13018,-1.95994 -1.38005,-8.61976 5.60019,-9.93972 1.98006,-0.37 3.60012,-1.19997 3.60012,-1.82996 0,-2.83992 -2.56009,-9.34974 -3.68013,-9.34974 -0.68002,0 -3.58012,1.19997 -6.44022,2.64993 -2.86009,1.44996 -6.0602,2.63993 -7.12024,2.64993 -3.74012,0 -6.0002,2.06994 -6.0002,5.47984 0,6.43983 -5.20018,11.87969 -13.74047,14.42961 -7.80026,2.32994 -9.17031,2.37994 -10.95037,0.4 z m 16.97058,-9.87973 c 1.88006,-1.56996 1.72006,-2.64993 -0.72003,-5.09986 -2.10007,-2.09994 -2.10007,-2.09994 -5.82019,0.1 -4.40015,2.61993 -5.18018,3.64991 -4.32015,5.89984 0.52002,1.29997 1.57005,1.49996 5.07017,0.94997 2.43008,-0.39998 5.04017,-1.21996 5.8002,-1.84994 z M 681.78843,617.9633 c -2.82009,-1.06997 -4.84016,-5.69985 -4.00013,-9.12975 0.35001,-1.32997 0.63002,-2.65993 0.64002,-2.93992 0.02,-0.27999 0.75002,-2.54994 1.63005,-5.02986 1.50006,-4.27989 3.17011,-12.69966 4.16015,-20.95944 0.60002,-5.22986 2.26007,-13.93963 3.45011,-18.2495 0.73003,-2.66994 0.60002,-4.59988 -0.45001,-7.13982 -1.93007,-4.59987 -1.90007,-4.82986 1.38004,-7.87978 2.33008,-2.16995 3.20011,-2.42994 5.02018,-1.46996 3.80012,1.99994 3.97013,2.93992 2.10007,12.22967 -0.63002,3.14991 1.38004,3.05991 3.92013,-0.18 1.10004,-1.41996 3.63012,-3.09991 5.60019,-3.76989 4.50015,-1.49996 10.14034,0.57998 12.84044,4.69987 1.73005,2.65993 1.72005,3.09991 -0.13001,8.54977 -1.07003,3.15991 -1.63005,6.06983 -1.23004,6.46982 0.40001,0.39999 2.27008,0.27 4.17014,-0.26999 2.40008,-0.67999 4.10014,-2.19994 5.57019,-4.95987 2.46008,-4.62987 5.8202,-5.89984 10.50036,-3.93989 5.50018,2.29993 9.76033,2.47993 13.48046,0.57998 1.92006,-0.97997 6.0002,-2.72992 9.0503,-3.89989 3.98014,-1.49996 6.80023,-3.5999 9.98034,-7.3798 5.32018,-6.32983 8.6703,-6.75982 8.95031,-1.14997 0.1,1.91995 0.73002,4.16988 1.40004,4.99986 0.76003,0.89998 0.97004,2.77993 0.55002,4.71987 -0.55002,2.49994 -0.35001,3.21992 0.90003,3.21992 2.10007,0 7.14024,-2.23994 8.94031,-3.95989 0.76002,-0.72999 1.80006,-1.32997 2.30007,-1.32997 0.50002,0 2.47009,-2.16994 4.37015,-4.81987 2.7501,-3.84989 4.00014,-4.75987 6.13021,-4.49987 2.34008,0.26999 2.78009,0.96997 3.40012,5.39985 1.04003,7.27981 3.46011,10.64971 7.05024,9.79973 4.45015,-1.02997 8.63029,-2.87992 8.63029,-3.7999 0,-0.45998 1.93006,-2.37993 4.30014,-4.24988 3.72013,-2.96992 4.62016,-3.25991 6.86024,-2.22994 1.44005,0.64999 2.58009,2.07994 2.58009,3.21991 0,1.97995 -5.50019,7.5298 -7.48026,7.5298 -0.54002,0 -0.98003,0.77998 -0.98003,1.71996 0,1.32996 0.70002,1.59995 3.0301,1.11996 6.87023,-1.37996 24.04082,-10.69971 27.60094,-14.99959 0.73002,-0.89998 1.74006,-1.61996 2.25007,-1.61996 0.50002,0 3.12011,-2.16993 5.8002,-4.82986 5.8502,-5.77985 9.57033,-6.19983 9.13031,-0.99998 -0.48001,5.53985 0.57002,7.94978 3.46012,7.94978 1.44005,0 2.62009,-0.49998 2.62009,-1.07996 0,-0.59998 1.30004,-1.66996 2.9001,-2.37995 1.60005,-0.69997 3.28011,-1.84994 3.72012,-2.55992 0.77003,-1.19997 7.70026,-4.83987 11.53039,-6.02984 1.13004,-0.34999 1.60006,-1.29996 1.25005,-2.55993 -0.30001,-1.22997 0.60002,-3.34991 2.34008,-5.42985 2.24007,-2.67993 3.53012,-3.33991 6.0402,-3.09991 4.64016,0.47998 5.8302,3.04991 3.18011,6.81981 -2.32008,3.29991 -2.22008,9.69974 0.17001,10.59971 2.03006,0.79998 7.00023,-1.53995 9.16031,-4.29989 2.15007,-2.73992 9.97034,-6.9498 12.90043,-6.9498 2.6701,0 3.20011,2.54992 1.30005,6.19983 -1.97007,3.8499 -0.90003,4.91986 3.96013,3.92989 5.10018,-1.04997 16.74057,-7.22981 18.06062,-9.59974 3.60012,-6.49983 11.08037,-13.24965 14.67049,-13.24965 1.25005,0 2.45009,1.19997 3.20011,3.17992 2.10007,5.56985 3.83013,3.8299 4.53016,-4.53987 0.26001,-3.03993 0.65002,-7.05981 0.87003,-8.93977 0.46001,-3.94989 4.20014,-10.49971 6.82023,-11.89967 1.20004,-0.62998 1.85006,-2.42993 1.97007,-5.39985 0.2,-4.83988 2.50008,-7.44981 5.9802,-6.76982 4.10014,0.79997 5.8202,5.92984 2.22007,6.61982 -3.50011,0.66998 -4.46015,2.31994 -1.77006,3.01991 1.86007,0.49999 2.34008,1.26998 2.10008,3.39992 -0.25001,2.09994 -1.46005,3.2999 -4.92017,4.94986 -4.05014,1.89995 -4.40015,2.33994 -2.9001,3.57991 1.88006,1.56995 2.24008,4.89987 0.62002,5.89984 -0.58002,0.36998 -1.05004,1.59995 -1.05004,2.75992 0,1.14997 -1.20004,4.96986 -2.70009,8.49977 -1.62005,3.86989 -2.80009,8.99976 -3.0201,12.99965 -0.20001,3.6299 -1.00003,7.63979 -1.78006,8.89976 -1.83006,2.94992 -6.48022,4.89986 -9.44032,3.94989 -1.86006,-0.59998 -2.16007,-1.26996 -1.60005,-3.5499 1.50005,-6.14984 1.28004,-7.06981 -1.73006,-6.85981 -1.56006,0.1 -3.82013,1.15997 -5.02017,2.36993 -1.25005,1.24997 -3.56012,2.19994 -5.37019,2.19994 -1.75006,0 -5.20017,0.89997 -7.66026,1.99995 -15.68053,6.95981 -22.10075,8.07977 -28.23096,4.89987 -2.75009,-1.41997 -3.66012,-1.36997 -9.63032,0.54997 -3.62013,1.15997 -7.10024,2.49994 -7.74027,2.99993 -2.04006,1.59995 -8.13027,2.29993 -10.23034,1.15997 -1.12004,-0.59998 -2.02007,-2.19995 -2.02007,-3.59991 0,-2.02995 0.95003,-2.89991 4.75016,-4.35987 5.04017,-1.92996 5.50019,-2.49994 3.54012,-4.44989 -1.42005,-1.42996 -3.60012,-0.47998 -9.35032,4.05989 -2.05007,1.59996 -5.22017,3.7999 -7.07024,4.86987 -1.85006,1.06997 -6.28021,3.7299 -9.85033,5.91984 -3.57012,2.17994 -7.40025,3.96989 -8.53029,3.96989 -2.52009,0 -2.68009,-2.84992 -0.30001,-5.46985 1.40005,-1.56996 1.48005,-2.21994 0.40001,-3.5299 -2.20007,-2.63993 -4.70016,-1.86996 -10.17034,3.09991 -2.8501,2.59993 -10.36036,7.3998 -16.70057,10.66972 -9.83033,5.06986 -12.20042,5.87984 -16.36056,5.59985 -4.04013,-0.25 -5.10017,-0.76999 -6.18021,-3.05993 l -1.30004,-2.74992 -6.10021,1.53996 c -3.35011,0.82998 -6.85023,2.19994 -7.77026,2.99991 -1.98007,1.76996 -4.57016,1.89996 -7.38025,0.4 -2.9501,-1.57996 -2.54009,-3.9699 1.30004,-7.5498 2.9701,-2.79993 3.16011,-3.29991 1.73006,-4.73987 -1.44005,-1.42996 -2.04007,-1.29997 -5.72019,1.22996 -2.26008,1.54996 -6.73023,4.22989 -9.92034,5.94984 -3.20011,1.71996 -7.03024,3.8999 -8.52029,4.82988 -3.78013,2.37993 -9.73033,1.13997 -12.12041,-2.49994 -1.76006,-2.69993 -1.74006,-2.84993 0.70002,-4.72987 1.37005,-1.05997 4.05014,-1.93994 5.9302,-1.95995 2.7401,0 3.44012,-0.44998 3.44012,-2.15994 0,-2.45993 -2.8201,-3.95989 -4.73016,-2.51993 -8.26028,6.19983 -17.32059,11.0297 -20.7007,11.0297 -3.70013,0 -7.88027,2.59993 -13.18045,8.16978 -5.45019,5.73984 -8.10028,6.69982 -12.23042,4.49988 -1.70005,-0.91998 -1.95006,-1.79995 -1.37004,-4.89987 0.70002,-3.6999 0.66002,-3.7299 -1.80006,-2.39994 -5.55019,2.96992 -16.54057,3.41991 -18.24062,0.73999 -1.68006,-2.63993 2.33008,-6.46983 6.64022,-6.33984 2.12007,0.06 3.75013,-0.64998 4.73016,-2.04994 1.80006,-2.56992 1.67006,-3.72989 -0.84003,-7.52979 -2.08007,-3.09992 -4.90016,-3.65991 -9.60032,-1.85996 -4.26015,1.61996 -7.52026,10.65972 -8.62029,23.85936 -0.30001,3.4999 -0.97004,7.79979 -1.50006,9.53975 -0.54001,1.74995 -1.24004,6.29982 -1.56005,10.07972 -0.32001,3.7999 -0.80003,7.94979 -1.08003,9.23975 -0.65003,3.05992 -3.52012,4.52988 -6.57023,3.37991 z m 49.8717,-40.89889 c 0.38001,-0.96997 0.25001,-2.19995 -0.27001,-2.69993 -1.15004,-1.16997 -4.70016,2.09994 -3.82013,3.49991 0.97003,1.57995 3.36011,1.09996 4.10014,-0.79998 z m 237.37806,-41.17889 c 0.74002,-0.87998 1.10004,-1.83995 0.80003,-2.12994 -0.95004,-0.95997 -4.00014,0.76997 -4.00014,2.27994 0,1.93994 1.53005,1.87994 3.20011,-0.14 z m -552.89878,66.86819 c -0.26001,-0.26999 -3.40011,-0.74997 -6.95023,-1.07997 -14.6005,-1.31996 -20.4007,-3.5999 -20.4007,-8.03978 0,-3.5999 11.93041,-11.45969 15.37052,-10.13973 1.45005,0.54999 1.60006,1.01997 0.67003,1.95995 -1.80006,1.81995 -1.54005,2.44994 1.68005,3.95989 5.04018,2.36994 9.75034,3.04992 13.66047,1.96995 2.08007,-0.59999 4.72016,-1.23997 5.8802,-1.45996 2.80009,-0.54998 9.26031,-7.2998 9.27031,-9.69974 0,-1.05997 0.94004,-3.34991 2.10007,-5.09986 1.15004,-1.74996 2.10008,-4.92986 2.10008,-7.06981 0,-3.26991 -0.55002,-4.22989 -3.55012,-6.09983 -4.16015,-2.56993 -6.75023,-2.72994 -9.60033,-0.57999 -3.13011,2.37994 -4.68016,1.89995 -6.58022,-2.09995 -1.60006,-3.3699 -1.60006,-3.83989 0,-6.29982 3.40011,-5.17987 16.50056,-3.6999 23.13078,2.61993 3.48012,3.3199 4.00014,4.44987 4.00014,8.57976 0,6.35984 -5.7002,18.02951 -12.07041,24.69934 -2.68009,2.79993 -4.73016,5.24986 -4.55016,5.42985 0.18001,0.17999 3.40012,-0.14 7.15025,-0.69998 10.07034,-1.52996 21.23072,-2.19994 24.54083,-1.45996 3.70012,0.79998 4.05014,5.07986 0.54002,6.95981 -3.10011,1.66995 -9.02031,2.15994 -9.85034,0.79997 -0.98003,-1.56995 -28.80098,0 -32.3811,1.83996 -3.1501,1.61995 -3.44011,1.69995 -4.15014,0.97997 z m 90.70308,-8.45977 c -1.06003,-0.79998 -2.13007,-3.13991 -2.38008,-5.17986 -0.40001,-3.11992 0.30001,-4.71987 4.40015,-10.19973 5.34018,-7.1198 10.90037,-10.66971 16.68057,-10.66971 5.40018,0 7.23024,2.39994 6.80023,8.89976 l -0.34001,5.39986 3.50012,-0.26999 c 3.85013,-0.29999 17.53059,-7.39981 21.50073,-11.1497 6.30021,-5.94984 7.10024,-6.41983 8.80029,-5.01986 2.04007,1.69994 2.02007,2.63992 -0.1,4.77986 -0.95003,0.93998 -1.45005,1.97995 -1.13004,2.29994 0.60002,0.59999 2.38008,-0.67999 5.96021,-4.22989 4.35014,-4.29988 8.40028,0.83998 4.90016,6.21983 -1.97007,2.99993 -2.07007,3.67991 -0.55002,3.67991 1.00004,0 9.93034,-6.19983 11.8004,-8.19978 l 4.85017,-5.29986 c 4.43015,-4.89987 9.55032,-6.26983 9.87033,-2.66993 0.32001,3.6599 -0.33001,7.05981 -1.97006,10.22973 -0.90003,1.79995 -2.30008,6.02983 -3.10011,9.43974 -2.32008,9.94974 -5.70019,13.09965 -11.02037,10.25973 -2.40008,-1.29997 -2.63009,-3.9399 -0.62002,-6.89982 6.44021,-9.44974 5.70019,-10.7997 -2.60009,-4.72987 -3.13011,2.29994 -6.37022,4.79988 -7.20025,5.53985 -3.1301,2.81993 -7.00023,5.05986 -8.76029,5.06986 -2.7201,0 -4.35015,-3.69989 -2.7401,-6.27983 0.72003,-1.16996 1.00004,-2.39993 0.64002,-2.76992 -1.02003,-1.02997 -4.85016,1.39996 -5.52018,3.4799 -0.33001,1.02998 -2.00007,2.65993 -3.70013,3.62991 -2.56009,1.44996 -3.42011,1.51996 -4.95017,0.39998 -1.73006,-1.26996 -1.70005,-1.52995 0.53002,-4.39988 3.42012,-4.33988 1.13004,-4.31988 -4.95017,0.05 -2.86009,2.07994 -6.1002,3.7799 -7.20024,3.7799 -1.10004,0 -3.35012,0.71999 -5.02017,1.59996 -3.82013,1.99994 -7.48026,1.99994 -9.44032,0.04 -1.33005,-1.32997 -1.80006,-1.25997 -3.73013,0.52998 -1.20004,1.13997 -2.9001,2.05994 -3.77013,2.05994 -0.86003,0 -1.86006,0.46999 -2.22007,1.04998 -0.92003,1.49996 -4.93017,1.24996 -7.20025,-0.45999 z m 14.06048,-10.39972 3.70013,-2.35994 -2.9001,-0.34998 c -3.33012,-0.42 -3.74013,-1.71996 -1.06004,-3.39992 1.54005,-0.96997 1.40005,-1.04996 -0.80003,-0.44998 -3.23011,0.89998 -4.45015,2.59993 -3.0501,4.29988 0.75003,0.89997 0.43001,1.46996 -1.10004,1.95995 -1.20004,0.39998 -2.18007,1.13997 -2.18007,1.69995 0,1.69996 3.56012,1.04997 7.38025,-1.39996 z M 331.93655,500.19648 c -2.16007,-2.17994 -1.40005,-6.74981 2.32008,-14.29961 l 7.00024,-14.11962 c 1.87006,-3.7999 4.75016,-9.27975 6.40022,-12.19967 1.63005,-2.89992 3.0201,-6.49982 3.0701,-7.94978 0.06,-1.45996 0.80003,-3.56991 1.65006,-4.69988 0.86003,-1.13997 1.55005,-3.81989 1.55005,-5.95983 0,-4.52989 3.37011,-9.47975 6.46022,-9.47975 3.0401,0 3.54012,2.63992 1.50005,7.97979 -0.98003,2.59992 -1.60005,5.27986 -1.40005,5.94984 0.24001,0.66997 2.9001,-0.99998 5.9502,-3.69991 3.05011,-2.71992 6.27022,-4.93987 7.16025,-4.93987 3.36011,0 5.70019,2.15995 5.70019,5.27986 0,1.69996 0.53002,4.24989 1.17004,5.65986 0.85003,1.86994 0.85003,3.1599 0,4.74987 -2.27008,4.24988 -0.1,4.07989 13.95047,-1.12998 1.80007,-0.66997 3.80013,-2.74992 5.07018,-5.23986 2.62009,-5.15985 4.53015,-5.92983 8.8503,-3.5999 4.85016,2.61993 14.9205,1.92995 25.25085,-1.72995 4.57016,-1.61996 9.12031,-2.94992 10.12035,-2.94992 1.00003,0 3.67012,-1.41996 5.9502,-3.14992 4.43015,-3.3599 7.70026,-3.99988 9.76033,-1.93994 1.77006,1.77995 1.66006,2.17994 -1.84006,6.59982 -2.28008,2.87992 -3.10011,4.99986 -3.0501,8.06978 0.08,6.44982 1.45004,6.69982 10.93037,2.09995 4.63015,-2.25995 10.77036,-5.17987 13.64046,-6.49983 2.8801,-1.29997 6.62022,-3.96989 8.32028,-5.91985 5.34018,-6.09982 8.95031,-8.16977 11.90041,-6.82981 5.43018,2.49994 1.63005,9.35975 -6.27022,11.3497 -3.63012,0.89997 -3.0801,2.94992 1.00004,3.6599 2.54008,0.43999 3.1301,1.09997 3.40011,3.89989 0.47002,4.81987 2.34008,6.01984 7.26025,4.64987 2.20007,-0.61998 5.74019,-1.12997 7.83027,-1.12997 4.38014,0 10.95037,-4.26988 14.68049,-9.52974 3.22011,-4.51987 7.08024,-5.95983 9.68033,-3.5999 1.08004,0.99997 1.97007,2.64993 1.97007,3.6999 0,2.39994 -4.00014,6.23984 -6.48022,6.23984 -2.48008,0 -3.66012,2.12994 -1.85006,3.3399 2.33008,1.54996 12.75043,0.3 13.83047,-1.63996 0.52001,-0.92997 2.14007,-1.69994 3.60012,-1.69994 4.12014,0 12.74043,-3.13992 14.7705,-5.39986 1.00003,-1.09997 2.45008,-1.99995 3.20011,-1.99995 2.57009,0 9.33032,-4.44988 15.52053,-10.19972 6.96023,-6.46982 10.60036,-7.92979 13.23045,-5.29986 2.30007,2.29994 1.00003,4.39989 -5.54019,8.84976 l -5.04017,3.43991 3.0001,1.12997 c 1.65005,0.62999 3.80013,1.86995 4.77016,2.74993 1.60005,1.44996 2.75009,1.12997 11.8504,-3.24991 5.55019,-2.66993 10.58036,-4.85988 11.17038,-4.85988 0.60002,0 3.70013,-2.39993 6.90024,-5.29985 6.26021,-5.67985 7.90026,-6.24983 10.50035,-3.6399 2.45009,2.45993 2.10007,3.3499 -2.52008,6.55982 -2.30008,1.59996 -4.20015,3.22991 -4.23015,3.6399 -0.02,0.39999 1.27005,1.36996 2.8701,2.13994 1.83006,0.87998 2.9001,2.24994 2.9301,3.6999 0.05,3.46991 0.70002,3.61991 6.38022,1.46996 2.8701,-1.09996 7.70026,-2.29993 10.75036,-2.71992 3.04011,-0.41999 6.60023,-1.59996 7.94027,-2.65993 1.33005,-1.04998 4.45015,-2.51994 6.94024,-3.26991 3.80013,-1.13997 4.75016,-1.09998 6.0202,0.15999 1.80006,1.79996 0.94003,6.26984 -1.20004,6.26984 -0.80003,0 -1.45005,0.47998 -1.45005,1.05996 0,1.53997 6.20021,1.25997 11.30039,-0.52998 2.42008,-0.84998 13.12044,-2.53993 23.7708,-3.7599 20.4307,-2.33994 29.82102,-4.47987 32.77112,-7.4698 3.68012,-3.7199 14.15048,-11.29969 16.70056,-12.06968 1.46005,-0.44998 3.12011,-1.19996 3.70013,-1.65995 1.55005,-1.22996 10.25035,-4.15988 12.40042,-4.17988 1.30004,0 2.20008,-1.44996 3.0601,-4.86987 0.67003,-2.66993 2.10008,-5.39985 3.18011,-6.07984 1.10004,-0.67998 1.98007,-1.79995 1.98007,-2.47993 0,-4.11989 15.60053,-22.63939 19.07065,-22.63939 6.60022,0 7.27024,5.76985 1.40004,11.81968 -6.25021,6.39983 -12.97044,18.39951 -17.40059,31.04917 -1.60005,4.61986 -3.68012,9.27974 -4.60015,10.33971 -0.90003,1.06997 -1.64006,2.31994 -1.64006,2.79992 0,1.31997 -5.50018,7.6498 -7.68026,8.81977 -1.43005,0.74998 -2.66009,0.57998 -4.53015,-0.64998 -3.38012,-2.19994 -3.26011,-3.7799 0.58002,-7.4698 3.1501,-3.01992 4.16014,-5.82984 2.10007,-5.82984 -0.58002,0 -3.06011,1.44996 -5.50019,3.22991 -6.24021,4.52987 -12.97044,7.3698 -20.37069,8.59977 -8.50029,1.41996 -15.60053,2.65992 -23.24079,4.04989 -15.87054,2.89992 -26.70091,4.45988 -29.98102,4.32988 -1.95006,-0.08 -6.0402,0.57999 -9.10031,1.46996 -8.44028,2.45993 -14.17048,2.31993 -18.83064,-0.45999 -4.15014,-2.47993 -8.25028,-2.47993 -16.07054,0.02 -1.75006,0.53999 -5.45019,1.71996 -8.23028,2.59993 -8.33028,2.62993 -19.78067,1.72996 -19.78067,-1.54995 0,-2.09995 3.53012,-4.27989 6.95023,-4.27989 4.60016,0 4.64016,-1.65996 0.10001,-3.8299 -3.30012,-1.57995 -3.83013,-1.54995 -8.7203,0.55999 -2.8601,1.22996 -6.63023,2.99991 -8.37028,3.92989 -22.96078,12.23967 -24.66084,12.99965 -27.56094,12.19967 -1.60005,-0.41999 -3.44012,-1.59996 -4.06014,-2.63992 -0.90003,-1.49996 -0.64002,-2.29994 1.36005,-3.92991 1.38004,-1.12996 3.83013,-2.05994 5.47018,-2.05994 7.47026,0 8.28028,-2.56992 1.30005,-4.07988 -4.47015,-0.96998 -5.45019,-0.82998 -8.7303,1.25996 -6.46022,4.09989 -7.88027,4.94987 -10.04034,5.91984 -19.26065,8.61977 -27.74094,10.66971 -33.10112,7.97978 -1.85007,-0.91997 -3.36012,-2.11994 -3.36012,-2.65992 0,-1.45996 -4.43015,-1.19997 -9.36032,0.54998 -9.80033,3.46991 -35.85121,5.49986 -38.3613,2.97992 -0.90003,-0.91997 -0.78003,-1.89994 0.55002,-3.92989 1.90006,-2.89992 5.7502,-3.5299 10.53036,-1.69996 2.07007,0.77999 3.0001,0.55999 4.50015,-1.09997 2.37008,-2.63993 1.40005,-3.45991 -6.10021,-5.19985 -5.9702,-1.35997 -6.0602,-1.34997 -11.20038,1.95994 -2.84009,1.83995 -5.67019,3.33992 -6.28021,3.33992 -0.60002,0 -3.86013,1.66994 -7.24025,3.69989 -3.38011,2.04995 -6.64022,3.7699 -7.26024,3.8299 -13.47046,1.33996 -20.07068,-0.59999 -17.6206,-5.19987 1.84006,-3.4399 4.75016,-4.64986 8.10027,-3.3699 4.10014,1.55995 6.05021,-1.19997 4.13014,-5.79985 -0.75002,-1.76995 -2.08007,-3.3799 -2.9601,-3.5599 -0.87003,-0.17999 -4.70016,1.13997 -8.52029,2.91992 -6.58022,3.09992 -16.44055,5.87984 -23.33079,6.59983 -2.10007,0.23998 -3.86013,1.39995 -5.30018,3.5499 -1.17004,1.75996 -4.20014,5.05986 -6.70023,7.3298 -4.00013,3.61991 -4.90016,3.99989 -7.40025,3.13991 -2.30008,-0.79998 -2.9001,-1.75995 -3.1601,-4.95986 -0.36002,-4.29988 -1.20004,-4.72987 -4.74017,-2.39994 -1.30004,0.84998 -5.23017,2.21995 -8.76029,3.03992 -3.52012,0.82998 -7.48026,2.07995 -8.7803,2.77993 -1.94007,1.02997 -2.8601,0.94997 -5.00017,-0.45999 -3.56012,-2.33994 -4.12014,-4.29988 -2.10007,-7.3998 1.40005,-2.14994 2.67009,-2.62993 7.66026,-2.89993 7.34025,-0.39998 9.24031,-2.39993 6.52022,-6.9298 -2.40008,-3.9599 -4.87017,-4.09989 -10.12034,-0.55999 -5.7402,3.8699 -10.44036,10.36972 -13.45046,18.5995 -5.7502,15.69957 -7.93027,21.07943 -9.47032,23.27937 -0.90003,1.29997 -1.64006,3.33991 -1.64006,4.55988 0,2.49993 -3.60012,6.85981 -5.64019,6.85981 -0.73002,0 -1.90006,-0.56998 -2.60009,-1.26996 z m 70.40239,-44.06881 c 0.38002,-2.59993 -0.80002,-3.07991 -2.76009,-1.09997 -1.90007,1.89995 -1.54005,4.22989 0.58002,3.8299 1.02003,-0.19999 2.00007,-1.42996 2.20007,-2.72993 z m 350.55191,-27.95924 c 6.80023,-3.6499 11.37038,-7.4998 9.96034,-8.39977 -2.7201,-1.67996 -17.90061,6.62982 -17.90061,9.79973 0,1.54996 3.66012,0.89998 7.94027,-1.39996 z m -674.602914,66.7182 c -1.77006,-1.79995 -1.600054,-3.39991 0.840029,-7.73979 1.750059,-3.11992 1.900064,-4.1299 0.820027,-5.84984 -1.140038,-1.79995 -0.860029,-2.43994 2.220076,-5.01987 3.670124,-3.06992 5.240178,-6.43982 8.750297,-18.81949 2.100071,-7.3398 2.600088,-9.52975 3.480118,-14.99959 0.520018,-3.23992 2.36008,-4.73987 5.360182,-4.34989 2.500085,0.32999 3.380115,4.29989 1.680055,7.5998 -2.000066,3.85989 -8.740295,24.36934 -8.920301,27.06927 -0.140004,2.29994 0.30001,2.59993 4.170142,2.89992 3.600129,0.23999 4.500159,-0.1 5.440189,-2.06994 1.72006,-3.59991 3.24011,-8.32979 4.03013,-12.42968 0.40002,-2.03994 1.32005,-4.41988 2.07007,-5.29985 1.90007,-2.21994 3.68013,-9.21975 3.68013,-14.54961 0,-3.5799 0.53002,-4.81986 2.60009,-6.17983 3.47012,-2.29994 7.36025,-1.63996 7.78026,1.29996 0.18001,1.26998 -0.80002,4.13989 -2.18007,6.36983 -1.38005,2.23995 -3.15011,5.72984 -3.93014,7.76979 -0.78002,2.03995 -2.24007,5.13987 -3.24011,6.89982 -1.00003,1.73995 -2.40008,5.07986 -3.1201,7.3998 -0.73003,2.34993 -1.73006,4.69987 -2.25008,5.25986 -1.60005,1.73995 -1.12004,6.19983 0.60002,5.52985 0.83003,-0.32 3.33012,-1.09997 5.54019,-1.69996 2.32008,-0.64998 5.8302,-2.96992 8.26028,-5.45985 6.02021,-6.17984 9.48032,-7.79979 13.24045,-6.24983 3.60012,1.49996 4.47015,3.3699 3.15011,6.84981 -1.05004,2.75993 -7.60026,7.45981 -11.97041,8.54977 -1.45005,0.37 -3.75013,1.85996 -5.10017,3.32992 l -2.50009,2.65992 3.44012,2.89993 c 1.88006,1.57995 3.43012,3.4299 3.43012,4.09988 0,2.41994 -5.10018,4.72987 -8.8703,4.01989 -5.20018,-0.97997 -6.42022,-2.89992 -5.10018,-8.03978 1.02004,-4.09989 0.97004,-4.23989 -1.54005,-4.23989 -4.30015,0 -6.68023,1.87996 -6.68023,5.29986 0,2.19994 -0.82002,3.6699 -2.70009,4.89987 -2.480085,1.62996 -2.860098,1.63996 -4.40015,0.1 -1.400047,-1.42995 -1.47005,-2.17993 -0.360012,-4.86986 1.670057,-4.03989 0.700024,-5.61985 -2.900099,-4.76987 -3.600122,0.82997 -5.500186,3.1999 -5.500186,6.79982 0,4.93985 -6.100208,8.25977 -9.300316,5.04986 z M 212.6325,478.26707 c -1.62005,-2.59992 1.35005,-7.63979 6.50022,-10.9797 2.05007,-1.32996 4.00014,-3.19991 4.30015,-4.17988 1.25004,-3.8299 8.9503,-6.49983 8.9503,-3.11992 0,0.55998 -2.02007,2.94992 -4.50015,5.31985 -4.26015,4.09989 -4.35015,4.29989 -1.86006,4.31989 1.45004,0 6.92023,-1.95995 12.16041,-4.37988 l 15.57053,-7.15981 c 3.32011,-1.51995 6.0502,-3.22991 6.0802,-3.81989 0.03,-0.57999 3.46012,-2.96992 7.62026,-5.29986 4.17014,-2.32994 8.60029,-5.34985 9.90034,-6.69982 3.20011,-3.43991 8.30028,-2.89993 8.7303,0.91997 0.24,2.06995 -0.67003,3.49991 -3.90014,6.09984 -2.32008,1.85995 -4.73016,3.3999 -5.37018,3.3999 -1.32004,0 -6.0002,2.86993 -8.8003,5.39986 -1.36004,1.24997 -1.70006,2.53993 -1.20004,4.53988 0.88003,3.5199 -1.74006,9.27975 -5.63019,12.35966 -2.40008,1.89996 -3.78013,2.19995 -8.10028,1.67996 -2.88009,-0.33999 -5.9402,-1.32997 -6.82023,-2.19995 -1.40004,-1.41995 -1.32004,-1.89994 0.90003,-4.24988 1.77006,-1.89994 3.42012,-2.59993 5.7502,-2.39993 2.74009,0.2 3.20011,-0.1 2.9201,-1.87996 -0.55002,-3.2999 -2.10007,-4.37987 -4.17014,-2.95992 -4.48016,3.02993 -16.46056,9.83974 -17.34059,9.83974 -0.55002,0 -2.7401,0.91998 -4.90017,2.04995 -10.90037,5.73984 -14.8205,6.52982 -16.77057,3.3799 z m 30.83105,-30.22917 c -1.35005,-2.06995 -1.40005,-3.01993 -0.37001,-5.31986 1.66005,-3.64991 6.0002,-4.84987 7.95027,-2.17995 2.00006,2.73994 1.80006,3.9999 -1.17004,7.21981 -3.20011,3.4499 -4.30015,3.49991 -6.40022,0.28 z M 141.26008,267.79277 c -9.84034,-2.09995 -12.67043,-6.29984 -7.96027,-11.75968 3.1201,-3.62991 5.36018,-3.65991 12.74043,-0.15001 5.68019,2.69993 6.55022,2.81993 11.7004,1.74996 6.76023,-1.39997 13.77046,-6.69982 12.97044,-9.79973 -0.28001,-1.11998 -0.05,-3.39992 0.53001,-5.05987 0.90004,-2.56993 0.53002,-4.01989 -2.35007,-9.39974 -2.8201,-5.26986 -4.16015,-6.63983 -7.78027,-8.02979 -2.40008,-0.91998 -5.35018,-1.66995 -6.54022,-1.66995 -5.68019,0 -7.06024,-7.89979 -1.96007,-11.24971 2.16008,-1.41995 3.08011,-1.35995 9.24032,0.64 13.28045,4.29987 16.80057,9.91972 17.04057,27.19926 0.10001,7.46979 -0.2,8.99976 -2.14007,11.1397 -1.24004,1.35995 -2.56008,3.4199 -2.9301,4.59987 -1.05003,3.31991 -6.52022,8.79976 -10.43035,10.42972 -1.97007,0.82998 -5.56019,1.52996 -8.00027,1.55996 -2.42009,0.04 -5.23018,0.27999 -6.24022,0.55998 -1.00003,0.26 -4.55015,-0.1 -7.87026,-0.79998 z m 131.27445,-26.0993 c -0.63002,-1.17997 -0.88003,-2.57993 -0.55001,-3.09992 0.33001,-0.53998 0.14,-1.25996 -0.42002,-1.59995 -0.55002,-0.34999 -1.40005,0 -1.86006,0.73997 -1.10004,1.71996 -6.10021,3.9799 -8.8503,3.9799 -3.43012,0 -6.40022,-3.8399 -6.00021,-7.74979 0.47002,-4.42988 1.48005,-6.02984 3.84013,-6.02984 1.12004,0 3.20011,-2.13994 5.16018,-5.29986 5.15017,-8.29977 14.44049,-12.45966 17.02058,-7.59979 1.16004,2.15994 0.60002,8.02979 -1.10004,11.42969 -1.32004,2.65993 -0.90003,5.89984 0.87003,6.47982 0.70002,0.23 5.33018,-3.63989 10.33035,-8.59976 9.88034,-9.79973 15.60053,-13.91962 18.04061,-12.97965 2.15008,0.82998 1.95007,3.69989 -0.65002,9.06976 -1.20004,2.49992 -1.80006,4.96986 -1.30004,5.46984 0.97003,0.97998 7.73026,-4.77987 7.73026,-6.56982 0,-0.59998 1.07004,-0.92997 2.38008,-0.73998 1.70006,0.22999 2.47008,1.14997 2.70009,3.19991 0.30001,2.52994 0.60002,2.72994 2.65009,1.75996 1.27005,-0.59999 3.94014,-3.15991 5.9402,-5.69985 4.25015,-5.39985 7.87027,-6.59982 10.15035,-3.3299 0.85003,1.21996 1.55005,3.21991 1.55005,4.43988 0,1.21996 1.18004,3.25991 2.64009,4.52987 1.46005,1.25996 2.65009,2.75992 2.65009,3.31991 0,2.32994 -2.57009,6.41983 -4.40015,6.99981 -3.20011,1.01998 -8.42028,-0.61998 -11.04037,-3.45991 l -2.42009,-2.62993 -5.07017,4.1999 c -6.53022,5.39985 -8.43028,6.04983 -10.08034,3.3999 -1.30004,-2.09994 -3.96013,-2.89992 -3.96013,-1.19997 0,2.11994 -5.35019,6.52982 -7.90027,6.52982 -4.24015,0 -4.42015,-2.79992 -0.65002,-9.67974 3.32011,-6.04983 3.52011,-8.33977 0.72002,-8.33977 -0.75003,0 -4.85016,3.8699 -9.10031,8.59977 -5.20018,5.76985 -9.30032,9.25975 -12.40042,10.59971 -5.68019,2.43994 -5.22018,2.44994 -6.60022,-0.13999 z m -3.1001,-11.67969 c 2.58009,-1.37995 5.58019,-7.03981 4.20014,-7.89979 -2.38008,-1.46996 -9.65033,6.41983 -7.70026,8.35978 0.84003,0.84998 1.13004,0.81998 3.50012,-0.44999 z m -250.78852,6.65983 c -1.980067,-2.23995 -6.80023,-18.32951 -6.230211,-20.77945 0.130004,-0.49998 -0.400014,-1.64995 -1.140039,-2.54992 -0.740025,-0.89998 -1.6000545,-4.29989 -1.880064,-7.5798 -0.5000169,-5.69985 -0.6400217,-5.91984 -3.4001154,-5.62985 -5.90020042,0.61999 -7.7002615,-7.99978 -2.030069,-9.79974 1.1000374,-0.33999 2.8300961,-1.56995 3.8701315,-2.71992 1.7600597,-1.94994 1.7700601,-2.21994 0.1400047,-4.02989 -0.9700329,-1.08997 -1.7700601,-2.68993 -1.7700601,-3.58991 0,-0.89997 -1.4200482,-5.96983 -3.1601073,-11.27969 -3.63012332,-11.0297 -3.90013249,-13.74963 -1.4200482,-14.6996 2.1000713,-0.79998 7.1002411,4.49987 6.2802132,6.67982 -0.6400217,1.65995 1.3000442,7.84978 2.4700846,7.84978 0.440015,0 1.650056,-0.95997 2.700091,-2.11994 2.670091,-2.95992 5.450185,-2.64993 7.100241,0.77998 1.860064,3.91989 4.70016,4.31989 6.280214,0.87998 0.680023,-1.49996 1.800061,-2.69993 2.500085,-2.69993 0.700023,0 3.920133,-2.63993 7.150242,-5.83984 3.22011,-3.19991 6.280214,-5.82984 6.800231,-5.82984 1.000034,0 4.300146,-2.36994 8.150277,-5.83985 1.300044,-1.16997 3.460118,-4.99986 4.800163,-8.49977 3.100106,-7.95978 3.900133,-8.99975 7.06024,-8.99975 3.450117,0 4.260145,2.73992 1.970067,6.62981 -1.840063,3.11992 -1.830062,3.25992 0.240008,4.91987 1.18004,0.93998 2.450083,3.01992 2.820096,4.61988 0.370012,1.59996 1.400047,2.89993 2.270077,2.89993 0.870029,0 4.870165,-2.24995 8.880302,-5.01987 l 7.300247,-5.03987 -0.100003,-5.29986 c -0.100003,-6.85981 0.770026,-9.39974 3.84013,-11.05969 3.400116,-1.82995 6.500221,-0.61999 8.050274,3.15991 1.430048,3.4699 1.620055,3.5999 3.460118,2.12994 9.82033,-7.73978 15.26052,-15.11959 19.20065,-26.0193 3.50012,-9.719732 4.25015,-11.129694 5.9002,-11.129694 2.20008,0 4.20015,2.099944 4.20015,4.45988 0,1.179968 0.77002,1.899948 2.02007,1.899948 2.70009,0 6.63022,5.099866 5.84019,7.579796 -2.60008,8.24978 7.74027,-1.15997 13.85047,-12.57966 2.12008,-3.949894 4.50016,-7.929786 5.32018,-8.849761 0.80003,-0.919975 1.48005,-2.469934 1.48005,-3.449907 0,-0.969974 0.43002,-1.769952 0.96004,-1.769952 0.54002,0 1.30004,-1.859949 1.68005,-4.139888 0.80003,-4.799871 3.63013,-7.879788 6.27022,-6.859815 1.47005,0.559985 1.67005,1.499959 1.10003,4.949866 -0.70002,4.099889 -0.64002,4.199887 1.77006,3.469906 6.10021,-1.899948 9.37032,-0.02 9.37032,5.359856 0,4.03989 1.06004,4.399881 5.10018,1.729953 1.56005,-1.019973 3.77012,-2.459934 4.93016,-3.199914 1.16004,-0.749979 3.60013,-2.299937 5.40019,-3.479906 2.54008,-1.619956 3.48012,-3.159914 4.02013,-6.539823 1.32005,-8.269776 3.95014,-14.579606 6.98024,-16.749547 6.14021,-4.399881 10.46036,-1.739953 8.6703,5.299857 -1.05004,4.159887 -1.00004,4.249884 1.72005,4.229886 2.00007,-0.02 5.7702,-2.699928 13.37046,-9.539743 5.80019,-5.239858 10.92037,-9.519743 11.37038,-9.529742 1.40005,0 10.28035,-8.699765 10.28035,-10.059729 0,-2.299938 6.36022,-9.429745 9.64033,-10.799707 2.62009,-1.11997 3.10011,-1.839951 2.73009,-4.299884 -0.23,-1.599957 -0.70002,-3.639902 -1.03003,-4.519878 -0.33001,-0.869977 -0.88003,-3.579904 -1.22004,-6.0198377 C 261.87417,2.7299262 263.67423,0 267.67437,0 c 4.90017,0 5.9202,2.8199238 5.9702,16.519554 0.06,16.169562 -1.70006,33.2991 -3.64012,35.229048 -1.74006,1.759952 -5.8602,0.769979 -6.06021,-1.459961 l -0.26001,-2.769925 c -0.30001,-2.849923 -2.38008,-1.579958 -4.26014,2.599929 -2.50009,5.539851 -6.58022,9.149753 -10.43035,9.199752 -2.44009,0.03 -3.05011,-0.499986 -3.58013,-3.159915 -0.90003,-4.519877 -1.76006,-4.639874 -5.33018,-0.749979 -1.73006,1.879949 -5.20017,5.099862 -7.70026,7.129807 -2.50008,2.039945 -6.26021,5.19986 -8.36028,6.999811 -4.85017,4.179887 -7.74027,5.699846 -14.13048,7.3798 -4.90017,1.299966 -9.35032,4.09989 -19.24066,12.129672 -8.06027,6.539823 -10.76036,8.449772 -15.64053,11.049707 -4.32014,2.31993 -5.00017,2.39993 -7.00023,0.99996 -3.37012,-2.359929 -2.7001,-5.199851 1.98006,-8.529761 7.66026,-5.439854 4.60016,-9.729738 -3.94013,-5.479852 -4.07014,1.999946 -5.33018,3.32991 -6.63023,6.929812 -0.90003,2.449934 -2.67009,5.669847 -3.96013,7.169811 -1.30005,1.49996 -2.36008,3.6499 -2.36008,4.79987 0,1.14997 -1.10004,2.81992 -2.46008,3.6999 -1.35005,0.89998 -3.10011,2.81992 -3.88014,4.27988 -0.77002,1.44996 -1.96006,2.63993 -2.64009,2.63993 -0.68002,0 -3.40011,1.67996 -6.0202,3.7399 -6.0002,4.69987 -10.80037,6.23983 -12.57043,4.07989 -1.80006,-2.15995 0.52002,-6.16983 5.10018,-8.89977 4.30014,-2.51992 4.56015,-6.63981 0.50001,-7.2198 -3.62012,-0.49998 -7.16024,2.31994 -10.03034,8.01979 -4.22014,8.37977 -6.34021,11.32969 -11.32038,15.69957 -2.62009,2.29994 -5.23018,4.73988 -5.8002,5.39986 -0.60002,0.66998 -4.500154,3.03991 -8.670296,5.25986 -4.170142,2.22993 -8.120276,5.01986 -8.760297,6.19983 -1.300045,2.39993 -13.780468,11.1697 -17.980611,12.63966 -1.450049,0.49998 -3.850131,2.05994 -5.340181,3.4499 -1.480051,1.36997 -3.52012,2.49994 -4.520154,2.49994 -4.500153,0 -2.870097,-8.94977 2.220075,-12.17968 4.280146,-2.72992 4.360148,-4.77987 0.200007,-4.77987 -2.620089,0 -4.800163,1.55997 -11.370386,8.11979 -4.470152,4.46987 -8.970305,8.84976 -10.00034,9.72973 -1.030035,0.89998 -1.830062,3.07991 -1.830062,4.99987 0,6.9398 -1.220041,10.03972 -4.640157,11.79968 -1.800061,0.91997 -3.670125,2.32994 -4.140141,3.11991 -1.550053,2.65993 -5.00017,1.66996 -6.20021,-1.77995 -1.540053,-4.42988 -3.000102,-3.4999 -5.250179,3.29991 -2.35008,7.07981 -2.470084,10.91971 -0.400013,12.64966 0.88003,0.71998 1.600054,2.09994 1.600054,3.06992 0,0.95997 0.640022,2.69992 1.420048,3.83989 0.800027,1.15997 1.76006,4.21988 2.160074,6.79982 0.400013,2.59993 1.900064,7.04981 3.330113,9.89973 3.200108,6.35983 3.24011,7.92979 0.330011,10.45972 -2.850097,2.47993 -5.380183,2.51993 -7.500255,0.12 z m -2.920099,-51.07863 c 0,-0.54999 0.550019,-2.33994 1.200041,-3.97989 1.780061,-4.31988 1.630055,-7.1598 -0.370012,-7.5398 -2.230076,-0.42998 -4.10014,3.04993 -4.470152,8.35978 -0.240008,3.4399 0.04,4.14989 1.670056,4.14989 1.080037,0 1.970067,-0.45999 1.970067,-0.99998 z M 259.93411,39.968919 c 1.26004,-1.629955 2.04007,-3.219912 1.74006,-3.519904 -1.10004,-1.09997 -4.57016,1.999946 -6.75023,5.999838 -2.50009,4.599876 -1.85007,6.699819 0.92003,2.939921 1.00003,-1.359964 2.85009,-3.799898 4.10014,-5.429854 z M 426.38976,209.99432 c -1.40005,-1.56995 -1.73006,-3.29991 -1.35005,-7.3198 0.27001,-2.89991 0.86003,-5.86984 1.30005,-6.59982 0.46001,-0.73998 1.00003,-2.81993 1.20004,-4.61988 0.20001,-1.79995 1.02003,-7.3398 1.80006,-12.29967 1.37005,-8.49976 1.34005,-9.07974 -0.52002,-10.39971 -2.50008,-1.74996 -2.50008,-3.47991 0.10001,-8.29978 1.57005,-2.96991 1.80006,-4.35988 0.95003,-5.94983 -1.20004,-2.25994 -0.38001,-8.79977 1.25004,-9.81974 1.90007,-1.17997 5.23018,0.67998 5.8802,3.27992 0.80003,3.24991 1.20004,3.22991 4.85017,-0.26 2.34007,-2.25994 4.24014,-2.94992 9.1003,-3.29992 5.9002,-0.42998 6.30022,-0.29999 9.12031,3.07993 2.7601,3.27991 2.9001,3.95988 2.28008,10.09972 -0.37001,3.62991 -0.27001,6.84981 0.23001,7.1498 0.50002,0.30001 2.9301,-0.43998 5.40018,-1.66994 4.18014,-2.06995 6.00021,-4.53989 7.90027,-10.65971 0.60002,-1.99995 5.33018,-2.59994 6.42022,-0.83998 0.40001,0.65998 1.60005,0.65998 3.30011,0 1.48005,-0.55999 3.60012,-1.01998 4.73016,-1.01998 1.14004,0 4.04014,-1.42996 6.44022,-3.17991 2.40008,-1.74995 4.95017,-3.17991 5.64019,-3.17991 0.70003,0 2.8001,-1.69996 4.68016,-3.7699 4.63016,-5.09986 7.74026,-4.69988 8.7203,1.12997 0.40001,2.32994 1.05003,6.26983 1.46005,8.75975 0.88003,5.27986 -1.72006,13.42964 -4.83017,15.0996 -2.9401,1.57996 -8.00027,1.25997 -9.54032,-0.59998 -1.00004,-1.19997 -1.08004,-2.44994 -0.34001,-4.49989 0.87003,-2.39993 1.58005,-2.81991 4.44015,-2.59992 2.23007,0.19999 3.62012,-0.25999 4.00013,-1.29997 0.90003,-2.26994 -1.93006,-7.97978 -3.93013,-7.97978 -1.95007,0 -6.90023,3.6199 -9.68033,7.05981 -1.02003,1.27996 -3.24011,2.62993 -4.93017,2.99991 -3.40011,0.74999 -4.44015,2.39994 -3.58012,5.72986 1.46005,5.59984 -3.0801,10.4997 -11.38038,12.33966 -3.20011,0.69998 -3.83013,0.39999 -6.90024,-3.27991 -3.70012,-4.39988 -2.8801,-4.41989 -11.13038,0.12999 -6.65022,3.6599 -17.8006,2.74993 -17.8006,-1.45996 0,-3.21991 3.33011,-5.32985 8.9803,-5.69984 l 5.30018,-0.32999 0.32001,-4.03989 c 0.50002,-5.99985 -1.23004,-7.44981 -8.07027,-6.73982 -10.14034,1.04996 -11.58039,4.25988 -11.6604,25.8793 -0.05,12.25966 -1.14003,23.06937 -2.93009,29.17921 -0.73003,2.47993 -4.90017,2.36994 -7.20025,-0.2 z m 55.9819,-43.61882 c 0.82003,-1.32996 -2.42008,-5.23986 -4.34015,-5.23986 -2.08007,0 -2.45008,2.46994 -0.67002,4.49989 1.82006,2.09994 4.00014,2.41993 5.02017,0.73997 z m 41.70142,-8.09977 c -2.23008,-0.89998 -3.0001,-2.35994 -2.40008,-4.63988 0.83002,-3.14992 3.0701,-4.36988 8.46028,-4.59988 11.85041,-0.49999 11.94041,-0.52999 12.90044,-3.06991 1.20004,-3.12992 7.80027,-8.99976 11.10038,-9.81974 7.54025,-1.89995 9.20031,2.89992 2.77009,7.99979 -2.36008,1.86994 -4.00013,3.86989 -3.65012,4.44988 0.86003,1.37995 14.15048,0.1 16.13055,-1.55997 0.83002,-0.69997 3.22011,-1.75995 5.32018,-2.35993 2.78009,-0.79997 4.28014,-2.07995 5.57019,-4.76987 0.97003,-1.99995 3.62012,-5.47985 5.9002,-7.69979 3.63012,-3.49991 4.48015,-3.8799 6.86023,-2.96992 3.76013,1.43996 4.50015,3.07991 2.40008,5.39985 -1.65006,1.82995 -1.65006,2.12995 0.03,4.69987 2.20008,3.36992 2.62009,3.37992 7.46026,0.08 2.13007,-1.44996 4.53015,-2.63993 5.32018,-2.63993 0.80002,0 1.44004,-0.36 1.44004,-0.79998 0,-0.45999 2.8201,-3.7999 6.28022,-7.4398 5.9002,-6.19984 6.44022,-6.53983 8.9803,-5.37986 3.90014,1.79995 4.00014,5.54985 0.25001,8.57977 l -2.30008,1.85995 2.54009,1.97994 c 1.80006,1.39997 2.37008,2.65993 1.96007,4.23989 -0.33001,1.23997 -0.17001,2.51993 0.35001,2.83993 1.13004,0.69998 13.20045,-1.39996 15.64053,-2.69994 2.44008,-1.29996 21.18072,-4.41988 22.33076,-3.69989 0.53002,0.31999 3.20011,-1.57996 5.9502,-4.21989 3.38011,-3.23991 5.9002,-4.79987 7.82027,-4.79987 5.86019,0 8.43028,7.4698 4.00013,11.61969 -1.27004,1.19997 -1.87006,2.19994 -1.32004,2.26993 3.56012,0.42 8.70029,-0.79997 18.43062,-4.37988 6.10021,-2.23993 15.14052,-5.09986 20.08068,-6.37982 9.77034,-2.49994 12.10042,-3.46991 15.32052,-6.29984 1.16004,-1.03996 5.10018,-3.3999 8.7303,-5.29985 7.34025,-3.77989 10.84037,-3.7199 12.60043,0.23999 l 1.10004,2.39994 3.26011,-3.49991 c 1.80006,-1.91994 3.58012,-4.53987 3.96013,-5.81984 1.17004,-3.9299 7.20025,-12.199669 9.77033,-13.399637 2.66009,-1.239966 7.97027,0.75998 8.90031,3.339917 1.22004,3.3999 -1.50006,8.35977 -6.64023,12.22966 -5.73019,4.27989 -9.66033,11.1997 -11.04037,19.39948 -1.28005,7.5598 -6.92024,11.49969 -11.5804,8.06978 -2.20007,-1.59996 -1.70006,-5.77984 1.00004,-8.49978 1.74006,-1.72994 4.03013,-7.0398 3.0401,-7.0398 -0.33001,0 -2.72009,1.42996 -5.30018,3.17991 -2.60009,1.74995 -5.00017,3.17992 -5.34018,3.17992 -0.34001,0 -3.65013,1.53995 -7.33025,3.41991 -6.03021,3.05991 -7.06024,3.27991 -10.03034,2.15994 -2.62009,-0.99997 -4.76016,-0.93998 -10.30035,0.26999 -6.60023,1.42996 -20.30069,5.73985 -24.98085,7.84979 -4.14014,1.86995 -11.33038,3.06991 -17.43059,2.89992 -4.94017,-0.13 -6.73023,-0.67998 -8.9003,-2.71993 -2.55009,-2.39993 -3.05011,-2.49993 -8.28029,-1.39995 -7.67026,1.59995 -18.37062,3.3799 -24.06081,3.99988 -2.62009,0.29999 -6.18021,0.99998 -7.92027,1.59996 -5.53019,1.87995 -18.25062,2.52993 -20.06068,1.02997 -2.13008,-1.77995 -2.04007,-2.77992 0.50001,-5.32985 1.30005,-1.29996 3.52012,-2.11994 5.7502,-2.11994 2.00007,0 3.97013,-0.52999 4.37015,-1.17997 0.95003,-1.53996 -1.73006,-3.22992 -3.77013,-2.36994 -0.87003,0.35999 -2.73009,0.59999 -4.12014,0.49998 -1.40005,-0.07 -4.10014,1.05998 -6.0002,2.51994 -1.92007,1.45996 -3.82013,2.64993 -4.24015,2.64993 -0.42001,0 -2.24007,1.12997 -4.03013,2.49992 -1.80007,1.37997 -4.30015,2.81993 -5.55019,3.21992 -1.25005,0.39999 -2.8601,1.41996 -3.56012,2.27994 -1.65006,1.97995 -6.74023,1.99995 -8.38029,0.03 -0.93003,-1.12997 -0.95003,-2.09995 -0.1,-3.6999 1.60005,-2.97992 0.65002,-2.76993 -3.97014,0.85998 -7.66026,5.99983 -24.90084,9.29974 -30.67104,5.87984 -2.8701,-1.69996 -3.86013,-1.75995 -9.36032,-0.56998 -9.34031,2.03994 -10.25034,2.15993 -11.9604,1.47996 z m 225.50766,-31.89915 c 0.30001,-0.46998 0.14,-1.47996 -0.33002,-2.23993 -0.68002,-1.09997 -1.40004,-1.01998 -3.63012,0.43998 -1.53005,0.99997 -2.78009,1.99995 -2.78009,2.22995 0,0.79997 6.22021,0.39998 6.74023,-0.43 z"/>
</svg>
