<?xml version="1.0" encoding="utf-8"?>
<svg xmlns="http://www.w3.org/2000/svg" version="1.1" viewBox="0 0 100 67">
	<title>A plan of Mrs. Inglethorp’s bedroom. There is a door on three out of four walls, and two windows on the fourth wall. There is a table, a second, overturned table, a chest of drawers, a wardrobe, a bed, a washstand, a writing desk, and a fireplace. Candlegrease is on the floor.</title>
	<path d="M47.388 66.947c-.205-.083-.148-.237.128-.342.31-.118.323-.348.044-.806-.14-.23-.177-.38-.11-.45.122-.12.462-.015.38.118-.03.05.01.148.094.217.124.103.168.078.252-.142.092-.243.31-.376.31-.19 0 .158-.402 1.177-.56 1.416-.156.24-.28.28-.538.177zm-1.685-.44c-.527-.416-.58-1.39-.092-1.727.4-.275.618-.333.99-.263.222.042.354.134.39.275.09.34-.028.4-.34.18-.16-.114-.356-.207-.437-.207-.267 0-.52.39-.505.782.023.618.45.912.94.65.26-.14.345.034.118.24-.315.285-.752.313-1.062.07zm-9.54-.038c-.03-.076 0-.262.054-.416.074-.195.074-.34 0-.48-.162-.302-.034-.4.522-.4.377 0 .504.038.504.15 0 .084-.112.18-.248.215-.303.075-.402.295-.256.568.08.148.076.244-.013.35-.153.185-.495.19-.564.01zm2.607.117c-.066-.316-.045-1.33.028-1.375.156-.096.328.14.363.5.084.85.086.84-.153.875-.127.018-.233.018-.237 0zm2.89-.105c-.07-.067-.123-.277-.123-.466 0-.19-.044-.426-.097-.526-.068-.128-.05-.248.057-.403.175-.25.347-.29.347-.078 0 .077.075.17.167.206.156.06.156.078 0 .25-.214.237-.214.59 0 .712.103.057.145.16.106.26-.075.197-.286.217-.458.044zm.966-.064c-.372-.41-.07-1.244.448-1.244.115 0 .327.117.47.26.204.204.246.322.192.538-.15.602-.75.844-1.11.447zm.698-.32c.08-.25-.107-.617-.312-.617-.2 0-.288.242-.207.563.078.31.426.347.52.055zm7.654.43c-.063-.042-.137-.26-.163-.485-.026-.225-.077-.478-.112-.562-.036-.083.022-.267.13-.407.19-.246.2-.248.272-.05.042.11.125.238.185.28.074.054.06.12-.044.206-.16.13-.154.563.01.733.236.245.013.474-.277.284zm1.602-.018c-.125-.08-.127-.135-.015-.344.178-.333.11-.634-.144-.634-.174 0-.2.067-.195.49.01.44-.015.488-.205.458-.125-.02-.196-.094-.175-.183.063-.264.057-.544-.025-1.157-.073-.546-.064-.594.107-.56.115.02.207.152.24.34.04.24.116.315.355.356.3.053.39.25.495 1.122.022.18-.23.245-.437.112zm1.01.07c0-.014-.024-.313-.045-.665-.03-.505-.01-.64.11-.64.088 0 .153.113.162.283l.026.434c.01.084.05.216.1.293.058.09.04.17-.05.228-.137.086-.288.12-.302.067zm.735-.105c-.16-.16-.01-.448.317-.596.352-.16.354-.363 0-.32-.145.02-.23-.023-.23-.115 0-.203.26-.283.554-.17.26.097.31.206.416.884l.066.422-.517-.01c-.283 0-.557-.05-.607-.1zm2.304.062c-.038-.038-.07-.157-.07-.266 0-.135.05-.178.155-.136l.306.125c.27.107.17-.227-.1-.352-.35-.16-.337-.504.025-.642.17-.065.34-.07.427-.016.193.12.26 1.16.084 1.272-.156.1-.732.11-.826.016zm2.538-.034c-.035-.056.01-.204.096-.33.09-.128.16-.438.16-.713 0-.405-.043-.514-.257-.653-.426-.28-.312-.384.347-.315.678.07 1.097.23 1.18.448.066.17-.108.54-.253.54-.235 0-.066.415.286.7.325.26.356.318.204.378-.273.106-.452-.01-.742-.466-.146-.23-.32-.4-.387-.378-.17.058-.085.513.118.63.146.083.134.107-.087.17-.38.106-.592.103-.663-.01zm1.21-1.244c.15-.24-.085-.495-.456-.495-.24 0-.295.044-.295.235 0 .462.513.64.75.26zm1.03 1.094c-.365-.56.142-1.26.724-.994.215.098.255.186.255.558 0 .243-.055.497-.123.565-.214.215-.675.145-.855-.13zm.675-.11c.108-.096.154-.25.124-.41-.06-.31-.168-.386-.434-.302-.232.074-.283.544-.08.746.156.157.183.155.39-.033zm.948.28c-.067-.043-.153-.268-.19-.5-.06-.378-.04-.44.2-.596.4-.263.745-.133.873.33.082.3.072.43-.05.613-.153.238-.58.315-.832.154zm.624-.387c.168-.44.013-.72-.338-.608-.235.074-.32.267-.246.554.067.257.49.296.584.053zm.85.384c-.096-.017-.175-.04-.175-.05 0-.01.044-.177.1-.37.07-.247.065-.39-.02-.492-.2-.24.102-.33 1.043-.304l.87.023v.42c0 .23.056.487.126.57.153.187.07.288-.24.288-.26 0-.41-.155-.247-.255.3-.185-.027-.857-.355-.73-.193.073-.195.24-.01.602.107.206.114.285.025.298-.236.033-.947.034-1.12 0zm.753-.5c.078-.382.043-.437-.28-.437-.203 0-.24.052-.24.34 0 .188.033.374.073.413.156.156.384 0 .447-.316zm-39.884.328c-.284-.154-.496-.61-.496-1.064 0-.572.563-.97 1.29-.91.346.03.4.07.428.314.038.333-.083.36-.34.077-.4-.442-.97-.082-.97.614 0 .644.435.974.933.708.373-.2.452-.028.09.195-.416.256-.566.266-.935.066zm5.485.057c-.036-.058.01-.208.094-.333.213-.305.214-1.237 0-1.413-.263-.22-.018-.31.655-.238.804.084 1.163.335 1.118.78-.043.432-.252.465-.34.054-.1-.473-.227-.593-.623-.593h-.345v.593c0 .326.055.648.122.716.184.185.538.147.743-.08.1-.11.223-.176.272-.146.16.1.09.342-.142.49-.297.185-1.467.314-1.556.17zm2.482-.08c-.364-.425-.278-.927.197-1.143.206-.094.305-.085.5.042.23.15.298.365.257.81-.04.423-.673.617-.954.29zm.633-.487c0-.262-.244-.51-.404-.41-.146.088-.137.597.013.745.164.164.39-.03.39-.335zm.782.478c-.224-.248-.215-.762.018-.973.203-.183.597-.22.823-.077.184.117.2.857.024 1.07-.185.223-.654.212-.864-.02zm.71-.384c.08-.315-.145-.593-.4-.495-.305.117-.183.76.144.76.12 0 .215-.1.256-.265zm4.267.188c.033-.21.02-.45-.03-.528-.164-.266 0-.418.45-.418.516 0 .77.228.77.692 0 .175.048.347.105.382.164.102.01.255-.257.255s-.422-.153-.258-.255c.057-.035.104-.225.104-.423 0-.313-.03-.355-.23-.326-.204.028-.228.086-.213.517.016.457 0 .486-.243.486s-.256-.025-.2-.383zm9.215.28c-.035-.055-.026-.16.02-.23.045-.07.082-.288.082-.485 0-.41 0-.41.604-.41.42 0 .456.022.51.308l.12.613c.052.275.03.307-.196.307-.238 0-.254-.032-.238-.485.014-.424-.01-.486-.188-.486s-.202.063-.188.486c.015.446 0 .485-.224.485-.132 0-.27-.046-.304-.102zm-21.98-.11c-.097-.156.112-.338.303-.264.092.035.133.127.098.218-.07.182-.3.208-.402.046zm1.385-.48c-1.23-.094-.986-.33.338-.328 1.202 0 1.83.084 1.78.234-.032.1-1.313.157-2.118.094zm27.544-.843c-.08-.362-.027-.46.2-.37.198.075.206.41.015.57-.117.096-.156.06-.213-.2zM38.81 64.81c-.084-.223.132-.432.287-.277.13.13.05.436-.116.436-.06 0-.135-.073-.17-.16zm14.743-.034c-.03-.05.01-.144.087-.21.16-.132.323.02.213.2-.078.125-.225.13-.3.01zm1.5-.397c-.216-.037-.23-.084-.212-.75.012-.39.07-.75.13-.797.06-.047.328-.084.595-.082.576.005.616.13.18.567-.364.363-.37.385-.104.455.263.07.383.37.195.49-.212.134-.275.114-.26-.085.01-.113-.07-.19-.215-.212-.276-.04-.325.255-.05.31.258.05.017.15-.257.105zm.486-1.143c0-.11-.05-.23-.112-.267-.156-.096-.337.113-.263.305.088.228.374.2.374-.038zm8.885 1.195c0-.014-.015-.393-.025-.843l-.02-.82.39-.03c.476-.04.658.096.744.554.068.362-.074.653-.32.653-.1 0-.106-.077-.022-.354.115-.374-.01-.67-.282-.67-.203 0-.256.263-.187.925.055.523.04.61-.104.61-.093 0-.172-.012-.175-.026zm12.54-.25c-.08-.08-.76-.154-1.307-.14l-.375.01.017-.483c.013-.385-.02-.493-.158-.52-.224-.047-.346.387-.19.676.13.247 0 .367-.296.273-.165-.053-.182-.107-.1-.32.064-.172.06-.327-.014-.464-.225-.42-.068-.5.95-.47l.95.025.054.482c.067.584.13.658.44.516.335-.153.53-.016.38.268-.12.224-.228.27-.35.147zm-.9-.73c.025-.27 0-.323-.18-.323-.163 0-.21.064-.21.288 0 .54.336.57.39.035zm-4.416.48c-.195-.277-.218-.813-.043-.987.068-.067.265-.123.44-.123.4 0 .56.16.56.563 0 .395-.173.633-.524.718-.21.05-.306.013-.434-.17zm.63-.108c.27-.27.076-.797-.295-.797-.32 0-.413.637-.118.81.232.134.267.133.414-.013zm-26.735.14c-.105-.068-.103-.138.013-.36.172-.33.11-1.162-.103-1.408-.127-.146-.117-.173.087-.227.355-.093.667.173.745.635.08.476.32.626.465.292.054-.126.142-.297.194-.382.052-.084.12-.234.15-.332.034-.11.157-.18.314-.18.268 0 .345.14.144.264-.076.047-.1.346-.068.88l.047.81-.264-.03c-.18-.022-.25-.082-.222-.185.103-.366.055-.767-.092-.767-.132 0-.21.154-.378.758-.057.205-.257-.01-.398-.424-.158-.467-.406-.52-.304-.068.043.19.084.437.092.547.015.217-.212.31-.423.174zm2.848-.012c-.08-.05-.14-.3-.148-.632l-.014-.55h.452c.527 0 .672.2.212.292-.302.062-.313.08-.256.466.063.422-.02.564-.245.424zm1.168 0c-.074-.122.02-.308.16-.308.124 0 .124.277 0 .353-.053.032-.125.012-.16-.045zm7.94-.136c-.286-.303-.285-.72 0-.986.286-.268.343-.263.664.057.3.3.203.446-.3.448-.393 0-.36.26.05.41.3.11.313.13.128.208-.296.123-.3.122-.545-.137zm4.197.13c-.18-.07-.23-.173-.23-.46 0-.517.158-.763.49-.76.36.002.497.095.624.43.073.19.072.297 0 .34-.057.037-.08.132-.048.212.035.092-.04.183-.204.246-.304.115-.327.115-.63-.01zm.67-.465c.02-.194-.032-.366-.134-.45-.14-.116-.196-.104-.38.08-.205.205-.207.225-.038.482.233.355.512.3.552-.11zm4.245.413c-.034-.088-.012-.21.05-.27.06-.062.084-.238.053-.394-.044-.22-.01-.31.168-.403.124-.067.328-.095.454-.063.198.05.23.128.24.593.01.318-.038.568-.11.615-.224.142-.79.09-.855-.08zm.623-.26c-.07-.116-.35-.12-.35-.01 0 .144.114.21.264.152.077-.03.117-.095.085-.146zm1.953.324c-.033-.053.016-.138.108-.19.115-.064.18-.273.207-.67.034-.49.01-.594-.165-.704-.113-.07-.205-.192-.205-.27 0-.22 1.37-.1 1.64.144.24.217.184.524-.14.78-.217.172-.217.173-.016.408.11.13.27.29.355.358.204.16.07.28-.23.204-.142-.036-.31-.21-.416-.43-.097-.202-.232-.35-.3-.327-.194.063-.217.477-.032.548.088.034.16.103.16.153 0 .123-.89.12-.967 0zm1.136-1.005c.117-.075.173-.266.15-.51-.01-.07-.148-.127-.32-.127-.268 0-.306.035-.306.29 0 .405.18.536.476.347zm2.81 1.013c-.208-.137-.19-.79.032-1.032.415-.46.906-.1.854.624-.03.428-.045.446-.39.47-.197.016-.42-.013-.495-.062zm.68-.487c.04-.408-.234-.545-.52-.26-.162.163-.175.234-.077.42.184.343.558.244.597-.16zm-37.505.403c-.01-.045-.027-.244-.04-.44-.014-.198-.04-.45-.062-.563-.033-.182.018-.205.474-.205.38 0 .51.04.51.15 0 .08-.114.176-.255.21-.218.052-.255.12-.255.462 0 .3-.045.41-.18.436-.097.02-.185 0-.193-.05zm2.555-.01c-.01-.04-.024-.213-.035-.382-.012-.17-.058-.392-.103-.496-.085-.195.102-.402.305-.338.16.05.264 1.123.12 1.215-.154.097-.27.098-.287 0zm.993-.044c-.023-.074-.068-.355-.1-.625l-.06-.49.587.03.587.032.018.537c.02.63-.123.714-.222.127-.038-.225-.113-.435-.167-.47-.176-.108-.394.182-.394.527 0 .346-.172.576-.248.332zm2.698-.087c-.062-.115-.098-.38-.08-.59.03-.342.067-.386.413-.472.313-.077.417-.06.587.093.262.238.272.78.02 1.01-.27.242-.802.22-.94-.04zm.72-.26c.134-.35.127-.42-.053-.49-.26-.1-.46.047-.46.34 0 .484.347.588.513.15zm8.485.398c0-.046.07-.17.15-.276.16-.212.108-1.03-.08-1.268-.163-.206.05-.34.42-.266.33.067.412.18.216.3-.064.04-.1.365-.084.798l.024.73-.324.033c-.18.017-.323-.01-.322-.052zm2.303-.022c-.035-.057-.037-.21 0-.338.033-.132-.01-.322-.088-.435-.128-.176-.168-.183-.32-.056-.126.104-.16.24-.12.482.048.294.027.336-.17.336-.2 0-.222-.052-.22-.537v-.538l.466-.03c.56-.037.673.073.717.687.03.43-.115.666-.263.426zm2.493.067c0-.014-.017-.302-.03-.64-.015-.336-.064-.762-.11-.945-.08-.31-.067-.332.176-.332h.26l-.017.97c-.013.7-.054.973-.146.973-.07 0-.13-.013-.134-.027zm2.262-.49c-.145-.677-.14-.764.048-.92.133-.11.195-.096.38.088.212.214.213.226.03.36-.156.114-.178.218-.123.564.053.332.036.425-.078.425-.093 0-.186-.19-.257-.518zm1.104.44c-.01-.043 0-.338.01-.656.015-.4-.032-.66-.152-.842-.158-.24-.16-.27-.01-.328.282-.108.47.037.47.365 0 .258.042.31.244.31.337 0 .444.176.45.74 0 .353-.036.487-.14.487-.103 0-.144-.135-.144-.47 0-.425-.02-.463-.23-.433-.192.027-.236.106-.262.467-.017.24-.075.435-.128.435-.053 0-.1-.035-.108-.078zm3.186-.138c.086-.16.083-.29-.01-.517-.17-.41-.04-.512.52-.412l.456.08-.344.183c-.312.163-.34.213-.288.53.052.318.034.35-.196.35-.225 0-.24-.025-.138-.215zm-36.123.03c-.028-.045-.01-.148.04-.23.07-.11.12-.118.21-.03.065.066.087.17.05.23-.082.13-.23.145-.3.03zm6.28-.188c-.274-.35-.267-.503.038-.808.216-.217.29-.237.535-.143.344.13.438.264.44.626 0 .292-.317.593-.627.593-.095 0-.27-.12-.385-.27zm.657-.344c0-.314-.032-.358-.256-.358-.19 0-.264.06-.29.238-.05.368.06.547.316.51.19-.026.23-.096.23-.39zm.833.426c-.37-.41-.084-1.04.472-1.04.492 0 .704.656.355 1.1-.15.188-.633.154-.827-.06zm.73-.334c.036-.3-.205-.555-.437-.465-.158.06-.218.583-.082.718.165.165.49.01.52-.252zm6.113.393c-.24-.905-.243-1.01-.036-1.205.202-.188.21-.187.388.033.153.19.16.238.038.307-.165.093-.196.64-.043.736.174.108.113.257-.105.257-.114 0-.223-.058-.242-.128zm-16.72-.072c0-.053.045-.125.1-.16.057-.035.103-.334.103-.665 0-.454-.04-.626-.168-.697-.1-.056-.144-.162-.107-.257.115-.3 1.707.026 1.707.35 0 .058-.048.196-.107.306-.08.147-.07.253.04.408.192.274.11.552-.202.695-.305.138-1.366.152-1.366.017zm1.225-.404c0-.262-.152-.424-.392-.42-.437.01-.305.715.135.715.216 0 .258-.05.258-.296zm-.123-.645c.188-.19.146-.47-.08-.543-.272-.086-.41.014-.41.296 0 .37.243.493.49.246zm4.98 1.016c.126-.35.117-1.108-.016-1.365-.195-.375-.05-.457.678-.38.69.072.877.165 1.063.524.238.46-.102 1.24-.542 1.246-.11 0-.104-.04.032-.193.327-.36.168-1.26-.245-1.39-.384-.122-.512.11-.512.933 0 .733-.01.754-.252.754-.158 0-.235-.048-.206-.128zm-3.324-.543c0-.14.18-.156 1.346-.128.962.023 1.358.07 1.388.16.032.098-.28.128-1.345.128-1.192 0-1.39-.023-1.39-.16zm38.243-.582c-.103-.374-.025-.52.252-.467.226.043.308.444.134.653-.187.226-.287.18-.387-.185zm-26.996-.27c-.07-.134-.073-.223-.01-.265.137-.085.307.028.307.204 0 .236-.187.273-.3.06zm14.693-.442c-.265-.09-.275-.12-.268-.806.01-.708.17-1.095.404-.95.055.034.26.062.452.062.193 0 .35.044.35.098 0 .16-.223.535-.4.672-.144.113-.136.147.08.316.474.372.016.822-.62.608zm.403-.258c.027-.08-.056-.128-.22-.128-.26 0-.337.1-.193.242.105.106.364.034.413-.114zm.025-.94c0-.257-.175-.362-.356-.21-.187.153-.086.41.162.41.123 0 .193-.073.193-.2zm-17.375.747c-.115-.032-.153-.2-.153-.68v-.635l.472-.03c.348-.023.488.01.532.124.07.18-.1.315-.392.315-.216 0-.23.09-.11.64.077.34.034.372-.35.267zm2.632-.012c-.198-.044-.235-.182-.077-.28.157-.097.122-.372-.075-.59-.17-.186-.168-.203.022-.34.3-.22.41-.123.426.376.01.25.045.527.082.618.075.183-.094.28-.378.217zm2.81-.05c-.202-.256-.355-1.17-.234-1.398.145-.27.414-.277.414-.01 0 .115.068.206.153.206.223 0 .187.18-.05.255-.255.08-.278.538-.036.715.092.068.135.176.095.24-.094.154-.215.15-.342-.01zm.94-.082c-.226-.252-.252-.89-.04-1.023.235-.148.783-.112.96.064.222.223.2.72-.045.964-.263.263-.633.26-.873-.005zm.666-.246c.17-.204.035-.567-.21-.567-.21 0-.41.362-.323.588.066.174.382.16.533-.02zm2.21.365c-.032-.05.012-.148.095-.217.24-.2.204-1.147-.052-1.38-.11-.1-.203-.224-.203-.27 0-.05.322-.087.715-.087.58 0 .755.038.92.204.374.374.23.67-.42.86-.47.14-.638.435-.403.718.085.104.058.15-.12.197-.325.087-.468.08-.533-.025zm1.108-1.096c.217-.084.205-.42-.02-.54-.232-.124-.534.036-.534.283 0 .304.194.394.554.256zm1.236 1.094c-.49-.073-.627-.373-.217-.476.348-.087.54-.323.39-.474-.084-.084-.157-.08-.275.018-.088.073-.187.106-.22.072-.112-.112.044-.348.27-.406.307-.08.61.252.628.694.01.196.02.41.025.477.013.153-.1.17-.602.095zm.16-.345c-.013-.122-.153-.098-.197.034-.023.066.014.103.082.08.067-.022.12-.074.115-.114zm.98.37c-.184-.185-.055-.334.24-.275.37.074.404-.034.053-.168-.26-.1-.428-.495-.324-.767.07-.178.4-.2.686-.048.27.144.25.324-.032.288-.313-.04-.347.116-.057.26.27.134.374.558.17.688-.165.103-.638.117-.734.02zm1.286 0c-.17-.07-.165-.342.01-.342.073 0 .188.055.256.123.09.09.153.092.235.01.08-.083.012-.16-.256-.288-.427-.203-.506-.582-.16-.768.315-.168.66-.086.66.156 0 .16-.057.197-.255.17-.244-.03-.24-.017.1.282l.36.313-.243.207c-.235.2-.446.242-.704.137zm1.163-.123c-.194-.216-.11-.333.375-.517.413-.157.355-.353-.08-.27-.2.036-.358.024-.358-.028 0-.18.296-.34.574-.306.25.03.296.097.407.595.07.31.105.597.078.64-.1.16-.82.078-.993-.113zm.652-.22c0-.055-.07-.1-.153-.1-.085 0-.154.045-.154.1 0 .057.07.103.153.103.083 0 .152-.046.152-.102zm2.47.153c-.472-.6.328-1.447.836-.885.274.303.205.426-.24.426-.332 0-.408.036-.408.194 0 .227.2.326.5.247.153-.04.215-.008.215.11 0 .283-.66.216-.902-.092zm-27.645.09c-.145-.146-.063-.344.142-.344.142 0 .2.056.178.17-.036.19-.21.283-.32.174zm6.29-.094c-.45-.314-.178-1.17.37-1.17.386 0 .527.175.527.65 0 .608-.422.854-.897.52zm.672-.462c.034-.3-.207-.556-.44-.466-.097.037-.154.193-.154.427 0 .34.02.364.28.334.217-.025.29-.093.313-.296zm.735.417c-.245-.245-.256-.422-.048-.823.298-.577 1.07-.296 1.07.39 0 .56-.628.827-1.022.433zm.608-.147c.188-.227.09-.614-.16-.65-.234-.034-.353.15-.295.454.02.105.04.225.044.267.013.13.283.083.412-.072zm4.536-.083c0-.24-.018-.503-.042-.588-.034-.12.08-.16.54-.184.647-.033.612-.073.733.83.05.356.034.387-.17.358-.192-.027-.22-.086-.194-.397.035-.403-.152-.65-.385-.506-.087.054-.134.244-.124.505.014.343-.017.418-.17.418-.154 0-.19-.08-.187-.435zm-15.366.224c0-.06.123-.272.274-.47.15-.198.354-.597.452-.888.18-.534.444-.732.614-.462.048.076.187.474.31.884.122.41.26.77.308.798.202.125.06.256-.246.227-.28-.028-.34-.082-.384-.34-.04-.226-.116-.316-.295-.34-.266-.04-.45.154-.364.383.03.08-.01.182-.078.228-.19.122-.59.106-.59-.02zm6.337.026c0-.045.056-.137.123-.204.19-.19.143-1.257-.06-1.37-.09-.05-.165-.16-.165-.24 0-.114.146-.15.62-.15 1.02 0 1.49.376 1.388 1.108-.077.553-.152.693-.434.822-.29.13-1.472.16-1.472.034zm1.33-.327c.21-.212.242-.315.207-.666-.03-.293-.408-.664-.677-.664-.207 0-.237.065-.3.656-.04.36-.04.706 0 .767.11.18.552.126.772-.094zm-4.427-.188c-.095-.018-.173-.103-.173-.19 0-.135.18-.146 1.406-.082.772.04 1.42.088 1.44.106.02.018 0 .083-.033.146-.063.103-2.127.118-2.64.02zm11.24-.904c-.15-.15-.063-.443.13-.443.262 0 .362.176.207.362-.135.163-.232.186-.337.08zm17.384-1.232c-.21-.032-.28-.1-.28-.274 0-.343.065-.36.515-.138.328.162.436.177.56.075.244-.204.18-.305-.335-.53-.555-.245-.635-.334-.637-.715 0-.43.206-.565.778-.5.418.05.503.095.53.288.04.277-.067.29-.48.052-.237-.136-.338-.15-.43-.058-.19.192-.037.41.386.546.545.176.645.28.645.668 0 .55-.364.72-1.253.586zm15.04-.09c-.895-.372-.544-1.984.432-1.984.445 0 .642.14.852.607.245.54.126.988-.347 1.307-.4.27-.447.273-.937.07zm.874-.37c.183-.26.21-.818.054-1.11-.154-.287-.753-.27-.962.03-.235.336-.197.766.092 1.056.312.312.61.32.817.024zm2.74.46c-.24-.045-.3-.178-.127-.284.13-.08.135-.767.01-.767-.132 0-.23.178-.308.552-.07.344-.414.513-.414.204 0-.31-.24-.858-.375-.858-.162 0-.104.846.062.9.226.076.1.225-.19.225-.335 0-.498-.15-.262-.242.114-.043.153-.227.153-.722 0-.563-.032-.682-.207-.776-.285-.152-.157-.305.257-.305.317 0 .356.037.516.486.095.267.19.543.21.613.02.072.075.13.123.13.128 0 .43-.685.43-.976 0-.224.044-.252.392-.252.51 0 .58.086.306.377-.175.186-.22.344-.2.723.012.28.085.532.17.598.083.063.15.19.15.282 0 .168-.183.193-.69.095zm-37.207-.188c-.33-.232-.548-.71-.476-1.04.196-.897.517-1.182 1.222-1.085.485.066.632.21.517.51-.06.152-.08.152-.257-.01-.267-.24-.71-.166-.955.163-.167.225-.185.34-.11.664.116.486.54.7.825.415.135-.135.146-.2.05-.296-.202-.202-.144-.288.195-.288.304 0 .317.016.256.32-.034.175-.063.36-.063.407 0 .092-.658.397-.86.397-.064 0-.22-.072-.344-.16zm11.19-.047c-.148-.117-.324-.39-.39-.61-.107-.36-.093-.437.156-.863.25-.426.307-.467.666-.467.722 0 1.21.7.99 1.415-.186.61-.954.894-1.422.526zm1.013-.468c.266-.636.01-1.165-.56-1.165-.27 0-.524.373-.524.767 0 .452.256.766.624.766.255 0 .332-.06.46-.368zm3.253.56c-.04-.06-.015-.147.054-.19.203-.126.162-1.302-.054-1.54-.176-.196-.166-.2.478-.2.794 0 1.11.178 1.11.622 0 .336-.273.503-.823.503-.25 0-.3.04-.3.252 0 .152.086.297.218.368.175.093.19.135.077.206-.2.127-.678.114-.762-.02zm1.086-1.2l.235-.19-.273-.178c-.31-.204-.636-.14-.54.108.033.088.06.226.06.305 0 .202.24.18.52-.044zm5.157 1.217c-.033-.055.033-.194.147-.308.25-.25.28-.89.058-1.186-.274-.362-.194-.454.4-.454.8 0 1.08.13 1.08.503 0 .167-.05.333-.11.37-.07.044-.053.148.052.31.217.33.2.515-.068.703-.254.178-1.458.225-1.56.06zm1.326-.516c0-.19-.062-.265-.243-.29-.313-.044-.46.11-.373.388.107.334.615.253.615-.098zm-.052-.665c.102-.123.102-.185 0-.308-.272-.327-.727-.085-.576.307.032.083.146.152.254.152.107 0 .252-.07.322-.153zm.978 1.186c-.03-.05.012-.118.096-.15.214-.083.21-1.166-.01-1.474-.088-.125-.145-.234-.128-.24.017-.008.353-.026.747-.04.718-.026.972.058.972.32 0 .185-.197.18-.405-.008-.232-.21-.587-.09-.646.218-.054.288.156.43.372.25.174-.143.27-.046.27.27 0 .2-.036.236-.178.178-.358-.147-.485-.105-.517.17-.023.2.024.29.18.34.264.083.632-.03.79-.244.11-.15.126-.148.19.015.153.397-.01.487-.864.487-.448 0-.84-.04-.87-.092zm2.19-.045c0-.086.046-.186.103-.22.17-.106.124-1.234-.056-1.385-.276-.228 0-.325.7-.25.56.06.713.12.932.367.343.384.35.898.02 1.283-.215.25-.33.288-.972.324-.607.033-.727.014-.727-.12zm1.264-.28c.352-.276.36-.728.018-1.07-.48-.48-.77-.262-.77.58 0 .738.24.894.752.49zm1.087.272c0-.08.057-.164.128-.187.21-.07.125-1.296-.1-1.467-.1-.075-.158-.142-.13-.147.413-.085.903-.083 1.23.006.374.1.405.136.405.466 0 .223-.057.38-.153.416-.25.096-.175.39.163.642.22.163.285.266.21.34-.14.142-.6-.154-.75-.485-.122-.27-.35-.4-.44-.256-.098.16.065.613.22.613.083 0 .12.046.086.102-.102.165-.87.128-.87-.042zm1.12-1.026c.07-.082.094-.244.056-.363-.1-.315-.6-.245-.648.09-.053.377.352.563.593.273zm1.555 1.1c-.075-.03-.22-.19-.32-.356-.402-.662.133-1.618.906-1.618.846 0 1.235 1.3.55 1.84-.25.196-.815.263-1.136.135zm.948-.36c.36-.515.096-1.307-.436-1.307-.383 0-.632.278-.632.708 0 .5.242.825.614.825.19 0 .352-.082.454-.228zm-29.71.253c-.38-.02-.69-.06-.69-.087 0-.027.073-.162.162-.3.126-.19.146-.372.09-.788-.04-.296-.125-.572-.188-.612-.214-.135.096-.3.5-.267.433.037.584.235.258.338-.183.058-.21.15-.21.727 0 .773.123.884.68.618.196-.094.397-.145.447-.114.16.1-.13.605-.31.54-.028-.01-.362-.035-.74-.055zm1.5-.037c-.038-.06-.017-.162.045-.224.178-.18.144-1.25-.044-1.407-.243-.203-.06-.28.76-.32.808-.036 1.044.09.895.477-.066.17-.08.172-.263.006-.284-.257-.764-.176-.808.136-.032.224-.01.24.28.182.297-.06.317-.045.317.24 0 .322-.087.38-.278.19-.18-.182-.456-.022-.418.242.028.197.093.23.44.224.226-.004.495-.044.598-.09.157-.07.182-.045.153.16-.033.23-.078.245-.82.27-.48.014-.814-.02-.855-.087zm2.463.017c-.032-.053.024-.156.124-.23.268-.198.2-1.31-.08-1.31-.104 0-.218.045-.253.1-.115.188-.255.107-.255-.147 0-.354.195-.424 1.012-.363.755.056.998.183.89.464-.06.16-.083.16-.323.003-.142-.092-.303-.14-.358-.107-.055.034-.1.36-.1.723 0 .493.04.677.154.72.084.033.127.1.096.15-.075.122-.833.12-.91-.003zm1.833-.012c-.036-.058-.02-.163.038-.232.19-.228.237-1.134.07-1.353-.227-.302-.192-.353.247-.353.415 0 .648.16.38.263-.194.076-.278.405-.136.546.14.14.752.145.837.006.036-.057 0-.238-.084-.402-.183-.367-.142-.414.357-.414.445 0 .454.014.225.364-.185.282-.212 1.24-.04 1.413.186.185.112.268-.236.268-.437 0-.487-.06-.322-.378.18-.348.103-.506-.284-.584-.475-.095-.662.125-.456.537.085.17.13.336.097.367-.1.1-.622.062-.69-.05zm4.858.017c0-.05.07-.147.153-.217.105-.087.153-.32.153-.73 0-.444-.04-.62-.153-.664-.084-.033-.153-.122-.153-.2 0-.11.134-.128.64-.078.924.092 1.262.48.79.906-.195.176-.197.2-.035.45.093.146.23.302.306.347.215.127.16.275-.1.275-.163 0-.32-.12-.486-.377-.136-.207-.293-.37-.35-.363-.18.024-.176.34.01.543.174.192.166.197-.297.197-.262 0-.476-.04-.476-.09zm1.065-.995c.088-.034.16-.143.16-.243 0-.236-.262-.45-.458-.374-.187.072-.207.54-.027.612l.145.06c.01.003.09-.02.18-.055zm-22.357.91c-.276-.043-.47-.277-.34-.408.035-.035.225.024.423.13.277.15.4.168.538.082.355-.224.17-.445-.768-.916-.07-.035-.128-.196-.128-.356 0-.363.24-.504.853-.504.486 0 .618.126.46.435-.088.168-.11.166-.376-.03-.168-.124-.354-.183-.456-.143-.32.123-.177.352.39.62.478.227.56.308.56.545 0 .512-.33.668-1.155.544zm1.51-.033c-.04-.064-.023-.165.036-.224.137-.137.457-.017.4.15-.056.172-.345.22-.435.074zm2.303.02c0-.048.092-.17.205-.272.156-.14.205-.315.205-.728 0-.438-.04-.564-.204-.652-.112-.06-.204-.154-.204-.21 0-.108.707-.133.967-.033.153.058.153.078 0 .25-.2.22-.242 1.268-.06 1.45.215.214.122.28-.394.28-.282 0-.512-.038-.512-.086zm1.533.028c0-.032.05-.154.114-.272.2-.373.184-1.085-.03-1.357-.19-.24-.19-.247.01-.353.316-.17.64.053.93.636.14.284.312.536.382.56.2.066.164-.693-.04-.843-.245-.18-.08-.36.327-.36.383 0 .47.185.194.414-.12.1-.153.306-.138.833.01.385-.01.73-.045.765-.1.098-.392-.186-.543-.528-.178-.4-.534-.815-.624-.724-.145.144-.125.856.027.982.244.203.175.305-.207.305-.197 0-.358-.026-.358-.058zm-10.79-.155c-.036-.06.03-.178.15-.26.167-.12.214-.26.214-.645 0-.314-.056-.54-.153-.62-.268-.224-.18-.41.193-.41.408 0 .523.12.62.65.047.268.134.412.268.447.22.058.258.184.088.29-.06.037-.084.17-.053.3.05.2.01.238-.324.293-.57.094-.923.08-1-.045zm.93-.477c-.106-.43-.26-.527-.26-.166 0 .32.067.447.233.447.054 0 .065-.125.027-.28zm.67.515c-.11-.044-.094-.094.07-.222.158-.122.2-.24.157-.447-.03-.157-.124-.282-.208-.282-.107 0-.13-.054-.077-.18.042-.097.098-.305.125-.46.05-.3.387-.46.703-.34.152.058.153.08.01.24-.253.285-.333 1.1-.136 1.4.09.14.165.278.165.308 0 .07-.62.056-.808-.018zm1.363-.04c-.04-.064-.017-.148.05-.188.154-.096.172-1.264.02-1.315-.16-.053-.14-.295.027-.36.18-.068.98.032 1.214.153.257.132.232.637-.04.818l-.22.146.322.366c.384.438.393.493.085.493-.17 0-.284-.1-.406-.357-.094-.197-.242-.358-.33-.358-.234 0-.315.315-.118.46.093.067.14.152.102.19-.11.11-.628.074-.704-.048zm1.03-1.268c0-.26-.04-.306-.256-.306-.215 0-.26.054-.288.34-.032.318-.016.337.254.306.245-.028.288-.08.288-.34zm27.18.327c-.104-.272 0-.736.16-.736.216 0 .26.595.058.763-.128.107-.167.103-.216-.026zm-34.532-3.3c-.087-.087-.16-.268-.16-.4 0-.24-.336-.42-.87-.467-.405-.035-.46.006-.46.35 0 .383-.197.612-.48.558-.275-.052-.28-.51-.01-.942 1.038-1.664 1.12-1.692 1.834-.625.263.394.457.75.43.793-.025.043.094.078.266.078.39 0 .412.217.062.568-.294.293-.393.308-.61.09zm-.614-1.483c.095-.154-.1-.326-.41-.36-.19-.02-.26.022-.26.154 0 .1.03.21.068.25.108.107.526.078.6-.044zm73.89-.93c-.73-.048-7.836-.112-15.79-.14-7.955-.03-16.648-.073-19.318-.098-2.67-.025-6.924-.037-9.454-.028-5.574.02-6.34.016-10.63-.07-1.855-.037-6.707-.076-10.783-.086-4.074-.01-7.47-.06-7.544-.107-.08-.05-.104-.157-.063-.255.04-.093.103-.33.14-.527.05-.276.112-.352.267-.334.973.113 2.23.138 6.026.122 6.452-.028 15.28.004 15.8.057.395.04 4.167.188 4.437.173.317-.016 6.545 0 13.645.036 4.47.02 9.78.034 11.805.026 2.024-.007 5.657-.008 8.075 0 5.216.016 8.567.015 9.76 0 .478-.006 1.597 0 2.487.014.89.015 1.65-.005 1.686-.043.04-.037.074-1.456.08-3.153.015-5.568.184-16.567.302-19.698.037-.984.064-1.974.06-2.2-.02-.993-.1-1.772-.205-1.97-.31-.578.055-.873.802-.65.312.095.397.177.45.434.034.174.038.357.01.406-.03.05-.08 1.045-.108 2.213-.05 2.027-.12 4.373-.152 5.14-.028.655.092 3.116.16 3.29.043.106-.01.25-.144.382-.135.135-.163.213-.08.213.106 0 .137.403.147 1.866.014 2.175.014 2.227.017 2.43.013.92 0 1.43-.043 1.686-.03.17-.044.86-.035 1.534.032 2.328.02 3.684-.04 4.6-.057.856.028 2.717.19 4.218l.07.64-.347-.017c-.19-.008-.945-.054-1.676-.103zm-89.83-.374c-.084-.136-.11-1.39-.03-1.516.078-.128.13-5.72.064-6.987-.01-.14-.03-1.405-.05-2.81-.02-1.407-.065-2.902-.1-3.324-.036-.422-.062-.836-.06-.92v-.716c0-.31 0-.63.01-.716.06-.667.046-2.768-.018-3.008-.052-.193-.033-.395.052-.565.087-.174.104-.37.05-.57-.045-.167-.11-1.544-.142-3.06-.033-1.515-.102-2.835-.154-2.933-.072-.134-.04-.216.133-.337.638-.446 1.546.123 1.207.757-.07.13-.07.218 0 .26.056.033.094.278.085.542-.01.264 0 1.087.012 1.828.015.74-.01 1.403-.05 1.47-.093.154-.084 4.785.01 5.033.04.098.025.235-.03.304-.062.08-.067.45-.013.984.048.47.062.896.032.945-.03.05-.203.092-.382.096-.307.006-.312.012-.087.102.132.053.27.078.307.055.037-.023.08.748.096 1.712.016.965.055 2.628.088 3.697.033 1.068.06 2.01.057 2.096-.01.414 0 3.192.016 4.575l.016 1.56.51.002c.282.003.972.026 1.534.053s1.344.037 1.737.022c2.45-.093 8.918.066 9.08.223.137.134.205.892.086.966-.06.035-1.18.06-2.492.053-9.707-.05-11.057-.04-11.183.084-.148.148-.31.166-.388.042zm51.814-1.34c-.18-.067-.2-.192-.224-1.394-.014-.727 0-1.49.028-1.697l.054-.377 1.704.003c.937 0 1.75-.008 1.806-.02.056-.01.272-.016.48-.01l.375.012-.05.69c-.028.38-.05.76-.047.844 0 .084.01.384.018.665.01.28 0 .672-.022.87l-.037.357-1.533.018c-.844.01-1.718.04-1.942.066-.225.027-.5.015-.61-.026zm1.434-.44c.04-.04.123-.038.185.003.06.04.553.078 1.092.083l.98.01-.018-.93c-.01-.51.017-.975.06-1.032.04-.056.09-.263.11-.46l.034-.358-1.91-.03-1.91-.033.04.826c.022.453.063.862.092.91.03.046.01.252-.05.457-.14.51.01.645.685.634.296-.004.57-.04.61-.08zm.577-.802c-.326-.293-.328-.297-.082-.297.245 0 .57.235.57.41 0 .208-.175.167-.487-.112zm-.94-.084c0-.126.065-.213.16-.213.094 0 .147.07.127.17-.05.258-.288.293-.288.044zm.612-.88c0-.23.025-.247.204-.15.113.06.205.176.205.258 0 .082-.09.15-.204.15-.15 0-.204-.068-.204-.26zm1.195.09c-.095-.095.02-.24.19-.24.082 0 .148.068.148.152 0 .154-.216.21-.338.088zm-33.03 1.823c-.02-.018-.877-.034-1.91-.036-1.03-.002-1.955-.046-2.054-.1-.208-.11-.23-.507-.073-1.325.058-.303.11-1.085.112-1.737 0-.652.04-1.242.083-1.31.058-.094.82-.118 3.133-.095 1.68.016 3.674.02 4.43.01 1.525-.018 1.664.038 1.585.638-.063.482-.068 2.9-.01 3 .03.048-.046.2-.17.333-.125.134-.227.328-.227.432 0 .177-.145.19-2.436.206-1.34.01-2.45.004-2.468-.013zm-.974-.43c1.384-.017 2.59-.027 2.81-.022l.614.017c.225.007.708-.01 1.073-.04.365-.028.768-.053.894-.054.195-.003.232-.062.244-.386.1-2.918.047-3.337-.384-2.98-.138.116-.185.106-.306-.06-.127-.173-.198-.183-.653-.09-.28.058-.51.068-.51.023 0-.157-.502-.208-.868-.087-.21.07-.42.084-.49.034-.07-.048-.47-.082-.89-.074-1.182.022-1.228.03-1.228.194 0 .192-.168.2-.277.012-.108-.187-2.09-.423-2.36-.28-.168.09-.188.25-.196 1.533 0 .787-.04 1.616-.078 1.842l-.07.41.75.034c.41.02.817.023.9.01.085-.013.546-.03 1.024-.035zm1.375-.62c-.094-.15.015-.234.21-.158.09.033.137.108.102.165-.083.134-.227.13-.312-.006zm-1.527-1.012c-.04-.067-.028-.168.028-.224.133-.133.24.04.13.213-.062.102-.1.105-.157.012zm19.257 2.065c0-.04 0-.65.015-1.35l.053-2.915c.016-.9.057-2.556.09-3.68.035-1.126.073-2.53.085-3.12l.02-1.073.41.013c.225.007 1.145.042 2.044.08.9.035 3.03.082 4.732.105 2.194.028 3.138.075 3.243.162.15.124.148.2-.01 2.452-.153 2.166-.248 8.988-.128 9.062.044.027.08.112.08.19 0 .114-.904.138-5.315.143-2.923.002-5.318-.03-5.323-.07zm6.04-.317c.443-.054.555-.104.533-.237-.035-.207.137-.325.35-.243.132.05.138.09.033.216-.17.204-.13.228.434.262.42.026.514-.008.726-.255.32-.373.774-.343.97.065.106.225.202.28.48.28.19 0 .377-.05.415-.11.038-.063.08-.95.093-1.97.014-1.02.056-1.927.095-2.015.043-.1-.01-.232-.138-.348-.255-.232-.262-.33-.03-.405.16-.05.18-.207.175-1.362 0-.718-.042-1.386-.088-1.485-.052-.11-.036-.238.04-.33.07-.084.097-.227.062-.32-.035-.09-.013-.228.05-.303.075-.092.083-.28.023-.575-.1-.49-.09-1.242.02-1.586.057-.182.02-.25-.19-.347-.204-.092-.3-.092-.41 0-.185.153-.28.64-.157.79.155.188-.382.482-.71.39-.15-.043-.31-.068-.358-.057-.047.01-.067-.04-.043-.11.024-.073.143-.147.265-.165.122-.018.222-.1.222-.186 0-.107.06-.134.202-.09.183.06.197.03.138-.274-.075-.384-.215-.515-.424-.398-.08.044-.334.046-.567.004-.234-.042-1.535-.08-2.893-.083-2.173-.007-2.477.01-2.532.155-.056.146-.082.147-.24.01-.12-.103-.424-.154-.968-.16-.792-.01-.9.035-.67.265.095.096.093.123-.01.123-.072 0-.11.058-.085.128.025.07 0 .22-.06.332-.137.267-.162 1.586-.03 1.586.057 0 .047.055-.02.123-.148.15-.163.665-.02.713.063.022.067.163.01.392-.052.197-.114.607-.14.912-.042.493-.018.58.212.794l.26.24-.222.236c-.122.13-.22.333-.22.452 0 .12-.048.247-.105.282-.057.035-.072.115-.034.178.107.172.046 1.628-.074 1.772-.073.087-.072.148 0 .194.066.04.09.32.06.725-.048.692-.066.663.453.697.14.01.16.076.118.368-.01.056-.148.102-.31.102-.27 0-.298.033-.298.346v.345h1.07c.587 0 1.088.02 1.113.046.06.06 2.72-.027 3.418-.112zm-4.832-.38c-.116-.116.72-.89.89-.825.087.034.16.108.16.164 0 .132-.42.364-.596.328-.076-.015-.162.067-.192.183-.055.212-.148.265-.263.15zm2.024-.138c-.028-.043.07-.132.216-.2.276-.124.405-.093.302.073-.08.13-.46.224-.52.127zm1.802-1.35c.04-.267.55-.352.836-.14.28.21.112.36-.407.36-.412 0-.457-.023-.428-.22zm-3.357-.145c-.08-.208.11-.395.32-.315.132.05.143.106.055.27-.13.246-.29.266-.375.045zm1.107-.363c-.305-.115-.235-.336.12-.378.28-.034.31.012.188.3-.053.127-.126.145-.308.077zm-.982-.253c-.087-.087-.16-.22-.16-.298 0-.256.19-.262.437-.014.228.228.232.25.063.357-.14.087-.218.076-.34-.046zm1.823.018c-.064-.168.125-.57.268-.57.125 0 .244.465.157.607-.096.155-.36.132-.424-.038zm3.18-.57c-.04-.066-.028-.166.028-.223.07-.07.128-.063.177.017.04.066.028.166-.028.222-.07.067-.128.06-.177-.018zm-5.474-.42c-.085-.158-.147-.185-.23-.103-.207.206-.37.124-.35-.174.02-.25.066-.29.355-.297.215-.007.332.038.332.128 0 .076.07.177.157.226.095.053.132.156.09.26-.088.233-.216.218-.356-.042zm1.064-.22c.034-.126.062-.263.063-.304 0-.17.513.174.513.347 0 .142-.077.188-.32.188-.28 0-.31-.028-.256-.23zm3.714-.948c-.182-.25-.182-.253.077-.253.21 0 .26.05.26.257 0 .32-.1.32-.337-.003zm-1.094-.312c0-.18.22-.15.283.04.022.067-.032.12-.12.12-.09 0-.163-.07-.163-.16zm-4.088-.134c0-.104.31-.245.382-.174.025.026.016.096-.02.156-.083.132-.363.146-.363.018zm.843-.15c-.24-.12-.31-.27-.123-.27.06 0 .086-.036.06-.08-.028-.045.038-.08.146-.08.11 0 .197.058.197.13 0 .073.046.132.103.132.056 0 .102.07.102.153 0 .175-.153.18-.486.015zm-.106-1.413c.025-.074.19-.135.37-.135.42 0 .356.194-.08.237-.24.024-.322-.004-.29-.102zm3.807-.294c-.096-.156.037-.257.168-.126.073.073.075.13.01.174-.057.035-.135.014-.173-.047zm-2.705-.096c0-.056.07-.102.154-.102.083 0 .152.046.152.102 0 .056-.07.102-.153.102-.085 0-.155-.046-.155-.102zm.884-.07c-.124-.123-.067-.34.087-.34.084 0 .153.067.153.15 0 .17-.146.285-.24.19zm-2.367-.44c-.18-.2-.178-.206.086-.206.203 0 .27.052.27.205 0 .112-.038.204-.085.204-.047 0-.17-.092-.272-.204zm1.278-.308c0-.056.07-.102.154-.102.084 0 .154.046.154.102 0 .056-.07.102-.154.102-.084 0-.153-.046-.153-.102zm1.636-.042c0-.09.073-.162.162-.162.18 0 .15.22-.04.283-.068.022-.122-.032-.122-.12zm-2.044-.213c0-.084.09-.153.2-.153.138 0 .184.05.144.154-.032.085-.123.154-.2.154-.08 0-.144-.07-.144-.153zm2.196-.192c-.107-.08-.242-.125-.3-.104-.06.02-.176-.005-.26-.058-.2-.128-.01-.332.352-.37.245-.027.404.093.417.316 0 .056.07.088.147.07.115-.025.117-.002.01.128-.16.192-.128.19-.365.017zm-3.012-.037c0-.14.19-.378.25-.318.08.08-.047.395-.16.395-.05 0-.09-.034-.09-.076zm4.35-.013c-.032-.05.012-.148.095-.217.128-.106.154-.09.154.09 0 .22-.146.293-.25.127zm-3.188-.16c-.08-.206.054-.39.232-.32.082.03.25-.01.373-.09.207-.136.234-.128.343.103.132.282.01.438-.212.258-.1-.083-.168-.072-.263.042-.162.196-.398.2-.472.006zm2.453 0c-.03-.082-.024-.2.014-.262.04-.063-.01-.203-.11-.312-.1-.11-.127-.198-.062-.198.132 0 .373.35.474.69.05.17.027.23-.095.23-.09 0-.188-.067-.22-.148zm.39-.472c.024-.074.105-.154.18-.18.076-.024.114.014.088.09-.024.074-.105.155-.18.18-.076.025-.114-.013-.088-.09zm1.642-.06c-.07-.03-.128-.12-.128-.205 0-.217.45-.132.492.093.033.174-.104.216-.364.11zm-4.665-.26c.09-.144-.17-.49-.367-.49-.308 0-.347-.196-.06-.306.144-.055.262-.17.262-.256 0-.2.143-.2.31 0 .115.14.15.13.293-.077.16-.23.52-.35.52-.174 0 .05-.116.166-.26.26-.182.12-.228.203-.153.278.187.188.117.297-.148.23-.207-.052-.255-.026-.255.137 0 .11.045.228.1.263.172.106.115.244-.094.228-.11-.008-.176-.05-.15-.093zm1.24-.712c-.297-.11-.326-.163-.197-.366.103-.162.734-.294.734-.153 0 .057.076.097.17.09.103-.01.198.094.246.266.075.27.063.28-.297.273-.206-.004-.5-.054-.655-.11zm4.053-.13c-.09-.19-.072-.26.094-.397.112-.09.242-.14.29-.11.155.095.09.542-.095.64-.143.076-.206.047-.29-.134zm-6.256.038c.024-.073.105-.154.18-.178.076-.026.114.013.088.09-.024.073-.105.153-.18.178-.076.026-.114-.013-.088-.09zm4.233-.257c-.038-.1-.015-.146.06-.122.152.052.236.285.102.285-.056 0-.13-.073-.163-.162zm-.947-.17c-.026-.044.024-.106.112-.14.18-.07.466.015.466.136 0 .102-.515.104-.578.002zm1.326-.016c-.098-.114-.078-.15.102-.182.326-.06.6.018.554.155-.057.174-.514.192-.656.027zm35.128 10.988c0-.12-.646-.932-1.133-1.425-.2-.204-.534-.56-.74-.793l-.376-.422.586-.447c.323-.246.642-.47.71-.498.068-.028.33-.227.58-.44.25-.215.643-.49.873-.614.576-.31 2.546-1.662 3.558-2.442.46-.355 1.01-.737 1.22-.85.212-.112.49-.308.616-.434.35-.35.618-.298.806.153.088.21.38.614.65.895.49.512.932 1.183.93 1.41 0 .134-.624.68-1.004.88-.276.148-.472.31-1.1.905-.254.24-.508.434-.567.434-.095 0-1.09.72-1.86 1.348-.307.25-.33.266-1.542 1.026-.422.266-1.024.692-1.337.947-.538.44-.866.58-.866.368zm.565-.683c.138-.09.25-.128.25-.082 0 .045.15-.06.334-.232.182-.173.444-.372.58-.443.23-.117.235-.138.073-.256-.23-.17-.406-.773-.266-.913.072-.072.124-.036.162.11.03.12.193.317.36.44l.304.225.53-.455c.293-.25.66-.576.818-.723.158-.147.352-.268.43-.268.08 0 .385-.212.677-.472.294-.26.652-.524.797-.588.413-.182.856-.5 1.106-.794.127-.148.447-.372.712-.497.436-.204.465-.24.303-.358-.1-.073-.27-.108-.38-.08-.11.03-.264 0-.34-.063-.077-.064-.215-.087-.307-.052-.176.068-.212-.033-.082-.237.06-.095.175-.1.468-.018.214.06.413.083.442.054.03-.028-.182-.278-.47-.554-.287-.275-.522-.57-.522-.657 0-.087-.063-.21-.14-.274-.173-.143-.654.012-.74.24-.066.168-.697.567-.9.567-.07 0-.218.097-.325.216-.106.117-.355.297-.552.397-.196.1-.564.365-.817.587-.252.222-.574.462-.715.533-.63.32-1.328.87-1.328 1.044 0 .133-.076.188-.256.188-.14 0-.347.092-.46.205-.11.112-.25.204-.306.204-.056 0-.192.09-.302.2-.11.11-.378.29-.594.402-.7.356-.704.423-.075 1.088.31.328.562.636.562.686 0 .136.52.793.63.793.05 0 .206-.074.345-.165zm-1.077-1.554c0-.055.073-.128.162-.162.1-.038.146-.015.12.06-.05.152-.282.237-.282.102zm1.49-1.354c-.108-.11-.177-.21-.153-.224.484-.293.966-.472 1.048-.39.127.127-.093.403-.42.528-.132.05-.212.137-.177.194.108.173-.09.1-.297-.108zm4.117-1.634c.27-.225.382-.248.474-.098.035.056-.058.148-.205.204-.42.16-.534.115-.27-.106zm-1.263-.2c-.065-.105.248-.605.383-.61.112-.006.094.178-.026.25-.056.036-.102.154-.102.263 0 .21-.15.267-.255.097zm2.766-.4c-.068-.11.147-.202.325-.14.07.025.128.087.128.14 0 .12-.38.12-.453.002zm-.763-.253c-.075-.09-.084-.17-.025-.208.14-.088.44.046.395.175-.058.176-.238.19-.37.032zm-19.886 2.806c-.06-.095.027-.174.405-.367.55-.283.153-1.787-.474-1.787-.23 0-.36-.204-.194-.306.13-.08.7.014.922.152.07.042.216.28.325.53.19.428.19.474.03.955-.217.658-.817 1.144-1.015.823zM56.84 45.52c-.233-.178-.38-.62-.32-.962.08-.444.356-.956.512-.956.184 0 .183.248 0 .4-.078.066-.173.285-.212.49-.055.29-.023.432.154.67.244.33.154.575-.132.358zm12.19.006c-.256-.056-.566-.212-.698-.352-.19-.2-.27-.228-.384-.133-.08.067-.144.19-.144.27 0 .292-.256.06-.288-.258-.05-.52-.57-.415-.72.144l-.08.298-.76-.023c-.417-.01-.92-.024-1.116-.026-.197-.003-.48-.054-.63-.114-.195-.078-.332-.076-.486.006-.218.117-.324.045-.81-.553-.088-.11-.253-.158-.46-.138-.264.026-.323.076-.323.278 0 .136-.056.266-.126.29-.08.027-.128-.057-.128-.23 0-.19-.064-.29-.205-.328-.11-.03-.203-.117-.203-.195 0-.16.666-.203.76-.047.034.053.192.027.365-.06.684-.34.163-.95-.69-.806-.31.053-.45.022-.656-.14-.144-.113-.292-.177-.327-.142-.036.035-.275.056-.532.047-.3-.012-.522.037-.62.136-.21.21-.52.183-1.008-.084-.483-.263-.545-.45-.25-.767.326-.35.555-.25.555.24 0 .363.03.41.264.44.438.05.54-.184.423-.976-.108-.74-.092-.844.13-.844.175 0 .285.524.238 1.135l-.033.45.383.032c.46.038.5-.116.077-.303-.356-.16-.415-.35-.077-.246.566.17.565.172.416-.583-.046-.233-.02-.28.16-.28.272 0 .366.35.276 1.03-.056.42-.038.52.104.573.27.104.493-.107.59-.557.09-.413.243-.53.703-.533.288-.003.21.37-.13.612-.498.355-.36.613.326.613.226 0 .323.057.363.213.03.118.163.254.296.305.34.13.327.43-.013.344-.313-.08-.438.16-.272.525.14.303.315.315.658.045.326-.257.38-.256.38.003 0 .372.312.366.623-.013.307-.374.46-.34.52.112.037.278.415.393.695.21.128-.082.122-.126-.04-.306-.19-.21-.19-.21.17-.21.198 0 .537-.075.753-.165.297-.123.436-.136.573-.05.1.062.27.113.375.113.106 0 .25.07.32.153.167.2.473.197.55-.006.097-.25.728-.157.728.11 0 .135-.08.215-.236.237-.292.04-.24.26.073.307.163.024.35-.092.636-.393.224-.234.39-.48.367-.543-.02-.065-.188-.204-.37-.31-.246-.145-.36-.164-.446-.078-.18.18-.382.134-.382-.088 0-.385.74-.4 1.183-.025.305.26.977 1.262.934 1.394-.05.157-.875.202-1.048.058-.11-.092-.203-.07-.415.096-.15.118-.302.21-.336.203-.035-.006-.27-.056-.523-.11zm1.885-.38c.083-.134-.036-.393-.21-.46-.2-.077-.3.21-.14.4.143.174.267.195.35.06zM58.81 42.938c0-.084-.047-.153-.103-.153-.056 0-.102.07-.102.153 0 .084.046.153.102.153.056 0 .102-.068.102-.152zm-1.187 2.142c-.11-.445.61-1.013.832-.654.036.058.165.093.287.076.163-.022.22.023.22.174 0 .325.142.46.48.46.303 0 .312-.012.255-.367-.047-.292-.03-.356.086-.31.08.03.313-.015.518-.1.205-.086.436-.132.514-.102.218.083.168.337-.08.4-.345.092-.042.376.4.376.31 0 .34.02.226.158-.165.2-.67.11-.98-.176-.218-.2-.22-.2-.482.062-.352.353-.8.35-1.08-.004l-.21-.267-.1.267c-.084.218-.17.267-.46.267-.3 0-.37-.042-.425-.26zm.638-.097c.033-.084.03-.23-.01-.325-.06-.157-.078-.158-.228-.008-.168.17-.124.486.07.486.06 0 .134-.07.167-.153zm18.743-.448c0-.305.26-.453.665-.376.28.05.43.017.666-.15.37-.264.385-.5.052-.813-.215-.202-.277-.217-.416-.102-.158.13-.157.246.01.645.064.155.035.18-.163.153-.187-.027-.26-.123-.323-.434-.045-.22-.158-.455-.25-.522-.212-.155-.11-.46.152-.46.366 0 .89.233 1.218.543.3.285.353.3.58.178.26-.138.572-.088.572.09 0 .057-.092.152-.205.212-.243.13-.266.363-.044.45.234.09.687-.18 1.004-.597.344-.45.672-.492.644-.083-.016.237.02.282.237.282.222 0 .26-.05.288-.384.017-.21.045-.383.06-.383.017 0 .175.072.352.16.253.127.323.227.323.463 0 .22.067.332.25.415.276.126.407.354.257.446-.053.032-.246-.008-.43-.09-.602-.268-.77-.27-.944-.004-.204.31-.686.327-.98.032-.202-.2-.23-.204-.553-.05-.433.205-.484.202-.794-.042l-.258-.202-.268.25c-.147.135-.43.278-.627.315-.197.036-.383.107-.414.157-.03.05-.19.09-.357.09-.226 0-.3-.047-.3-.192zm-48.958-.946c-.14-.058-.412-.08-.603-.05-.248.04-.43-.003-.63-.146-.33-.235-.505-.256-.505-.06 0 .078-.144.17-.32.205-.46.09-.702.078-.702-.04 0-.056.092-.102.204-.102.115 0 .204-.068.204-.156 0-.283-.305-.28-.736.004-.353.234-.525.278-1.038.266-.37-.008-.678-.07-.774-.16-.11-.1-.214-.114-.333-.047-.095.053-.37.09-.613.08-.243-.01-.54.018-.662.06-.294.1-.41-.127-.482-.94-.044-.5-.022-.668.108-.798.15-.15.18-.15.324-.004.138.138.143.226.032.64-.107.4-.104.5.02.624.127.128.155.12.215-.07.086-.27.22-.274.36-.01.06.112.2.204.31.204.272 0 .27-.442 0-.79-.208-.265-.27-.538-.12-.538.203 0 .53.494.53.8 0 .393.15.413.475.062.153-.165.328-.25.472-.23.192.027.228.097.228.43 0 .54.245.7.633.41.156-.117.307-.317.337-.444.06-.25 1.056-.878 1.227-.773.053.033.07.195.036.36-.05.256-.02.316.204.4.145.057.357.195.472.31.35.352.694.226.878-.323.13-.39.556-.548.556-.207 0 .108.093.28.207.383.287.26.442.085.287-.324-.19-.502-.066-.664.45-.59.24.036.507.144.593.24.086.1.28.21.433.248.228.057.29.143.343.48.036.224.106.433.155.464.153.094.484-.06.546-.253.032-.1.172-.245.313-.32.227-.122.276-.113.46.086.29.31.648.29.8-.045.107-.233.092-.316-.11-.61-.136-.2-.356-.37-.522-.406-.323-.072-.463-.307-.288-.482.183-.183 1.01.268 1.22.664.095.18.3.45.454.602.308.3.354.566.148.848-.123.167-.212.174-1.044.072-.6-.074-.944-.077-1.01-.01-.213.21-1.956.035-2.11-.213-.05-.08-.038-.197.03-.28.096-.114.13-.1.195.074.113.305.392.275.392-.042 0-.187-.054-.255-.204-.255-.11 0-.203-.066-.203-.147 0-.204-.387-.306-.573-.15-.11.09-.137.232-.092.496.06.348.042.377-.283.494-.406.146-.55.148-.893.008zm.51-.29c0-.166-.417-.343-.533-.227-.057.057-.072.153-.034.214.085.138.568.148.568.013zm-4.822-.344c.026-.215-.01-.273-.17-.273-.244 0-.33.188-.2.44.132.254.33.164.37-.167zm2.25-.24c-.042-.213-.192-.265-.39-.134-.138.09-.138.112 0 .2.235.156.426.124.39-.065zm31.734.554c-.045-.07-.105-.403-.134-.74l-.052-.614-.407-.05c-.273-.035-.41-.104-.41-.206 0-.127.192-.153 1.108-.153.74 0 1.142.04 1.21.123.188.225-.01.328-.517.268-.274-.032-.52-.015-.555.04-.092.148-.1.754-.016 1.128.076.338-.06.462-.225.205zm27.122-.758c-.158-.157-.042-.23.415-.258.354-.023.493-.077.517-.2.045-.24-.512-.39-1.206-.33l-1.208.104c-.725.062-1.04-.1-1.04-.542 0-.316.243-.306.39.016.153.336.49.33.848-.01.27-.26.288-.264.61-.104.445.223.64.208.76-.06.116-.26.52-.394.834-.278.454.168.553 1.404.13 1.63-.21.113-.948.135-1.05.032zm-7.474-.875c-.088-.125-.16-.267-.16-.316 0-.048-.09-.205-.203-.348-.27-.343-.268-.64.01-.64.15 0 .267.128.412.455.19.428.218.45.468.356.202-.078.326-.062.516.063.32.21.383.138.384-.448 0-.356.04-.478.155-.478.09 0 .165.114.185.286.045.39.403.523.88.324.575-.24.774-.2.774.153 0 .347.266.55.527.405.136-.076.15-.166.072-.51-.147-.65.012-.764.527-.383.362.268.38.364.072.408-.19.027-.23.097-.23.39v.358l-.544.032c-.525.03-.548.02-.663-.285-.156-.414-.53-.4-.536.02 0 .153-.035.308-.072.345-.117.117-.382-.045-.324-.2.064-.162-.343-.5-.492-.407-.052.032-.066.17-.032.305.08.323-.166.423-.503.202-.313-.205-.503-.208-.667-.01-.18.215-.37.19-.556-.075zM5.88 41.1c-.042-.057-.063-.357-.045-.667.017-.31.043-2.94.057-5.845.014-2.905.06-5.315.1-5.355.04-.04.798-.064 1.685-.052.887.014 2.45.032 3.476.043 1.98.02 2.187.07 1.976.464-.065.12-.136.85-.16 1.62-.022.774-.048 1.43-.058 1.458-.01.028-.01.155 0 .28.01.128-.036.23-.103.23-.09 0-.088.044.01.162.088.106.14.5.146 1.138.015 1.247-.058 1.79-.226 1.684-.09-.057-.14-.72-.18-2.37-.046-1.863-.086-2.32-.214-2.463-.087-.097-.112-.19-.057-.21.055-.02.126-.32.158-.664.068-.75-.027-.87-.673-.856-.244.005-1.432-.017-2.64-.05-2.402-.064-2.757-.065-2.85-.007-.048.03-.05 4.866 0 7.062.04 2.018.01 3.024-.1 3.16-.05.062-.066.265-.037.45.056.366.426.602.734.47.09-.038 1.17-.063 2.402-.056 2.28.013 3.023-.072 3.023-.347 0-.196-.094-.19-.324.02-.175.157-.187.155-.185-.027 0-.276.158-.503.247-.36.038.063.144.114.234.114.09 0 .133-.03.095-.068-.038-.04 0-.15.093-.248.13-.144.14-.222.043-.4-.064-.124-.09-.332-.058-.463.033-.133.067-.773.075-1.423.01-.65.047-1.183.086-1.183.04 0 .154.09.255.203.13.144.153.24.078.332-.098.12-.09 2.234.01 2.407.023.04.012.28-.026.534-.047.317-.024.53.072.685.077.123.125.328.106.454-.03.212-.085.23-.697.226-1.776-.01-5.232-.006-5.805.007-.355.008-.68-.033-.72-.09zm5.25-.77c-.036-.055.01-.1.09-.1.083 0 .18.045.215.1.035.057-.01.103-.09.103-.084 0-.18-.046-.216-.102zm-.674-1.88c.065-.078.105-.2.09-.268-.017-.07.027-.147.098-.173.08-.03.128.046.128.206 0 .14-.073.28-.162.315-.247.096-.283.076-.154-.08zm-2.2-.427c.034-.088.012-.254-.05-.37-.08-.15-.08-.238 0-.318.08-.08.112-.053.112.1 0 .117.07.27.154.34.118.1.127.163.04.27-.16.19-.332.176-.256-.022zm.19-.785c.024-.07.104-.128.18-.128.074 0 .154.058.178.128.025.076-.047.128-.18.128-.13 0-.203-.052-.178-.128zm1.907-.342l-.236-.25.273-.274c.15-.15.305-.24.345-.2.04.04-.013.134-.117.21-.183.134-.182.143.033.258.123.066.224.182.224.26 0 .252-.282.25-.52-.004zm-2.792-.72c-.03-.078-.177-.19-.326-.246-.385-.146-.22-.246.346-.21.6.036.662.074.51.315-.153.247-.457.33-.53.142zm39.72-1.016c-.202-.14-.328-.15-.87-.053-.74.13-.837.063-.946-.667-.087-.583.01-.92.308-1.118.224-.147.274-.147.56 0 .21.11.315.24.315.393 0 .126.07.33.156.454.135.192.192.206.412.106.353-.16.56.032.366.343-.086.14-.098.247-.032.313.17.17.49-.008.69-.38.107-.198.316-.397.475-.453.318-.11.33-.14.177-.427-.13-.245-.034-.603.163-.603.23 0 .435.417.486.987.06.675.113.752.53.752.19 0 .38.052.42.116.106.173-.278.417-.52.33-.22-.077-1.776-.064-2.2.018-.144.03-.356-.02-.49-.115zm1.916-.34c.077-.143.065-.225-.046-.318-.213-.177-.663-.042-.663.2 0 .336.544.428.71.12zm-2.914-.11c.287-.11.35-.356.114-.446-.194-.075-.622.272-.526.427.09.145.085.145.412.02zm-35.42.28c-.01-.07 0-.19.01-.264.01-.075-.037-.2-.103-.282-.188-.224.04-.172.3.07.128.12.204.28.172.366-.032.083-.058.17-.058.194 0 .11-.308.027-.32-.085zm-3.185-.5c-.167-.294-.17-.34-.02-.566.088-.135.196-.223.24-.196.1.062.13 1.082.033 1.08-.04 0-.153-.143-.253-.32zm16.358-.246c-.153-.085-.332-.255-.398-.378l-.12-.224-.084.226c-.09.247-.298.286-.612.118-.163-.088-.237-.065-.388.122-.172.212-.22.22-.588.11-.32-.095-.427-.192-.533-.485-.102-.287-.18-.36-.352-.335-.164.023-.223.104-.226.31 0 .152-.04.31-.082.354-.103.103-.268-.167-.27-.443 0-.12-.074-.248-.163-.282-.334-.128-.07-.318.477-.342.305-.014.728-.053.94-.088.294-.048.44-.02.59.117.264.24.388.107.148-.157-.253-.28-.065-.747.282-.698.185.026.235.11.262.43.022.273.124.49.32.69l.29.288.07-.278c.143-.567.486-.7.83-.32.192.212.19.217-.1.45-.343.272-.28.46.155.46.262 0 .304.035.276.23-.04.283-.338.334-.72.124zm-1.816-.452c0-.053-.054-.214-.12-.358-.204-.448-.573-.28-.45.206.044.18.13.25.315.25.14 0 .254-.044.254-.098zm.92-.192c0-.133-.123-.222-.222-.16-.105.065-.015.245.124.245.053 0 .096-.038.096-.085zm-5.748.58c-.028-.083-.258-.132-.65-.137-.332-.004-.663-.043-.733-.087-.22-.135-.144-.55.14-.775.445-.348.67-.235.486.244-.057.15-.074.15-.19-.007-.068-.094-.177-.14-.242-.1-.13.082-.16.364-.04.377l.33.035c.142.014.336.06.433.103.133.058.208.005.305-.214.168-.38.39-.558.628-.503.32.074 1.07-.355 1.18-.677.067-.19.173-.288.312-.288.19 0 .21.062.21.724 0 .712.01.727.306.84.357.135.39.236.103.327-.37.118-1.113-.064-1.494-.367-.292-.232-.408-.27-.56-.19-.108.058-.202.183-.21.28-.01.096-.02.24-.026.32-.014.19-.232.26-.288.094zm1.7-.557c.194-.074.214-.383.035-.527-.175-.14-.625.033-.527.205.1.175.264.385.3.385.018 0 .104-.028.193-.062zm60.785.494c-.146-.273.048-.534.395-.534.286 0 .493-.155.37-.278-.032-.032-.568-.07-1.19-.08-.623-.012-1.176-.065-1.23-.118-.108-.11-.402-1.173-.402-1.46 0-.102.065-.24.145-.306.207-.17.307.036.323.67.015.62.104.815.298.654.074-.062.162-.225.197-.363.04-.162.136-.25.27-.25.267 0 .36.26.2.56-.164.306-.064.462.297.462.24 0 .33-.08.537-.486.275-.535.51-.646.805-.378.16.144.304.164.784.108.323-.038.632-.114.686-.168.173-.173.757-.115.865.086.12.227.033.378-.276.475-.307.095-.234.302.123.344.334.04.523-.102.735-.548.113-.238.242-.345.453-.376.37-.054.613.076.613.327 0 .105.09.22.2.256.244.077.617-.106.617-.302 0-.205.29-.463.52-.463.123 0 .196.07.196.192 0 .105.068.248.15.317.127.104.17.08.255-.144.13-.334.352-.427.675-.28.302.138.318.332.047.577-.24.218-.182.36.15.36.374 0 .564.106.564.317 0 .267-.423.255-1.01-.03-.32-.154-.472-.185-.5-.1-.022.065-.13.12-.24.12-.11 0-.313.073-.45.164-.276.18-.56.13-.56-.098 0-.184-.648-.313-.9-.18-.246.133-1.88.25-2.023.145-.062-.045-.158-.22-.213-.388-.055-.17-.177-.323-.27-.34-.134-.027-.17.045-.17.33 0 .415-.227.504-.41.162-.165-.308-.286-.246-.286.147 0 .452-.078.568-.385.568-.14 0-.35.113-.474.255-.263.304-.35.317-.48.074zm4.586-1.3c.102-.123.094-.164-.045-.218-.2-.078-.416.098-.317.258.095.153.214.14.363-.04zm-70.383.854c-.19-.208-.21-.953-.034-1.165.216-.26.342-.013.205.402-.12.362-.08.574.105.574.053 0 .096-.068.096-.153 0-.22.283-.188.356.042.067.21.323.35.472.258.18-.11.09-.646-.16-.943-.367-.437-.054-.636.355-.227.226.226.26.625.098 1.093-.102.297-.126.307-.72.3-.436-.007-.66-.06-.77-.18zm58.374-.535c-.168-.073-.493-.112-.722-.086-.37.04-.447.008-.69-.282-.41-.486-.382-1.04.073-1.496.337-.337.657-.426 1.024-.285.16.06.23.44.084.457l-.322.036c-.44.047-.65.55-.412.992.145.27.62.174 1.132-.23.584-.462.95-.368 1.024.26.05.428.23.432.647.015.444-.444.62-.454 1.078-.063.195.167.424.303.508.304.088 0 .262-.24.41-.57.4-.895.452-.99.56-1.024.23-.072.392.162.374.544-.034.734.086 1.164.352 1.265.135.052.246.142.246.2 0 .165-1.344.005-1.56-.184-.14-.122-.21-.13-.303-.038-.168.167-.54.15-.692-.034-.15-.18-.478-.203-.534-.035-.108.33-1.692.504-2.276.252zm.798-.478c.075-.286-.19-.374-.44-.146-.238.215-.18.357.147.357.153 0 .256-.074.292-.21zm3.625.025c.057-.172-.273-.275-.417-.13-.092.09-.084.142.032.216.18.114.33.08.384-.086zm-68.64.198c-.087-.054-.102-.155-.044-.31.075-.204.1-.213.216-.075.158.192.02.504-.173.385zm.935-.012c-.46-.186-.38-.32.176-.288.316.02.556.085.58.16.027.078-.016.105-.11.07-.082-.033-.18-.01-.218.05-.078.127-.13.128-.428.008zm-.034-.844c0-.07.045-.197.1-.28.084-.136.116-.134.265.014.093.093.138.22.1.282-.095.154-.466.14-.464-.016zm2.262-.276c.044-.132.185-.156.197-.033 0 .04-.047.092-.115.115-.067.022-.104-.015-.082-.082zm-3.583-.454c-.084-.1-.088-.167-.014-.213.06-.036.137.008.17.098.087.225-.01.295-.156.116zM.352 23.282L0 23.102v-.896c0-.874 0-.904.3-1.147.498-.407.933-.28 1.116.322.037.12.22.338.41.482.188.144.39.403.452.575.093.265.08.344-.09.514-.112.11-.266.2-.344.2-.078 0-.17.07-.2.154-.083.214-.845.2-1.288-.026zm1.33-.438c.325-.174.248-.562-.16-.815-.356-.22-.363-.22-.69-.03-.39.227-.494.616-.22.816.22.16.795.175 1.07.028zm-.74-1.402c.038-.273-.144-.3-.41-.06-.265.24-.23.36.095.322.202-.023.29-.097.314-.262zm97.408.363c-.205-.186-.42-.48-.476-.657-.1-.306-.075-.347.553-.97.55-.544.685-.632.834-.54.224.14.29.55.11.666-.075.048-.26.087-.414.088-.31.002-.694.352-.694.636 0 .112.14.254.35.354.327.155.376.155.723-.01.423-.2.665-.154.665.127 0 .292-.324.522-.825.585-.407.05-.49.023-.825-.28zm-93.813-.968c-.505-.088-.548-.122-.395-.307.097-.116.137-.45.13-1.098-.013-1.213-.032-3.485-.048-5.53-.01-.9-.01-3.454 0-5.675.01-2.22.01-4.154 0-4.294-.026-1.256-.074-2.024-.132-2.12-.038-.06-.1-.375-.134-.696L3.894.535 4.342.6c1.47.217 13.76.303 15.333.107.546-.068.587-.057.752.195.238.364.093 1.057-.21 1-.11-.022-2.683-.057-5.718-.08-3.037-.023-5.59-.047-5.674-.053-.084-.007-.43-.005-.766.005-.55.016-2.243-.065-2.54-.12-.124-.024-.144.554-.18 5.09-.01 1.293-.04 2.39-.065 2.436-.027.048-.04.66-.032 1.364-.41 1.936-.024 2.253-.06 3.792-.077 3.218-.07 3.74.065 4.933.19 1.68.2 1.582-.152 1.598-.17.008-.422-.006-.562-.03zm90.58-1.49c-.07-.084-.095-1.16-.076-3.057l.03-2.928-.388-.063c-.215-.035-.463-.035-.553 0-.09.034-.22.016-.29-.04-.07-.054-.42-.173-.78-.263-.358-.09-.73-.233-.825-.32-.095-.085-.243-.156-.33-.156-.184 0-1.922-1.52-1.922-1.682 0-.062-.165-.423-.366-.8-.3-.568-.373-.824-.408-1.45-.026-.442 0-.785.058-.82.056-.036.102-.174.102-.307 0-.323.49-1.46.786-1.823.13-.16.236-.323.236-.366 0-.04.218-.23.485-.42.267-.19.51-.372.537-.407.028-.034.197-.12.376-.193.178-.072.404-.22.5-.327.098-.107.257-.195.354-.195.097 0 .334-.066.528-.147.194-.08.66-.2 1.035-.265.376-.066.712-.166.747-.223.058-.094.065-.323.044-1.47l-.01-.366-.434.077c-.41.072-4.57.078-13.057.018l-3.73-.025-.032-.55c-.017-.304.016-.6.074-.658.11-.11 2.918-.116 5.782-.01C86.53.21 95.015.18 95.52.06c.304-.072.57-.08.725-.02.208.078.245.163.25.578 0 .267-.03.59-.08.715-.11.295-.34 3.34-.325 4.338.032 2.137.017 2.863-.07 3.325-.052.28-.07.544-.043.59.03.047.06.393.07.77.01.376.053.74.098.81.045.072.06.165.032.21-.027.043-.054.377-.06.74-.02 1.454-.022 2.61 0 2.732.053.323.044 1.654-.014 2.047-.035.24-.02.464.034.497.055.035.068.272.03.55-.043.31-.027.514.043.557.06.038.11.273.11.522v.454h-.55c-.315 0-.594-.055-.654-.128zm-.063-7.33c-.015-.522-.08-.978-.15-1.062-.096-.117-.09-.16.027-.205.125-.048.142-.347.105-1.846-.03-1.16-.01-1.81.06-1.853.058-.035.072-.117.032-.18-.08-.13-.168-.728-.154-1.046.023-.506-.02-1.706-.074-2.12-.016-.116-.705-.094-.778.024-.035.056-.175.102-.312.102-.138 0-.25.046-.25.1 0 .057-.103.092-.23.078-.15-.016-.22.025-.2.116.022.105-.053.124-.307.078-.31-.058-.387-.01-1 .61-.366.37-.768.714-.895.764-.126.05-.23.152-.23.228 0 .076-.115.246-.255.378s-.256.342-.256.465c0 .124-.07.283-.154.354-.085.072-.147.18-.137.244.01.062-.042.252-.115.42-.163.38-.164.93 0 1.125.068.08.132.33.144.555.013.26.103.498.25.652.138.15.2.31.162.412-.037.095-.015.168.05.168s.314.213.556.473c.286.308.542.484.73.505.16.017.33.1.376.184.21.374 1.49.958 2.384 1.087.28.04.543.08.58.09.04.007.06-.398.044-.9zm-1.756.15c-.198-.303-.15-.41.143-.316.265.085.35.318.173.466-.11.09-.178.06-.315-.15zm.512-.27c-.07-.114.244-.614.425-.674.135-.045.453.67.33.746-.13.08-.403-.164-.325-.292.036-.057 0-.08-.078-.054-.078.028-.135.126-.127.218.016.19-.12.224-.225.055zm-.72-.377c.114-.19-.133-.447-.36-.375-.106.034-.19.017-.19-.037 0-.053.09-.12.203-.15.113-.03.205-.015.205.032s.1.118.224.157c.168.053.28.005.455-.198.26-.304.37-.33.536-.13.144.175-.11.425-.343.336-.084-.032-.3.066-.482.22-.182.15-.294.216-.25.144zm-1.267-.277c-.072-.087-.082-.153-.024-.153.056 0 .125-.088.153-.195.04-.15.138-.192.423-.184l.373.01-.254.236c-.146.136-.32.208-.412.172-.117-.044-.143-.016-.097.104.08.206 0 .212-.164.01zm-.85-.37c-.144-.084-.158-.137-.063-.252.175-.21.247-.178.264.112.01.14.01.254 0 .252-.01-.002-.098-.05-.2-.11zm.586-.052c.034-.09.01-.228-.054-.306-.088-.106-.085-.14.01-.14.102 0 .102-.03 0-.153-.103-.124-.098-.153.027-.153.084 0 .21.07.28.154.104.126.097.154-.04.154-.18 0-.222.157-.067.253.12.073.024.36-.12.36-.055 0-.073-.074-.037-.166zm1.74-.146c-.036-.06-.04-.135-.01-.166.084-.084.373.047.373.17 0 .138-.276.135-.362-.005zm-2.49-.7c-.08-.05-.2-.07-.27-.044-.07.027-.157 0-.195-.06-.037-.06 0-.11.083-.11s.172-.057.197-.127c.03-.086.118-.047.264.118.293.33.256.435-.08.223zm3.11-.328c0-.18.08-.348.213-.44.203-.143.215-.135.223.143.01.195-.066.343-.215.44-.21.138-.22.13-.22-.144zm-2.147-.295c.102-.112.206-.183.232-.157.055.055-.236.363-.344.363-.04 0 .01-.092.113-.205zm-.518-.15c-.167-.125-.172-.15-.032-.152.09-.002.224.066.294.15.163.197 0 .2-.262.003zm1.344-.043c-.118-.13-.14-.217-.066-.262.06-.038.084-.11.053-.163-.032-.052.01-.07.083-.04.106.04.222.66.123.66-.01 0-.097-.088-.194-.195zm-1.594-.713c0-.05.068-.146.15-.215.12-.1.18-.095.302.026.083.083.123.18.088.214-.097.097-.54.075-.54-.026zm1.482-.013c-.035-.055-.01-.1.06-.1.082 0 .066-.066-.044-.188-.225-.248-.215-.426.024-.426.278 0 .574.48.414.67-.14.17-.363.193-.454.045zm-2.454-.204c-.078-.125.204-.248.355-.154.06.037.08.11.05.162-.08.126-.326.12-.406-.008zm1.176-.3c0-.05-.103-.112-.23-.134-.213-.037-.216-.047-.037-.126.204-.09.482.03.55.236.023.066-.032.12-.12.12-.09 0-.163-.042-.163-.095zm1.836-.257c.068-.083.1-.19.07-.236-.03-.047-.012-.153.04-.234.078-.128.114-.125.26.02.183.183.12.393-.117.393-.082 0-.148.046-.148.103 0 .056-.052.102-.115.102-.08 0-.078-.044.01-.15zm1.174.037c-.09-.145.107-.342.252-.252.162.1.136.363-.036.363-.08 0-.178-.05-.216-.11zm-2.65-.293c-.037-.06-.11-.084-.164-.05-.12.074-.503-.043-.503-.155 0-.046.104-.11.23-.144.23-.06.697.268.567.398-.033.033-.09.01-.13-.05zm.08-.936c-.125-.124-.056-.5.09-.5.052 0 .067-.047.032-.103-.035-.056-.017-.102.04-.102.16 0 .266.24.127.285-.09.03-.095.08-.018.17.145.177-.113.41-.274.25zm2.118-.037c-.11-.133-.09-.156.147-.156.168 0 .26.048.236.122-.062.19-.24.207-.382.035zm-.82-.127c-.425-.076-.476-.22-.122-.344.18-.064.3-.158.266-.21-.08-.13.16-.41.283-.334.054.034.257.06.452.06.28 0 .332.03.245.133-.06.072-.207.106-.328.075-.166-.044-.203-.02-.157.1.068.178-.093.385-.268.345-.064-.015-.082-.007-.04.016.042.024.077.085.077.137 0 .05-.034.087-.077.08l-.333-.06zM10.524 18.68c-.016-.016-1.06-.042-2.32-.057-1.26-.016-2.342-.06-2.404-.098-.077-.047-.1-.675-.08-1.99.037-2.097.044-6.442.012-6.922-.018-.267.02-.31.338-.383.197-.044.634-.058.97-.03.338.026 1.74.073 3.117.104 1.377.03 2.536.088 2.577.13.04.04.04.763 0 1.606-.04.843-.035 2.544.01 3.782.047 1.237.093 2.61.103 3.054l.018.805-1.157.015c-.637.008-1.17 0-1.186-.015zm-3.84-.444c0-.063.063-.09.14-.06.078.03.19.005.252-.056.08-.08.15-.076.253.008.168.14 1.05.074 1.254-.094.104-.086.178-.075.3.046.115.116.28.146.59.108.236-.03.75-.01 1.145.04.392.053.76.06.816.015.056-.044.285-.098.508-.12.58-.056.554.25.414-4.63-.034-1.182-.084-2.252-.11-2.38-.028-.128 0-.317.05-.42.066-.122.067-.313 0-.547-.088-.32-.145-.367-.53-.43-.33-.052-.457-.03-.546.09-.146.2-.246.203-.246.005 0-.17-.11-.178-3.015-.203-.955-.008-1.786.02-1.845.065-.06.045-.096.278-.08.52.03.47.037 2.21.02 5.716-.01 1.216.02 2.263.058 2.326.092.148.57.15.57 0zm3.847-4.252c-.12-.122-.065-.338.09-.338.083 0 .152.066.152.147 0 .17-.146.286-.24.19zm-.148-1.47c.024-.073.105-.154.18-.178.076-.026.114.012.09.09-.026.073-.106.153-.18.178-.077.026-.115-.013-.09-.09zm.227-.85c-.088-.225.028-.34.184-.184.092.092.093.15 0 .24-.09.09-.135.078-.186-.055zm13.066 7.026c-.07-.028-.128-.18-.128-.334 0-.332-.3-.65-.497-.527-.073.044-.117.19-.1.324.032.22-.014.25-.51.33-.484.078-.572.063-.775-.127l-.23-.216-.185.207c-.15.165-.315.206-.82.206-.348 0-.78-.05-.957-.113-.224-.077-.364-.08-.45-.008-.07.058-.41.12-.753.137-.768.037-.957-.09-.957-.65 0-.38-.016-.4-.28-.37-.26.03-.282.066-.282.49 0 .367-.037.464-.193.495-.17.034-.186-.008-.135-.323.076-.468-.173-.735-.397-.428-.078.107-.143.248-.143.312 0 .42-1.226.73-1.307.33-.026-.128.03-.18.187-.18.193 0 .213-.037.146-.28-.042-.156-.07-.417-.06-.58.01-.165-.036-.333-.102-.374-.066-.04-.09-.153-.053-.25.05-.13.137-.157.347-.108.44.103.935.392.97.566.024.13.212.157 1.05.157h1.02l.202.435c.245.527.528.58.698.127.14-.37.25-.39.372-.066.05.133.164.27.253.304.16.06.238.002.52-.392.144-.202.146-.202.15.022 0 .308.382.51.58.313.19-.19.074-.478-.242-.598-.137-.052-.232-.15-.21-.216.073-.22.25-.196.5.066.303.32.63.332.834.03.126-.184.182-.204.288-.102.107.103.08.18-.145.416-.295.308-.272.428.082.428.15 0 .267-.106.366-.332.154-.348.505-.52 1.33-.653.32-.05.4-.033.4.09 0 .086-.068.183-.152.215-.215.083-.192.346.038.42.105.032.273.15.373.26.176.195.176.21 0 .408-.18.2-.38.242-.64.137zm-5.666-.724c-.036-.314-.353-.445-.452-.187-.095.246.033.467.27.467.173 0 .208-.054.182-.28zm-2.347.043c.324-.392.11-.99-.352-.99-.193 0-.23.054-.23.332 0 .627.315.98.583.657zM16.7 16.1c-.084-.055-.263-.1-.397-.1-.134-.002-.394-.096-.58-.21-.212-.132-.36-.17-.4-.103-.142.23-.25.083-.278-.38-.03-.475-.04-.486-.392-.516-.278-.022-.417.03-.602.227-.232.248-.234.266-.066.523.147.224.223.255.486.197.238-.052.3-.035.266.07-.078.238-.73.23-.946-.01-.273-.302-.116-.893.303-1.146.515-.31.588-.327.705-.17.062.082.194.18.293.217.1.038.224.178.275.313.104.273.573.68.783.68.075 0 .19-.103.257-.23.136-.26.286-.38.474-.38.202-.003.147.278-.09.443-.208.146-.19.372.03.372.06 0 .322-.18.585-.4.38-.318.514-.38.66-.298.264.148.456.036.41-.24-.06-.348.094-.537.332-.408.106.056.273.128.372.16.25.077.22.244-.052.283-.164.024-.24.113-.262.31-.026.226.017.29.23.344.144.036.262.136.262.22 0 .123-.08.144-.37.097-.247-.04-.447-.007-.61.1-.138.09-.324.13-.424.09-.16-.06-.154-.086.066-.252.157-.12.222-.245.18-.352-.105-.276-.386-.19-.785.243-.4.433-.472.464-.715.306zm5.478-.13c-.213-.807-.22-.963-.06-1.255.18-.322.664-.505.55-.207-.034.088-.103.16-.153.16-.185 0-.085.387.113.44.263.067.263.243 0 .327-.153.05-.19.124-.146.3.04.16.01.254-.105.298-.092.035-.18.007-.2-.063zm-1.052-.095c-.285-.138-.338-.365-.167-.714.224-.46.748-.506.748-.064 0 .18-.024.19-.158.08-.13-.11-.187-.104-.32.028-.213.214-.074.417.234.34.268-.068.336.116.122.33-.144.144-.164.144-.46 0zm7.788-3.232c-.17-.103-.4-.214-.51-.246-.114-.03-.28-.088-.37-.126-.117-.047-.184 0-.225.156-.05.187-.106.212-.346.153-.325-.08-.336-.082-1.297-.04-.785.036-.964-.083-.845-.558.094-.376.34-.586.686-.586.275 0 .3.03.3.36 0 .408.212.562.474.344.133-.11.154-.267.107-.822-.044-.516-.023-.715.084-.804.236-.195.33-.032.28.49-.045.454-.028.5.223.615.424.193.46.158.437-.414-.017-.42.01-.536.13-.536.123 0 .15.126.133.61-.02.56.058.763.293.768.037 0 .115-.137.174-.306.21-.607.762-.48.66.153-.053.318-.035.346.237.377.236.027.294.084.294.29 0 .21-.055.26-.307.282-.168.016-.444-.057-.613-.16zm-2.93-.77c.026-.234 0-.283-.154-.255-.118.023-.2.143-.22.325-.027.234 0 .282.153.254.118-.022.2-.143.22-.325zm1.627.162c.027-.08-.055-.127-.22-.127-.172 0-.265.056-.265.16 0 .192.422.164.486-.033zm-3.075.307c-.026-.042-.08-.295-.12-.562-.057-.382-.114-.486-.265-.486-.118 0-.193-.072-.193-.184 0-.1-.057-.24-.127-.31-.274-.275.56-.415 1.4-.235.488.105.3.272-.263.233l-.517-.035.15.24c.083.132.18.505.215.828.052.476.035.59-.084.59-.08 0-.17-.036-.195-.078zm24.156-.52c0-.247.206-.378.744-.48.28-.052.382-.122.382-.264 0-.204-.21-.25-.927-.206-.31.02-.385-.02-.496-.262-.123-.27-.136-.276-.27-.094-.155.214-.51.276-.793.14-.235-.116-.208-.844.032-.844.084 0 .158.07.164.153.02.312.045.325.22.114.244-.295.576-.19.86.272.203.327.237.345.335.182.257-.432.494-.67.663-.67.305 0 .53.356.585.934.078.8 0 .87-1.267 1.18-.182.044-.23.012-.23-.157zm.874-1.353c.094-.153-.015-.236-.21-.16-.09.034-.136.11-.1.165.082.135.225.132.31-.006zm-8.735.577c-.096-.115-.063-.197.16-.406.265-.243.275-.283.158-.608-.07-.19-.1-.417-.066-.502.04-.106-.038-.188-.254-.263-.347-.12-.4-.266-.146-.408.11-.063.336-.033.674.09.698.256.978.457 1.017.73.03.204.1.238.566.265.42.024.597-.017.833-.19.165-.123.35-.192.412-.154.19.118.124.453-.11.58-.213.113-.215.125-.04.253.11.08.307.11.48.076.335-.068.38.06.106.308-.366.333-1.038.106-1.038-.35 0-.203-.064-.305-.222-.355-.282-.09-.514.197-.43.533.046.177.018.24-.106.24-.104 0-.19-.117-.23-.308-.072-.366-.204-.393-.35-.073-.11.244-.84.688-1.128.687-.09 0-.22-.065-.287-.145zm1.1-.92c.064-.336-.082-.673-.293-.673-.234 0-.238.022-.093.543.11.394.32.465.385.13zm3.21.895c-.17-.07.026-.444.233-.444.257 0 .165-.175-.208-.395-.197-.116-.358-.26-.358-.322 0-.138.69-.434.823-.352.15.093.115.252-.056.252-.216 0-.19.167.05.336.112.08.232.287.268.464.056.28.03.334-.21.425-.296.112-.347.116-.542.037zm7.292-.27c-.32-.322-.245-.66.197-.878.335-.165.592-.056.64.273.05.326.273.468.526.332.193-.104.205-.174.144-.836-.062-.674-.054-.72.127-.683.154.03.188.112.16.384-.043.442.067 1.03.193 1.03.054 0 .098-.07.098-.153 0-.212.24-.19.448.038.146.162.153.234.047.467-.097.214-.173.26-.336.208-.248-.08-.293-.08-1.25.01-.695.067-.746.057-.995-.192zm.5-.378c.11-.178-.052-.33-.21-.198-.08.065-.12.16-.088.21.075.12.22.114.3-.012zm3.527.508c-.085-.055-.322-.075-.527-.042-.31.05-.4.02-.536-.175-.09-.13-.164-.3-.164-.383 0-.08-.063-.22-.14-.31-.078-.088-.173-.38-.212-.647-.055-.392-.038-.498.092-.548.328-.126.477.154.407.77-.056.488-.036.598.134.753.112.1.273.153.364.118.176-.067.334-.428.232-.53-.1-.1.368-.537.574-.537.104 0 .243.12.31.267.106.235.09.287-.13.46-.213.164-.228.21-.098.295.084.055.228.102.32.103.21.002.435.264.347.406-.083.136-.77.137-.973.003zm-10.07-.1c-.034-.057-.033-.198 0-.314.045-.14.01-.254-.107-.34-.117-.085-.153-.198-.108-.34.124-.39.642-.41.54-.02-.027.103.013.27.09.37.198.263.177.518-.052.64-.246.133-.286.133-.365.004zm4.884-.61c0-.344.044-.648.092-.677.227-.14.048-.242-.323-.183-.335.054-.41.036-.41-.1 0-.096.116-.188.282-.223l.48-.1c.207-.043.834.21.938.38.034.055.015.145-.04.202-.07.068-.126.065-.17-.01-.11-.174-.447-.13-.508.068-.048.157-.02.337.156 1.048.026.103-.05.164-.23.185-.268.03-.27.023-.266-.592zm-23.672.236c-.124-.125-.07-.34.085-.34.085 0 .154.09.154.204 0 .203-.108.266-.238.136zm53.447-.066c-.132-.096-.183-.265-.178-.588.01-.585 0-1.383-.02-1.824-.02-.446.22-.55.302-.13.046.228.13.316.332.35.148.027.347.08.442.122.14.06.16.03.113-.165-.03-.13-.097-.29-.147-.352-.127-.164.137-.36.327-.24.105.064.15.28.15.734 0 .502.032.64.153.64.084 0 .167-.097.184-.218.046-.326.367-.568.7-.53.26.03.288.068.26.366-.03.29 0 .332.21.332.17 0 .337-.136.568-.463.285-.404.353-.45.53-.354.276.147.26.228-.1.494-.375.277-.387.4-.052.528.38.144.8-.04.713-.312-.083-.262.197-.71.444-.71.438 0 .568.502.197.763-.196.138-.207.177-.077.26.084.054.245.1.358.1.305.006.475.15.4.34-.076.2-.266.215-.76.058-.195-.063-.616-.106-.934-.096-.345.01-.607-.03-.65-.1-.053-.085-.36-.098-1.075-.047l-1 .072-.184-.278-.182-.278-.182.225c-.146.18-.246.213-.497.157l-.314-.07.28.516c.23.43.255.542.145.674-.16.194-.22.197-.456.025zm.535-1.562c.184-.13.207-.192.112-.307-.17-.204-.375-.178-.504.063-.108.2-.063.406.087.406.04 0 .177-.073.305-.162zm1.653-.102c0-.09-.055-.143-.12-.12-.19.062-.222.282-.04.282.088 0 .16-.073.16-.162zm-61.223 1.58c-.907-.397-1.148-.55-1.425-.9-.426-.537-.678-1.61-.5-2.135.07-.207.177-.445.24-.53.06-.084.17-.273.243-.42.305-.612.807-.96 1.8-1.243.597-.17 1.725-.09 2.307.163.42.182.982.723 1.077 1.033.035.116.128.285.207.376.08.09.173.47.207.84.1 1.07-.395 2.11-1.183 2.485-.617.293-2.565.51-2.972.332zm1.182-.437c.15-.105.324-.12.66-.06.53.098.792-.045 1.375-.756.318-.39.36-.508.36-1.02 0-.317-.043-.658-.096-.755-.053-.1-.173-.396-.268-.66-.21-.592-.88-1.1-1.462-1.107-.148-.002-.383-.067-.522-.144-.22-.124-.3-.117-.633.053-1 .51-1.72 1.217-1.72 1.69 0 .127-.045.26-.1.295-.057.034-.104.31-.104.614 0 .753.258 1.297.46.97.035-.056.158-.102.274-.102.198 0 .2.014.05.247-.154.232-.15.255.073.4.457.3.717.26.882-.14.136-.328.447-.558.614-.454.172.107.11.29-.18.52-.24.19-.258.244-.14.387.168.202.216.204.476.02zm.158-.506c-.09-.11-.093-.168-.01-.22.16-.098.313.075.213.238-.065.105-.106.102-.205-.018zm-2.362-.942c0-.18.22-.15.283.04.022.067-.032.122-.12.122-.09 0-.163-.073-.163-.162zm3.012-.048c-.097-.157.036-.26.167-.127.073.073.075.13.01.173-.057.036-.135.015-.173-.046zm-2.4-.557c0-.085.07-.154.154-.154.083 0 .153.07.153.154 0 .084-.07.153-.154.153-.085 0-.154-.07-.154-.153zm.326-.483c-.187-.188-.142-.284.136-.284.28 0 .33.118.12.292-.1.082-.168.08-.255-.008zm.698-.33c0-.182.17-.295.312-.207.073.046.07.112-.013.21-.155.187-.3.186-.3-.002zm56.18 2.33c-.036-.038-.067-.194-.067-.348 0-.153-.063-.303-.142-.333-.187-.072-.266.014-.266.288 0 .123-.03.253-.067.29-.102.102-.34-.136-.34-.34 0-.18-.367-.345-.535-.242-.05.03-.06.143-.026.25.08.252-.2.373-.425.186-.258-.214-.137-1.4.167-1.647.386-.312 1.02-.19 1.02.197 0 .1-.105.117-.408.07-.388-.063-.41-.053-.41.194 0 .21.073.285.373.384.433.143 1.73.08 1.904-.094.16-.16.434-.145.58.032.1.118.08.184-.09.33-.32.273-.265.443.14.443.194 0 .377.04.408.09.1.162-.227.333-.574.3-.266-.026-.37-.103-.49-.363-.143-.305-.493-.494-.383-.206.027.07.01.23-.037.357-.086.232-.204.29-.33.163zM57.125 7.6c-.738-.104-15.725-.144-16.184-.043-.276.06-.335.036-.412-.17-.103-.27-.072-3.72.038-4.297.054-.286.03-.42-.093-.545-.09-.09-.145-.197-.12-.237.036-.058 4.473-.064 16.275-.02l1.856.007-.055.997c-.03.548-.01 1.365.05 1.815.067.503.074 1.026.02 1.362-.064.386-.054.605.033.748.102.168.09.226-.075.35-.216.16-.406.164-1.335.032zm-13.6-.666c.168-.115.226-.112.37.02.247.222 1.815.263 1.934.05.065-.117.116-.123.228-.03.143.12 1.392.136 6.596.092 1.082-.01 1.967.02 1.967.067 0 .046.103.07.23.05.15-.02.24-.114.263-.268.044-.308.476-.28.48.032 0 .155.06.197.255.177.14-.015.633-.03 1.097-.032.948-.006 1.05-.08.982-.71-.022-.196-.037-.426-.034-.51.022-.67-.01-3.21-.04-3.24-.02-.02-.226-.008-.458.03-.272.042-.396.107-.35.18.05.086.03.086-.08.002-.08-.063-.32-.146-.53-.184-.36-.065-.383-.053-.383.19 0 .186-.055.262-.188.262-.254 0-.344-.108-.217-.26.078-.096.045-.13-.128-.134-.63-.015-1.504-.1-1.71-.165-.164-.052-.295-.01-.462.146l-.234.22-.057-.217c-.056-.212-.09-.216-1.52-.158-.806.032-1.833.055-2.282.05-3.66-.034-5.094 0-5.174.13-.063.102-.127.107-.268.02-.25-.155-2.14-.103-2.506.068-.278.13-.283.147-.286 1.06-.01 1.508-.06 2.575-.135 2.7-.16.258.132.517.628.556.745.058 1.79-.042 2.012-.194zm10.23-.136c-.038-.06.01-.137.097-.17.226-.088.296.008.117.156-.1.083-.167.088-.213.014zm-7.924-.35c0-.204.046-.37.102-.37.056 0 .106.034.11.076 0 .043.023.156.04.252.02.095-.03.228-.11.293-.118.1-.143.057-.143-.25zm6.848.192c0-.084-.053-.153-.118-.153-.068 0-.043-.084.06-.2.1-.108.24-.173.313-.145.073.028.163.002.2-.058.037-.06.134-.11.215-.11.264 0 .156.19-.204.362-.226.107-.33.217-.295.31.03.08 0 .145-.06.145s-.113-.07-.113-.153zm1.898.064c-.03-.05.064-.09.21-.09.187 0 .223.026.125.088-.176.113-.265.114-.334.002zm2.238-.106c.034-.108.01-.228-.05-.266-.063-.04-.09-.135-.06-.213.03-.08-.01-.142-.092-.142-.088 0-.123-.06-.088-.154.036-.094.183-.15.38-.145.177.003.264.03.194.058-.2.08-.15.322.09.45.12.066.175.148.12.184-.053.036-.127.146-.163.244-.094.255-.41.24-.33-.017zm-13.837-.05c-.092-.11-.06-.21.15-.46.147-.174.34-.317.426-.317.087 0 .264-.115.395-.256.13-.14.307-.255.392-.255.086 0 .23.115.324.255.11.17.26.256.445.256.344 0 .446.093.297.272-.175.21-.567.17-.63-.068-.075-.29-.782-.295-.858-.008-.037.138-.133.19-.323.178-.226-.015-.277.03-.304.264-.036.31-.137.355-.316.14zM54.62 6.4c0-.058.1-.175.223-.26.123-.087.204-.173.18-.19-.025-.02-.175-.115-.333-.214-.274-.172-.33-.453-.08-.396.216.048.54-.19.477-.35-.126-.33.05-.636.385-.668l.323-.032-.23-.23c-.422-.422-.21-.474.24-.06.185.174.247.29.167.317-.07.023-.126.106-.126.186s-.086.197-.19.263c-.106.065-.172.194-.148.285.03.112-.052.202-.244.27l-.287.102.228.196c.157.136.19.22.11.27-.09.056-.09.11.01.226.13.158.136.154-.524.34-.097.026-.178.002-.178-.055zm1.11-.228c-.176-.134-.21-.214-.13-.297.152-.15.654-.02.732.192.033.09.11.198.167.237.057.038-.037.066-.21.06-.174-.004-.425-.09-.56-.192zm-7.225-.003c-.277-.104-.267-.427.014-.48.342-.067.66.402.35.52-.07.026-.234.008-.365-.04zm-1.245-.184c0-.125.066-.213.16-.213.096 0 .15.07.13.17-.05.257-.29.292-.29.043zm4.464.128c-.14-.14-.062-.34.13-.34.255 0 .38.2.198.316-.17.108-.24.113-.328.024zm-1.193-.187c-.1-.123-.1-.185 0-.31.117-.14.15-.137.32.016.144.13.162.204.075.31-.147.177-.24.173-.396-.016zM46.48 5.82c-.077-.2.014-.293.214-.217.09.035.13.127.096.218-.077.202-.232.202-.31 0zm-3.85-.32c-.13-.13-.068-.238.135-.238.114 0 .205.068.205.153 0 .156-.217.21-.34.086zm6.94-.022c-.032-.05.015-.15.103-.223.133-.11.177-.108.25.01.047.077.064.177.036.222-.068.11-.32.104-.39-.01zm6.278-.023c-.133-.095-.13-.103.013-.057.09.03.216.002.278-.06.062-.062.147-.08.19-.038.04.042.01.118-.076.17-.19.12-.22.12-.406-.015zm-3.022-.124c-.082-.212.02-.35.158-.214.058.058.06.156 0 .246-.078.127-.103.123-.162-.03zm3.918-.192c-.023-.068-.176-.13-.34-.136-.344-.014-.465-.336-.208-.55.186-.154.582-.05.51.134-.027.073.02.19.108.263.173.142.215.412.064.412-.052 0-.112-.056-.135-.124zm-2.29-.332c.015-.286.114-.34.202-.114.03.08-.01.197-.08.26-.11.09-.135.06-.123-.146zm-1.033.076c-.07-.025-.13-.152-.13-.28 0-.13-.068-.292-.153-.362-.232-.193-.184-.307.128-.307.2 0 .365.105.567.358.157.198.237.36.18.36-.06 0-.108-.047-.108-.104 0-.056-.046-.102-.102-.102-.056 0-.102.09-.102.2 0 .224-.095.305-.28.238zm-1.592-.62c-.102-.114-.146-.23-.097-.26.148-.092.357.097.32.287-.033.16-.053.16-.222-.03zM41.39 4.25c-.03-.05.01-.117.093-.15.16-.06.296.068.187.176-.092.093-.214.082-.28-.026zm4.194-.2c-.035-.056-.015-.134.046-.17.157-.1.258.034.127.166-.073.073-.13.075-.174.005zm-2.284-.2c-.344-.164-.438-.326-.19-.326.166 0 .648.37.573.44-.028.025-.2-.025-.383-.113zm13.076-.435c.024-.074.105-.154.18-.18.076-.024.114.014.088.09-.024.075-.105.155-.18.18-.076.025-.114-.013-.088-.09zm-32.777.51c-.17-.053-.767-.087-1.33-.076-.737.014-1.09-.022-1.265-.128-.19-.114-.254-.12-.29-.02-.057.16-.65.168-.982.016-.197-.09-.3-.078-.503.054-.207.136-.34.15-.7.068-.633-.142-.92-.624-.554-.928.126-.104.17-.08.253.14.055.147.16.268.23.27.073 0 .238.03.368.064.225.06.234.043.168-.308-.057-.305-.04-.372.098-.372.092 0 .21.115.264.256.06.158.177.255.307.255.116 0 .237.07.27.154.083.22.234.19.505-.102.13-.14.31-.255.397-.255.088 0 .213.115.277.255.176.387.515.33.84-.14.152-.217.26-.456.245-.53-.04-.175.33-.257.43-.095.11.177 0 .51-.167.51-.078 0-.14.05-.14.113 0 .062.068.086.153.054.09-.035.207.024.28.142.183.292.447.25.788-.13.27-.302.32-.32.522-.196.16.097.253.104.333.025.197-.198.29-.116.222.197-.056.256-.036.307.125.307.105 0 .242-.05.303-.112.08-.08.17-.08.32 0 .31.166.395-.056.13-.338-.284-.303-.16-.408.218-.186.402.234.512.457.387.785-.097.255-.124.262-.776.215-.373-.027-.743-.104-.824-.17-.117-.098-.188-.08-.352.097-.112.12-.214.216-.226.21l-.328-.102zm.33-.478c.064-.188-.247-.156-.32.033-.043.112-.01.15.11.128.093-.018.188-.09.21-.16zm52.04.168c-.17-.17-.204-.295-.157-.58.08-.5.282-.69.565-.54.15.08.217.216.218.445 0 .18.044.396.096.478.12.19-.05.413-.315.413-.105 0-.29-.097-.408-.215zm1.622.04c-.243-.027-.437-.12-.536-.262-.204-.292-.205-.79 0-.79.092 0 .153.095.153.24 0 .332.105.403.317.21.196-.177.398-.117.398.12 0 .08.092.146.204.146.245 0 .277-.323.05-.512-.252-.21-.175-.395.194-.465.59-.11.997.258.624.567-.084.07-.154.188-.154.26 0 .18-.497.563-.703.54-.09-.008-.336-.034-.546-.056zm-6.72-.13c-.142-.047-.38-.113-.53-.146-.346-.077-.442-.366-.275-.827.127-.352.497-.518.497-.224 0 .193.577.717.704.64.06-.04.08-.203.044-.38-.054-.27-.035-.308.13-.277.27.052.392.877.166 1.134-.17.193-.338.21-.738.078zm3.327-.06c-.222-.082-.49-.226-.595-.322-.127-.115-.215-.136-.262-.064-.088.137-.947.27-1.177.18-.224-.085-.246-.86-.025-.86.082 0 .162.102.18.228.048.334.368.356.49.033.055-.144.216-.316.358-.38.213-.097.292-.086.462.068.112.102.205.293.205.425 0 .366.368.31.614-.093.11-.182.202-.427.202-.542 0-.116.07-.3.156-.41.154-.194.16-.194.32.032.09.13.27.23.406.23.156 0 .243.06.243.167 0 .13-.067.152-.32.102l-.317-.065.072.486c.04.268.137.56.216.648.08.088.144.192.144.23 0 .123-.96.058-1.373-.093zm.76-.51c0-.337-.343-.307-.39.033-.026.174.017.23.177.23.16 0 .212-.066.212-.264zM27.307 1.73c-.03-.028-.514-.057-1.08-.064-.566-.007-1.08-.044-1.145-.084-.064-.04-.12-.224-.126-.41-.01-.344.207-.602.527-.624.277-.02 1.472-.02 1.897 0 .226.01 4.043-.014 8.484-.054 4.44-.04 8.58-.065 9.2-.057 3.484.046 6.72.058 9.76.035.14 0 1.336-.03 2.657-.066 1.322-.036 3.83-.08 5.572-.098 3.956-.04 8.228-.144 8.864-.214.44-.048.486-.032.53.18l.104.503c.094.45-.103.513-1.493.485-.693-.013-2.087.023-3.1.082-1.01.058-2.736.09-3.832.074-8.41-.136-23.307-.048-24.802.145-.346.044-.737.04-.87-.008-.13-.05-.453-.064-.716-.032-.263.032-2.608.082-5.213.112-2.604.03-4.83.075-4.95.1-.117.026-.237.024-.266-.004z"/>
</svg>
