<?xml version="1.0" encoding="utf-8"?>
<svg xmlns="http://www.w3.org/2000/svg" version="1.1" viewBox="0 0 100 53">
	<title>A plan of the first floor of Styles. The building is in a horseshoe shape with a courtyard in the middle. Spare rooms surround the courtyard. The rooms of the characters face outwards.</title>
	<path d="M32.48 52.967c-.077-.077-3.665-.14-9.456-.166-3.206-.014-3.387-.024-3.493-.212-.074-.134-.094-1.172-.06-3.172.048-2.72.068-2.985.242-3.11.293-.215.314-1.167.033-1.465-.178-.19-.204-.32-.16-.81.04-.47.018-.6-.12-.674-.26-.137-1.314-.217-1.483-.112-.08.05-.197.055-.256.01-.06-.045-.38-.14-.71-.21-.562-.12-.6-.15-.6-.428 0-.23.053-.306.234-.333.41-.06 1.376.145 1.636.348.137.107.335.195.44.195.104 0 .313.056.464.124.218.1.29.096.36-.014.064-.104.143-2.723.12-3.97 0-.086-.01-1.87-.013-3.964l-.01-3.807.232-.188c.33-.267.372-1.147.074-1.525-.195-.248-.21-.393-.18-1.853.02-.873 0-1.616-.032-1.652-.036-.036-.6-.176-1.252-.312-.653-.136-1.4-.323-1.658-.416-.26-.093-.64-.156-.85-.14-.207.014-.725-.085-1.15-.22-.425-.136-.832-.26-.903-.28-.184-.045-.165-.403.028-.563.13-.108.314-.09 1.01.1.467.128.948.297 1.068.375.12.08.586.218 1.033.31.446.09 1.034.263 1.307.38.272.117.696.22.943.23l.448.016.035-5.646c.02-3.106.063-5.693.098-5.748.035-.056.01-.18-.064-.274-.1-.134-.416-.194-1.406-.27-.703-.052-1.36-.14-1.46-.196-.113-.064-.275-.065-.44 0-.14.054-.32.074-.396.045-.15-.06-.19-.394-.06-.522.043-.043.078-.18.078-.305 0-.138.06-.218.156-.208.507.056 2.07.507 2.228.644.21.18.87.43 1.146.432.14 0 .183-.085.183-.36 0-.2.097-.548.216-.775.146-.277.206-.56.184-.86-.027-.377-.073-.457-.294-.512-.16-.04-.244-.122-.216-.213.025-.08.05-1.327.055-2.768.01-1.802.045-2.666.128-2.764.098-.118 1.034-.15 5.124-.183 2.752-.02 5.074-.037 5.16-.035.086 0 .636.01 1.222.02.683.01 1.1.06 1.16.14.05.068.09.312.085.54l-.01.42-1.326-.02-1.324-.017.052 1.895c.078 2.816.063 3.534-.077 3.62-.093.057-.092.086 0 .116.11.037.144 2.23.07 4.565-.014.465-.217.69-.38.425-.046-.073-.063-1.146-.038-2.386.024-1.24.06-3.594.077-5.232l.032-2.977-.637.03c-.352.015-2.34.04-4.42.056l-3.785.028v1.93c0 2.59 0 2.57-.176 2.75-.22.218-.22 1.404 0 1.488.113.044.156.223.156.654 0 .676.115.844.575.844.32 0 1.846.31 2.564.52.466.136.942.137.942 0 0-.198.367-.097.71.196.518.443.39.64-.527.8-.35.062-.393.046-.393-.146 0-.168-.087-.23-.392-.28-.216-.037-.557-.118-.76-.18-.2-.064-.533-.103-.74-.09-.236.016-.423-.034-.508-.137-.127-.152-1.03-.477-1.326-.477-.102 0-.135.65-.148 2.895-.02 3.465-.023 3.387.118 3.475.062.038.438.047.835.018.74-.053 1.04.05 1.04.358 0 .122-.17.135-.953.077-.63-.048-.975-.034-1.02.038-.085.136-.062 4.916.024 5.002.034.034.687.223 1.45.42 2.572.663 2.452.642 2.642.455.157-.154.196-.14.484.18.172.19.295.402.273.47-.066.2-1.016.216-1.16.02-.118-.16-.47-.282-1.845-.634-.374-.096-.917-.262-1.205-.37-.29-.11-.572-.198-.63-.198-.064 0-.105.61-.106 1.605 0 1.154-.04 1.65-.138 1.767-.206.248-.188 1.12.03 1.45.162.248.177.433.115 1.46-.04.647-.08 2.438-.09 3.98l-.018 2.807 4.42.01 4.42.01.012-.365c.01-.2 0-1.233-.01-2.294-.043-4.32-.014-11.042.05-11.603.06-.54.05-.6-.125-.6-.106 0-.352.143-.547.314-.414.365-.64.4-.64.098 0-.38 1.053-1.195 1.446-1.12.14.027.182.173.204.71.038.903.037.83.01 1.304-.014.23.01.477.054.548.044.07.056.168.026.216-.058.094-.066.6-.062 3.753 0 1.107-.022 2.054-.053 2.104-.03.05-.014.116.037.148.053.032.093 2.344.093 5.3 0 2.884.01 5.776.024 6.427.023 1.194-.045 1.456-.35 1.34-.127-.05-.148-.262-.117-1.188.047-1.386.045-1.128.02-3.04l-.023-1.602-4.472-.033-4.472-.032-.01.85c-.015 1.93 0 2.705.052 2.757.03.03.28.093.554.14.945.162 1.935.4 2.054.493.065.05.33.124.59.162.258.038.702.145.984.237.475.155.524.154.64 0 .168-.23.278-.215.62.077.44.38.33.633-.295.673-.33.02-.567-.02-.68-.118-.094-.083-.36-.21-.59-.282-.23-.073-.583-.19-.784-.26-.2-.07-.554-.16-.784-.2-.366-.064-1.932-.508-2.344-.664-.118-.046-.133.03-.076.384.047.295.02.55-.08.773-.083.184-.18.547-.214.808-.056.412-.03.505.188.71l.253.238-.01 2.555-.01 2.554 3.97.056c2.183.03 4.18.063 4.44.072l.47.016v-2.174c0-1.196-.03-2.194-.07-2.217-.037-.024-.263.18-.5.453-.413.476-.437.488-.584.293-.215-.28-.203-.32.238-.77.98-1 1.39-.94 1.388.2v2.719c0 1.396.014 1.524.178 1.482.1-.025.98-.056 1.957-.068l1.777-.022-.02-2.347c-.012-1.29.02-2.413.07-2.493.155-.247.425-.047.44.325.01.188 0 .386-.01.44-.01.052-.013.71 0 1.46.017 1.663 0 2.254-.058 2.458-.043.137.49.157 4.37.157 3.875 0 4.414-.02 4.38-.157-.037-.156-.03-1.93.032-8.32.018-1.852 0-3.387-.04-3.41-.167-.104-8.59-.09-8.694.012-.065.065-.098.674-.084 1.557.013.798.012 1.897 0 2.442l-.026.99.352-.338c.343-.33.604-.436.604-.245 0 .08-.284.46-.847 1.137-.223.268-.39-.06-.4-.793-.01-.384-.03-2.06-.053-3.724-.023-1.663-.047-3.118-.052-3.233-.01-.115 0-.852 0-1.637.012-1.17.043-1.44.173-1.49.087-.032.187-.03.222 0 .035.036.054 1.115.042 2.397-.02 2.223-.013 2.335.18 2.396.34.108 8.586.12 8.653.012.033-.054.046-.383.028-.733-.017-.35-.036-2.982-.042-5.85l-.01-5.215-.47-.013c-.6-.017-6.125-.05-7.395-.043h-.96v2.295c0 1.26-.03 2.384-.064 2.493-.114.354.16.355.527 0 .42-.405.6-.333.272.11-.126.168-.23.348-.23.4 0 .16-.373.436-.59.436-.205 0-.208-.076-.2-5.4.01-4.724.026-5.396.164-5.396.157 0 .217.352.203 1.2-.042 2.61-.04 3.367.01 3.447.06.098 8.65.06 8.75-.04.028-.028.046-.865.04-1.86-.01-.994-.024-3.44-.036-5.437-.02-3.535-.026-3.63-.23-3.678-.115-.027-1.574-.036-3.243-.022l-3.034.027-.01.397c-.014.468-.186.702-.377.51-.18-.178-.245-.156-.374.126-.098.214-.085.258.088.303.386.1.23.888-.23 1.16-.68.4-.065.49 2.655.384.188-.01.288-.07.288-.175 0-.232.5-1.057.684-1.127.34-.13.484.045.41.496-.088.525-.114.556-.347.41-.218-.135-.538 0-.538.234 0 .11.135.15.51.15.46 0 .51-.023.512-.234 0-.13.113-.446.25-.704.193-.364.307-.47.508-.47.216 0 .255.046.23.26-.015.145-.13.34-.255.435-.192.146-.206.198-.09.337.116.14.1.18-.115.26-.138.053-.314.17-.39.263-.113.134-.36.167-1.28.167-.993 0-1.15.024-1.207.182-.036.1-.135.264-.22.364-.087.1-.162.377-.168.617-.012.466-.234.678-.29.277-.026-.175-.114-.25-.323-.274-.295-.034-.32 0-.438.53l-.064.29.813-.047c.447-.025.85-.05.893-.053.044 0 .024-.095-.043-.203-.162-.26.186-.884.52-.933.442-.063.37.567-.104.902-.282.2-.16.295.353.27.248-.012.574-.026.725-.032.28-.01.758-.58.84-1.004.032-.165.14-.2.64-.217.33-.01.627.02.658.07.03.05-.06.3-.203.554-.142.254-.23.49-.196.524.126.126.48.057.608-.12.073-.1.17-.15.21-.107.043.043-.05.205-.206.36l-.284.283-2.867.03c-1.577.015-2.892-.013-2.923-.063-.03-.05.15-.506.4-1.014.252-.507.435-.98.407-1.053-.034-.09-.31-.133-.85-.137-.762-.01-.788-.013-.56-.17l.24-.168-.222-.235c-.26-.274-.24-.706.03-.758.137-.026.184.034.184.234 0 .34.11.338.456-.01.314-.313.33-.386.14-.58-.275-.276-.278-.49-.012-.806.144-.17.354-.34.467-.375.112-.037.204-.14.204-.227 0-.138-.133-.154-.9-.107-.495.03-.943.098-.995.15-.108.107-.18 4.146-.075 4.25.038.04.263-.058.5-.214.61-.403.636-.247.05.313-.495.473-.706.57-.825.376-.093-.15-.1-5.06-.01-5.21.055-.09.347-.123.932-.11 1.17.026 1.113.045 1.113-.367 0-.2.043-.365.096-.365.25 0 .426.15.527.454l.11.33 2.955-.028c1.625-.016 3.096.01 3.27.058l.313.087.01 2.887c.01 1.59.046 2.923.09 2.966.082.082 6.203.07 11.41-.023 1.725-.03 3.185-.056 3.244-.056.07 0 .098-1 .08-2.973l-.03-2.972 1.125-.013c5.69-.066 8.204-.048 8.352.06.138.1.162.436.16 2.2 0 2.744-.012 2.804-.293 2.844-.24.033-1.186-.77-1.186-1.006 0-.195.365-.142.67.1.156.12.31.192.344.158.124-.123.09-3.835-.036-3.94-.097-.08-6.735-.162-8.426-.104l-.387.013.048 4.773c.027 2.625.056 4.82.064 4.876.01.057-.018.392-.058.744-.07.61-.062.64.166.688.435.09 8.462.01 8.558-.09.08-.08.13-1.97.078-2.855-.01-.144-.01-.578 0-.965.018-.62.044-.704.222-.704.224 0 .38.34.252.546-.098.156-.148 2.72-.124 6.338 0 .143 0 .95-.01 1.793-.01 1.444-.023 1.536-.223 1.6-.232.072-.5-.073-1.088-.587-.58-.507-.212-.748.38-.25.337.28.606.338.616.13 0-.072 0-.67-.015-1.33-.013-.66-.028-1.67-.033-2.243l-.01-1.043h-8.788l-.01.678c-.024 1.357-.044 1.565-.157 1.565-.08 0-.106-.478-.088-1.54.037-2.157.04-2.132-.242-2.092-.23.033-.235.065-.254 1.494-.026 2.03-.03 2.37-.024 2.607 0 .115 0 .678-.01 1.252-.02 1.81-.034 1.72.25 1.72.242 0 .25-.026.26-.797.01-.78.048-.973.18-.842.035.036.07 1.825.08 3.976.01 2.15.044 3.936.075 3.968.032.032 1.98.06 4.33.06 3.216 0 4.293-.027 4.35-.12.088-.142.03-4.1-.066-4.696-.055-.33-.032-.392.167-.455.146-.045.26-.02.316.067.098.16.064 1.77-.04 1.94-.04.06-.028.338.024.616.052.278.076.536.053.573-.023.037-.04 1.164-.038 2.505 0 2.896-.01 3.898-.06 4.155-.02.104 0 .347.042.54.042.194.05.45.018.573-.056.208-1.223 1.288-1.394 1.29-.207 0-.043-.392.23-.553.17-.1.416-.33.546-.513.228-.32.235-.4.208-2.266-.015-1.064-.042-2.1-.06-2.3-.017-.2.01-.444.058-.54.19-.373-.14-.486-1.4-.48-.647 0-2.566-.01-4.264-.018l-3.086-.024-.062 1.13c-.034.623-.045 1.39-.025 1.705.113 1.74.207 8.734.123 9.053-.03.11.813.138 4.357.152l4.394.017-.037-.935c-.05-1.23-.05-1.35-.03-2.79.012-1.02.043-1.24.182-1.292.288-.11.397.27.35 1.218 0 .086-.016.978-.027 1.982l-.02 1.825.314-.015c.172-.01.525-.027.784-.04.26-.015.895-.01 1.412.01l.942.033-.024-.306c-.013-.17-.02-.988-.012-1.82.01-.83.02-2.645.028-4.03.015-2.516.062-2.854.398-2.854.057 0 .243-.117.414-.26.486-.41 1.132-.32.843.115-.042.064-.257.18-.476.258-.22.08-.456.21-.524.292-.09.107-.128 1.002-.138 3.133-.01 1.64-.03 3.522-.05 4.182l-.038 1.2 2.143.01c1.18.01 2.366-.024 2.64-.064.27-.04.512-.054.533-.033.022.022.817.05 1.767.063 1.907.026 2.06-.017 1.885-.53-.053-.154-.076-.985-.05-1.845.024-.86.052-1.87.06-2.243l.016-.678-.294.035c-.16.02-.56.153-.89.298-.736.325-2.475.892-3.315 1.08-.353.08-.687.224-.764.33-.1.137-.275.188-.653.188-.435 0-.517-.03-.517-.195 0-.214.48-.744.673-.744.067 0 .177.054.244.12.143.143.21.125 2.692-.72.92-.313 1.908-.613 2.196-.666 1.036-.19.994-.166.994-.58 0-.217-.08-.468-.183-.583-.156-.17-.185-.434-.196-1.78-.01-.87.03-1.66.08-1.756.057-.11.05-.203-.02-.246-.062-.038-.082-.146-.046-.24.036-.094.09-.4.12-.677l.055-.505-.716.02c-.942.03-.976.024-.976-.15 0-.214.178-.25.956-.19l.695.055-.03-2.46c-.025-2.002 0-2.512.123-2.75.22-.42.227-1.117.016-1.353-.15-.168-.167-.406-.123-1.81.028-.89.046-1.956.04-2.37-.01-.622.028-.792.198-.962.306-.305.082-.356-.378-.087-.38.223-1.407.95-2.065 1.46-.168.13-.433.308-.59.394-.682.376-1.483.964-1.823 1.34-.247.27-.528.45-.846.54-.68.19-.786.04-.4-.57.267-.426.333-.472.59-.417.23.05.37-.01.658-.26.202-.176.414-.32.47-.32.09 0 .55-.287 1.564-.973.313-.21 1.536-1.01 1.83-1.195.116-.072.37-.204.566-.294.484-.22.638-.395.638-.722 0-.192-.066-.294-.216-.333-.19-.05-.213-.126-.188-.642l.028-.586-.414-.1c-.227-.053-.43-.11-.454-.127-.1-.075.23-.33.5-.383.172-.034.316-.14.338-.247.022-.103.04-.94.04-1.857v-1.67l-.81.03c-.755.03-.81.016-.81-.18s.064-.213.81-.213h.81l.01-3.96c.01-3.207.04-3.995.157-4.136.21-.25.233-1.275.033-1.473-.14-.14-.205-.138-.597.03-.242.105-.51.24-.596.302-.086.062-.322.188-.523.282l-1.36.64c-.547.258-1.162.538-1.368.624-.206.085-.547.306-.758.49-.248.217-.535.356-.814.393-.506.068-.645-.072-.496-.5.075-.214.192-.303.462-.354.2-.036.406-.04.46-.01.083.053 1.424-.56 2.565-1.17.454-.243.58-.3 1.045-.476 1.365-.514 1.62-.63 1.77-.794.092-.1.142-.206.113-.235-.03-.03-.058-.952-.064-2.05-.01-1.418-.045-2.003-.13-2.01-.066-.01-2.085-.017-4.487-.026l-4.368-.017v1.825c-.02 8.01-.035 8.5-.258 8.5-.206 0-.21-.06-.184-4.17.014-2.296.053-4.608.088-5.14l.064-.963-.298-.012c-.164-.01-.338-.01-.388 0-.05.01-1.156.014-2.458.01-4.012-.01-6.913.01-23.186.153-3.51.03-7.076.068-7.925.082l-1.543.025v-.49c0-.278.056-.524.13-.57.11-.068 3.488-.086 6.88-.038.43.01 3.538-.016 6.904-.048 3.366-.033 9.627-.078 13.913-.1 8.475-.046 16.248-.14 17.434-.212.84-.05.873-.025.873.685 0 .232-.05.408-.118.408-.084 0-.08.045.01.152.083.1.103.32.056.652-.096.69-.158 2.444-.095 2.66.03.102.117.152.205.118.098-.037.155.01.16.136.01.142.035.12.108-.078.055-.15.218-.325.362-.39.22-.1.272-.09.328.062.037.1.112.212.166.248.228.154-.45.574-1.253.777-.067.017-.1.12-.07.227.027.108-.023.258-.114.332-.107.09-.164.31-.164.64 0 .275-.054.534-.12.574-.07.044.01.125.198.204l.313.132-.027 3.48c-.016 1.912-.058 4.275-.094 5.25-.037.976-.027 1.834.022 1.907.093.14.235.142 6.856.097 2.78-.02 2.918-.03 3.056-.23.08-.113.188-.257.24-.318.3-.355.328-.545.1-.695-.36-.238-.137-.395.558-.395.542 0 .625.025.595.182-.02.106-.162.204-.34.235-.217.038-.327.13-.377.32-.04.146-.13.375-.202.508-.105.196-.103.26.012.33.173.11.94.12 1.083.014.134-.1.367-.51.367-.65 0-.203-.31-.103-.48.156-.095.143-.214.26-.265.26-.163 0-.1-.274.107-.46.11-.1.257-.318.327-.486.15-.36.413-.405.418-.07v.234l.196-.235c.108-.13.248-.236.31-.236.168 0 .14.267-.045.42-.088.07-.237.3-.332.507-.095.21-.19.413-.214.456-.022.043.156.078.395.078.413 0 .432-.014.37-.26-.115-.455.48-1.295.823-1.164.287.11.186.586-.205.976-.2.2-.366.384-.366.407 0 .075 1.095.04 1.21-.038.174-.118.258-.427.138-.502-.06-.037-.217.036-.35.16-.35.328-.45.075-.123-.31.143-.17.29-.404.328-.52.07-.218.484-.38.674-.264.135.083.144.395.014.53-.13.133-.178.692-.075.86.045.073.16.112.257.086.096-.026.398-.078.67-.115.402-.053.498-.106.498-.27 0-.117.11-.256.256-.322.18-.08.267-.215.29-.44.02-.206.09-.326.187-.326.128 0 .157.174.157.94 0 .878-.014.936-.21.91-.225-.03-4.09-.044-8.473-.032-1.495 0-4.026.038-5.624.075-2.893.067-2.905.07-2.832.287.04.12.068.29.062.376-.01.086-.02.532-.032.99-.012.478-.088.982-.178 1.178-.285.622.074.575.827-.11.267-.243.75-.606 1.07-.806.425-.265.62-.462.704-.715.103-.305.153-.343.398-.294.218.045.302.01.38-.17.06-.14.214-.24.388-.262.16-.018.288-.077.288-.13 0-.21.192-.082.256.174.083.33-.09.565-.393.534-.122-.012-.224.027-.225.088 0 .15-.73.776-.9.776-.077 0-.454.21-.84.47-.386.257-.743.47-.793.47-.127 0-1.22.824-1.316.993-.048.083.017.282.16.493.243.358.252.482.175 2.476 0 .086.017.65.044 1.252.04.897.02 1.128-.115 1.276-.11.12-.17.413-.18.886-.016.58.016.73.173.845.177.128.188.277.143 1.826l-.103 3.632c-.03 1.07-.062 1.985-.07 2.034-.01.05-.01.136 0 .193.01.058.015.644.01 1.304-.01.952-.046 1.224-.175 1.32-.19.143-.333.974-.17.974.06 0 .135-.07.168-.158.056-.146.553-.415.71-.384.038.01.126-.056.196-.14.07-.083.24-.152.376-.152.185 0 .25.058.25.223 0 .122.08.284.182.358.253.187.06.36-.434.393-.214.014-.425.084-.47.155-.043.072-.158.1-.252.065-.23-.09-.532.22-.44.453.067.17.19 4.51.16 5.603-.01.286-.06.568-.118.625-.13.13-2.11.175-2.628.06-.21-.05-.41-.06-.443-.03-.09.09-5.718.088-5.774 0-.026-.042-.2-.014-.383.063-.427.178-1.635.143-1.755-.05-.07-.116-.142-.11-.395.04-.395.233-1.005.25-.918.025.042-.108-.01-.156-.157-.156-.154 0-.2.048-.155.163.056.146-.117.155-1.636.087-1.805-.08-2.082-.08-4.786.023-1.664.064-4.746.063-5.177 0-.192-.03-.208-.106-.197-.96.01-.51.012-1.304.01-1.763 0-2.19.058-3.464.17-3.703.08-.167.226-.272.412-.294.274-.032.287-.058.27-.553-.018-.524-.188-.748-.486-.64-.17.06-.46-.173-.376-.306.034-.054.072-2.268.083-4.92.01-2.65.056-4.876.1-4.945.042-.07.187-.127.32-.127.36 0 .46-.2.4-.803-.05-.518-.068-.543-.38-.574-.303-.028-.33-.062-.347-.448-.034-.723-.043-6.02-.01-6.675l.03-.626.396-.05c.42-.057.435-.08.34-.595-.054-.282-.115-.337-.4-.365-.324-.03-.337-.05-.34-.502 0-.258.028-.61.062-.782.062-.31.063-.31.14.104.156.866.17.902.354.867.115-.022.198-.165.232-.398.06-.405-.053-1.71-.162-1.884-.076-.124-14.182-.064-14.506.06-.19.074-.37.883-.244 1.088.123.198.266.01.266-.356 0-.34.014-.35.496-.405.274-.03.568-.053.654-.048.086 0 2.94-.026 6.344-.068 4.693-.057 6.244-.046 6.42.048.143.077.194.16.133.22-.06.06-2.755.098-6.715.096-4.27 0-6.687.036-6.815.104-.172.092-.19.193-.144.784l.054.677-.324.065c-.3.06-.322.094-.293.442.025.3.08.384.267.41.13.018.243.09.253.157.03.193.07 2.188.074 3.616.01 1.677 0 1.415.042 2.96l.034 1.344-.33.137c-.314.132-.328.164-.334.747-.01.567.016.623.3.785.286.163.304.212.287.777-.01.332-.013 1.072-.01 1.646.01.574 0 1.16-.01 1.304-.013.143.017 1.2.065 2.347s.1 2.438.117 2.868c.033.92-.137 1.46-.46 1.46-.197 0-.216.064-.216.73 0 .658.02.73.207.73.455 0 .51.316.515 2.87 0 1.32.023 2.562.048 2.763.024.2 0 .42-.053.486-.072.09-1.128.108-3.99.075-2.14-.026-3.94-.04-3.997-.034-.26.033-1.36.1-2.497.15-.683.032-1.277.08-1.32.106-.043.026-.11.015-.15-.026zm30.157-.39c.078-.078-.505-.18-.67-.116-.282.11-.05.278.298.217.18-.032.35-.077.372-.1zm-31.054 0c0-.03-.024-.052-.052-.052-.028 0-.05.023-.05.052 0 .03.022.052.05.052.03 0 .053-.024.053-.053zm6.905 0c0-.03-.024-.052-.052-.052-.03 0-.052.023-.052.052 0 .03.023.052.052.052.03 0 .052-.024.052-.053zm21.864 0c0-.03-.024-.052-.052-.052-.03 0-.052.023-.052.052 0 .03.023.052.052.052.03 0 .052-.024.052-.053zm1.046 0c0-.03-.024-.052-.052-.052-.03 0-.052.023-.052.052 0 .03.023.052.052.052.03 0 .052-.024.052-.053zm1.744-.017c-.038-.038-.1-.038-.14 0-.038.038-.01.07.07.07.077 0 .108-.03.07-.07zm.837-.104c-.04-.038-.07-.01-.07.07 0 .077.03.108.07.07.037-.038.037-.1 0-.14zm3.8.122c0-.03-.024-.052-.052-.052-.03 0-.052.023-.052.052 0 .03.023.052.052.052.03 0 .052-.023.052-.052zm12.31-.122c-.04-.038-.07-.01-.07.07 0 .077.03.108.07.07.037-.038.037-.1 0-.14zm-17.873-.26c.326-.01.664-.01.75.01.087.012.37.02.628.016.26 0 2.576-.02 5.15-.037 2.572-.017 4.71-.064 4.75-.104.193-.19-.27-.226-2.612-.198-1.39.017-2.587.026-2.66.022-1.152-.078-9.644.01-9.7.1-.077.126.308.23.73.198.173-.013.75-.015 1.282 0 .84.017.97.043.98.202.012.174.014.174.06 0 .038-.144.173-.186.642-.2zm12.886.277c0-.03-.024-.052-.052-.052-.028 0-.05.024-.05.053 0 .03.022.052.05.052.03 0 .053-.024.053-.052zm-.42-.104c0-.03-.022-.053-.05-.053-.03 0-.053.024-.053.052 0 .027.024.05.052.05.03 0 .052-.023.052-.05zm.21 0c0-.03-.023-.053-.05-.053-.03 0-.053.024-.053.052 0 .027.024.05.052.05.03 0 .052-.023.052-.05zm1.78 0c0-.03-.025-.053-.053-.053-.03 0-.052.024-.052.052 0 .027.023.05.052.05.03 0 .052-.023.052-.05zm1.01-.018c-.038-.038-.1-.038-.14 0-.037.038-.01.07.07.07.078 0 .11-.03.07-.07zm-33.877-.178c.077-.05.117-.176.09-.283-.03-.106-.014-.363.034-.57.094-.42-.06-1.025-.234-.918-.065.04-.086.33-.054.727.034.427.012.694-.065.754-.143.114-1.884.133-12.463.14-10.025.01-10.695-.01-10.767-.19-.03-.08-.03-1.266 0-2.638.03-1.5.013-2.52-.046-2.556-.053-.033-.16-.036-.237-.01-.115.044-.13.56-.083 2.79.032 1.506.067 2.746.078 2.757.144.134 23.54.128 23.75-.01zm14.535-.3c0-.13.01-1.357.016-2.73.013-1.937-.013-2.513-.118-2.578-.198-.123-.248.417-.218 2.36.03 1.98.12 3.183.238 3.183.047 0 .084-.107.083-.236zm22.387.048c.036-.108-.357-.124-1.98-.083-1.112.028-2.717.057-3.566.065-.883.01-1.542.056-1.542.112 0 .06 1.37.087 3.522.07 2.76-.024 3.532-.06 3.567-.165zm.704-1.948c.002-.996.03-1.842.068-1.878.036-.037.03-.228-.015-.426-.045-.2-.04-.386.01-.416.083-.052.043-.513-.076-.882-.042-.13-.076-.123-.196.042-.08.11-.117.243-.083.298.034.055.06 1.274.06 2.708 0 1.968.025 2.578.116 2.487.082-.082.12-.704.12-1.932zm-61.668 1.874c0-.03-.023-.052-.052-.052-.03 0-.052.024-.052.052 0 .03.024.052.052.052.03 0 .052-.024.052-.052zm10.147-.105c0-.03-.025-.052-.053-.052-.03 0-.052.025-.052.053 0 .03.024.052.052.052.03 0 .052-.023.052-.052zm28.036-.834c0-.03-.023-.053-.052-.053-.03 0-.052.023-.052.052 0 .028.024.05.052.05.03 0 .052-.023.052-.05zm-.035-.54c-.037-.038-.1-.038-.138 0-.038.038-.01.07.07.07.077 0 .108-.03.07-.07zm23.016-.21c-.038-.037-.07-.01-.07.07 0 .078.03.11.07.07.038-.037.038-.1 0-.138zm-37.044-1.718c-.053-1.322-.09-1.552-.226-1.416-.08.08-.07 2.555.013 2.687.206.335.263-.01.21-1.27zm38.23-3.06c0-.03-.023-.053-.052-.053-.03 0-.052.023-.052.05 0 .03.024.053.052.053.03 0 .052-.023.052-.052zm.907-.123c-.04-.04-.103-.04-.14 0-.04.037-.01.07.07.07.076 0 .107-.032.07-.07zm-62.597-1.3c.016-.4-.01-.46-.217-.49-.138-.02-.24.023-.245.104-.02.295.034.976.086 1.06.118.19.36-.24.377-.673zm23.434-4.04c.01-2.526-.02-4.627-.063-4.668-.042-.042-.107-.045-.145-.01-.076.075-.118 9.342-.044 9.416.193.192.24-.67.25-4.74zm14.56-.225V34.95l-.24-.034c-.236-.034-.238-.025-.238 1.2-.002.678 0 2.078-.01 3.11 0 1.033 0 2.55.01 3.375.01.824-.01 1.524-.042 1.556-.1.1.174.348.348.315.15-.028.167-.52.167-4.776zm23.074 4.473c.074-.136.104-.576.08-1.147-.024-.508-.017-.925.015-.925.11 0 .014-6.29-.097-6.4-.074-.075-.11-.06-.12.043-.116 1.552-.186 8.652-.085 8.652.05 0 .143-.1.208-.22zm-61.164-1.013c.05-.082.22-10.503.182-11.278-.01-.2-.06-.404-.11-.455-.2-.2-.29.357-.31 1.91-.01.89-.04 2.604-.068 3.81-.062 2.684-.053 5.905.016 6.017.067.108.222.106.29 0zm61.28-7.918c.05-.353 0-.652-.118-.652-.1 0-.206.623-.136.808.085.223.21.145.254-.156zM43.87 29.704c-.03-1.296-.075-2.378-.102-2.406-.027-.027-.084-.016-.125.026-.08.08-.132 4.75-.055 4.893.024.046.11.03.19-.037.12-.1.135-.546.093-2.476zm37.746.61c.028-1.532-.02-1.925-.21-1.734-.088.087-.142 3.052-.063 3.44.13.652.243-.047.273-1.707zm-61.07-2.667c0-1.513-.01-1.564-.22-1.594-.24-.034-.233-.147-.155 2.88.01.272.05.34.193.313.165-.032.183-.193.183-1.6zm61.02.42c-.013-.145-.06-.262-.105-.262-.097 0-.104.132-.017.357.093.242.147.2.122-.096zM43.822 26.39c0-.378-.046-.67-.105-.67-.058 0-.108.034-.113.078-.12 1.08-.09 1.455.113 1.33.058-.036.105-.367.105-.736zm37.85-1.01c-.022-.308-.08-.443-.187-.443-.085 0-.173.086-.193.19-.06.312.08.696.25.696.126 0 .155-.1.13-.443zm-61.105-4.043c.012-2.38.03-4.99.04-5.8.02-1.514-.03-1.805-.263-1.61-.098.08-.134 1.02-.15 3.89-.01 2.08-.033 4.58-.05 5.555-.04 2.055-.01 2.37.232 2.324.152-.03.17-.47.19-4.36zm61.11 1.592c.01-.905.013-1.738.01-1.853v-1.46-3.546c-.01-1.987 0-2.926.03-3.17.033-.283-.042-.532-.16-.532-.11 0-.144.315-.156 1.486-.01.818-.043 2.99-.078 4.824-.035 1.836-.057 3.41-.05 3.495.01.086.01.532.01.99-.01.982.07 1.41.253 1.41.1 0 .136-.4.15-1.644zm13.663-.94c.043-.138.027-.235-.036-.235-.15 0-.35.398-.266.533.084.136.208.015.303-.298zm1.313-.342c0-.052-.07-.068-.156-.035s-.13.103-.097.155c.068.11.254.022.254-.12zm-55.864-.625c.132-.088.116-.135-.105-.31-.144-.112-.318-.206-.386-.207-.148 0-.284.368-.19.518.082.134.475.134.68 0zm-2.51-.624c0-.058-.022-.105-.047-.105s-.075.047-.11.104c-.036.057-.016.104.045.104.06 0 .11-.047.11-.105zm-1.16-.774c.088-.105.09-.167.01-.217-.167-.105-.42.02-.42.204 0 .2.25.208.412.013zm-16.54-6.473c.032-.382-.122-.63-.316-.51-.102.062-.112.81-.012.91.154.153.295-.02.327-.4zm-.078-2.69c0-.013.03-1.01.056-2.215.033-1.52.087-2.23.175-2.317.094-.093 1.433-.138 5.252-.174l5.728-.056c.44-.01.602-.047.602-.153 0-.08-.06-.17-.136-.197-.076-.03-1.1-.036-2.276-.015-1.177.02-3.783.06-5.79.09-2.008.03-3.67.074-3.694.098-.11.11-.23 4.11-.145 4.89.01.07.206.116.226.052zm61.14-.18c.034-.058.014-.106-.047-.106-.06 0-.11.047-.11.105 0 .058.02.104.045.104.025 0 .075-.047.11-.104zm.058-2.765c-.01-1.263-.055-2.332-.1-2.378-.093-.093.257-.09-13.89-.05-5.59.015-10.2.064-10.245.108-.28.28.426.3 9.805.295 5.315 0 10.58-.03 11.703-.06 1.122-.027 2.092-.016 2.155.025.303.2.344.544.293 2.467-.047 1.786-.036 1.952.122 1.92.158-.03.173-.262.158-2.33zm1.25 2.086c0-.03-.025-.052-.053-.052-.03 0-.052.024-.052.052 0 .03.023.052.052.052.03 0 .052-.023.052-.052zM82.11 9.5c0-.03-.023-.053-.052-.053-.03 0-.052.024-.052.052 0 .028.024.05.052.05.03 0 .052-.023.052-.05zM55.405 5.55c1.34-.012 1.62-.043 1.77-.19.165-.166-.462-.174-10.274-.128-9.46.044-11.128.09-10.496.292l.305.097c.127.04 12.11 0 18.695-.068zm20.534.09c0-.03-.025-.052-.053-.052-.03 0-.052.024-.052.052 0 .03.024.052.052.052.03 0 .052-.024.052-.052zM7.24 47.502c-.443-.12-.52-.272-.27-.522.182-.18.27-.194.748-.108.5.09.83.012.49-.118-.22-.085.023-.793.32-.928.126-.058.348-.322.493-.588.232-.424.246-.507.12-.68-.134-.18-.23-.19-1.118-.115-.534.046-1.897.073-3.028.06l-2.057-.024-.428-.395c-.594-.546-.587-.917.033-1.757.582-.788.834-.963 1.39-.963.515 0 .715.24.608.728-.076.35-.298.47-.476.257-.07-.083-.194-.15-.278-.15-.17 0-.544.4-.55.586 0 .065-.074.177-.16.248-.204.17-.202.417 0 .417.088 0 .276-.075.417-.167.237-.154.262-.154.323.01.077.2-.327.685-.57.685-.086 0-.12.035-.078.078.06.06 6.08.17 6.965.13.086 0 .957-.03 1.935-.06 3.377-.096 3.708-.08 3.55.178-.04.062-.718.098-1.703.09-.9-.01-2.002-.01-2.448-.01l-.81.01v.298c0 .172-.11.415-.26.577-.236.252-.254.335-.195.9.06.585.052.623-.155.623-.237 0-.437-.278-.437-.606 0-.298-.253-.48-.408-.292-.067.08-.14.242-.164.36-.023.116-.09.304-.15.417-.145.268-.06.296.984.323.46.012 1.154.037 1.543.056.39.02.727 0 .75-.037.05-.08 2.536-.038 2.768.046.12.042.114.086-.027.24-.16.178-.396.19-3.643.16-1.91-.018-3.522.01-3.582.052-.06.047-.26.044-.444-.01zm1.398-.99c-.038-.04-.102-.04-.14 0-.038.037-.01.07.07.07.077 0 .108-.032.07-.07zm1.37-1.47c.146-.222.14-.235-.11-.235-.24 0-.39.167-.39.434 0 .18.336.047.5-.198zm.303-.41c-.037-.037-.1-.037-.138 0-.038.04-.01.07.07.07.077 0 .108-.03.07-.07zm-.8-.086c0-.03-.025-.052-.053-.052-.03 0-.052.024-.052.052 0 .03.024.052.052.052.03 0 .052-.024.052-.052zm74.955 2.168c-.23-.024-.456-.08-.502-.126-.046-.046.06-.326.235-.623.176-.298.32-.566.32-.596 0-.03.144-.264.32-.52.175-.253.287-.514.247-.577-.04-.063-.01-.154.07-.202.287-.176-.053-.25-1.14-.252-1.007 0-1.116-.02-1.088-.184.017-.1-.024-.183-.09-.183-.07 0-.102-.1-.075-.234.066-.33 1.252-2.15 1.443-2.213.087-.03 1.97-.064 4.185-.077l4.026-.024.576-.618c.316-.34.67-.75.784-.91.173-.242.56-.513.73-.513.022 0 .11.072.198.16.14.14.135.207-.052.63-.115.26-.195.6-.177.754.026.224-.015.29-.195.315-.146.02-.27-.046-.344-.184-.145-.27-.217-.27-.67.02-.482.306-.474.41.022.33.332-.053.452-.02.706.2.285.248.294.278.133.44-.183.186-.403.13-.403-.104 0-.077-.07-.166-.156-.2-.086-.032-2.136-.06-4.555-.06-3.868 0-4.406.018-4.46.16-.12.314.13.382.575.156.24-.122.45-.174.485-.12.094.153-.948 2.036-1.15 2.076-.37.075-.398-.168-.063-.574.394-.476.412-.6.072-.516-.298.075-.444-.09-.267-.303.068-.08.104-.206.08-.278-.046-.14-.737.868-.86 1.253-.04.124-.136.29-.216.37-.125.124.04.156 1.13.215.702.038 1.724.044 2.27.014.547-.03 1.094-.057 1.216-.058.17 0 .235-.083.277-.34.068-.418.584-1.226.782-1.226.26 0 .55.21.55.4 0 .28-.605 1.04-.867 1.09-.127.026.06.052.416.06l.647.014-.057-.354c-.103-.635.397-1.215.908-1.054.345.11.265.55-.173.962-.416.39-.352.578.17.494.224-.036 2.152-.135 2.896-.148.185 0 .222-.063.21-.33-.018-.385.29-.664.452-.407.053.085.13.12.17.08.04-.04.013-.143-.06-.23-.31-.374.136-.876.685-.77.39.078.423.367.095.83-.31.437-.44.54-.834.667-.196.063-.197.075-.025.2.308.228.2.453-.18.378-.303-.06-7.92-.058-8.018 0-.135.084-.043.147.352.242.37.088.382.423.03.79-.27.28-.357.723-.225 1.126.102.31.482.32.482.012 0-.306.385-.9.633-.98.625-.197.825.344.31.837-.174.164-.315.337-.315.384 0 .106 1.88.113 1.89.01.038-.37.134-.626.31-.812.113-.12.206-.267.206-.326 0-.06.093-.19.206-.293.228-.206.527-.15.527.098 0 .196.08.197.42 0 .142-.08.32-.15.394-.152.244-.01.264.314.035.557-.123.13-.28.478-.35.774-.153.636-.275.687-1.463.603-1.013-.07-3.827-.095-4.163-.035-.144.026-.45.027-.68 0zm5.62-.473c.09-.07.197-.235.235-.364.056-.188.03-.234-.137-.234-.115 0-.277-.027-.36-.06-.212-.08-.454.58-.26.703.188.118.33.106.52-.044zm-4.634-.212c.134-.348.022-.804-.195-.804-.205 0-.423.407-.423.788 0 .354.486.366.62.016zm1.867-.55c-.103-.103-.288.054-.288.244 0 .16.013.16.175 0 .097-.097.148-.205.112-.24zm2.745-.306c0-.03-.024-.052-.052-.052-.03 0-.052.023-.052.052 0 .03.024.052.052.052.028 0 .052-.024.052-.052zm-4.27-.433c.227-.207.246-.41.043-.488-.176-.068-.48.24-.48.485 0 .223.19.223.436 0zm3.015-1.706c.214-.213.287-.626.112-.626-.12 0-.532.56-.532.72 0 .178.19.135.42-.095zm1.475-.29c.055-.143.07-.29.035-.324-.09-.09-.585.504-.515.617.096.154.374-.016.48-.293zM10.766 46.53c-.27-.324.22-1.123.688-1.123.378 0 .465.13.392.58-.092.564-.777.907-1.08.543zm1.22.086c-.13-.13-.07-.352.208-.773.25-.377.318-.417.654-.39.522.045.55.356.08.854-.335.354-.76.493-.943.31zm.665-.458c.064-.118.097-.27.074-.34-.023-.068-.122.03-.22.215-.096.187-.13.34-.072.34.057 0 .156-.098.22-.215zm1.776.397c0-.072-.09-.268-.203-.435l-.2-.305-.228.383c-.21.356-.52.52-.52.277 0-.213.54-1.13.702-1.192.09-.035.252.015.357.11.176.158.22.16.53.01.534-.258.662-.023.32.585-.29.52-.757.867-.758.567zm77.232-.156c-.19-.064-.16-.41.04-.488.19-.073.456.104.456.304 0 .145-.29.252-.497.183zm-3.708-.5c-.108-.236-.083-.3.232-.626.335-.345.753-.472.88-.268.133.215-.08.707-.4.927-.435.296-.564.29-.712-.033zm.543-.206c0-.03-.024-.052-.052-.052-.028 0-.05.023-.05.052 0 .03.023.052.05.052.03 0 .053-.024.053-.052zm-53.004-.08c-.028-.044.084-.213.25-.377.297-.298.97-1.445 1.078-1.838.045-.168.157-.214.554-.233.62-.03.723.156.4.714-.22.384-.33 1.45-.148 1.448.043 0 .166-.212.273-.472.232-.56.537-.773.772-.538.14.14.127.196-.117.515-.344.45-.344.517 0 .476.207-.026.307-.12.392-.37.062-.185.217-.44.343-.565.192-.19.256-.207.392-.094.202.168.203.29.01.668-.154.296-.123.54.055.43.05-.03.214-.325.362-.653l.268-.596.625-.013c.344-.01.625.023.625.066 0 .042-.075.255-.165.473-.13.31-.14.45-.048.652.064.14.088.285.052.32-.094.095-5.917.08-5.976-.014zm1.697-.26c.063-.044.093-.27.067-.52-.035-.347-.087-.444-.24-.444-.227 0-.41.295-.41.663 0 .23.078.298.418.366.03.01.103-.025.165-.067zm3.58-.205c.042-.273-.276-.403-.482-.198-.084.084-.124.226-.09.316.092.237.534.145.574-.12zm.336.23c0-.028-.024-.05-.052-.05-.028 0-.05.023-.05.05 0 .03.022.053.05.053.03 0 .053-.023.053-.052zm-1.588-.555c.018-.125-.015-.227-.075-.227-.14 0-.34.37-.25.458.122.12.29 0 .325-.23zm-1.193.02c.1-.26-.01-.295-.144-.047-.064.12-.073.217-.02.217.053 0 .127-.077.164-.17zm-.837-1.106c.055-.157.066-.32.023-.362-.137-.136-.432.137-.467.43-.026.23 0 .28.156.25.103-.02.233-.163.288-.32zm23.543 1.915c-.027-.027-.05-.136-.05-.242 0-.154-.052-.18-.26-.128-.36.09-.328-.06.104-.478.202-.195.366-.415.366-.49 0-.075.047-.136.105-.136.058 0 .105-.054.105-.12 0-.068.08-.21.174-.316.096-.105.18-.274.188-.375.01-.1.05-.242.093-.312.047-.076.024-.134-.057-.14-.29-.025-1.61.026-1.758.068-.22.06-.51-.136-.35-.24.184-.12 5.063.01 5.03.13-.015.064-.39.093-.94.073-.84-.03-1.12.05-.816.238.123.076.04.32-.248.733-.283.407-.316 1.408-.046 1.408.13 0 .17-.09.163-.368-.01-.28.067-.445.314-.69.178-.178.375-.29.44-.252.2.124.125.552-.154.883-.148.177-.24.368-.203.426.04.063.588.107 1.344.107h1.28l.145-.34c.08-.185.16-.36.18-.39.02-.03-.138-.052-.348-.05-.294 0-.406.054-.487.234-.057.128-.167.233-.245.233-.184 0-.18-.15.01-.307.083-.07.18-.26.216-.423.095-.428.332-.602.54-.395.128.13.22.138.46.048.355-.133.51-.03.33.222-.07.098-.18.294-.242.438-.063.143-.158.342-.21.442-.127.25-.118.288.073.288.092 0 .147.06.123.13-.034.1-.667.132-2.68.136-1.45 0-2.658-.018-2.685-.045zm1.186-.31c.108-.07.103-.114-.026-.22-.09-.075-.162-.24-.162-.37 0-.326-.246-.52-.41-.325-.16.192-.332.798-.26.913.07.114.678.114.858 0zm1.247-.915c-.1-.102-.388.165-.388.36 0 .135.045.122.23-.06.126-.127.197-.262.16-.3zm-1.032-.576c.126-.078.175-.203.144-.365-.06-.317-.368-.324-.57-.013-.27.414-.01.646.426.376zm-20.64 1.482c-.07-.112.2-.342.292-.25.038.038.07.102.07.144 0 .117-.3.205-.363.106zm22.304-.184c-.278-.072-.22-.4.14-.81.36-.41.56-.462.71-.186.127.238-.103.802-.39.955-.116.063-.226.108-.244.102-.018-.01-.116-.034-.216-.06zm.59-.406c.09-.233.083-.252-.093-.252-.088 0-.158.093-.158.208 0 .25.16.277.25.044zm1.947.27c0-.058.07-.105.156-.105s.157.048.157.105c0 .058-.07.105-.157.105-.086 0-.157-.047-.157-.105zM8.642 43.84c-.025-.07-.01-.208.044-.305.162-.314-.075-.29-.263.025-.178.3-.484.422-.484.192 0-.064.118-.255.262-.425.143-.17.26-.375.26-.455 0-.08.103-.2.228-.266.19-.1.252-.09.372.075.137.186.15.187.25.014.118-.21.41-.247.402-.052 0 .072-.143.293-.314.492-.17.198-.31.42-.31.492 0 .193-.388.38-.447.215zm.343-.754c0-.03-.024-.052-.052-.052-.03 0-.052.023-.052.052 0 .03.024.052.052.052.03 0 .052-.024.052-.052zm.564.736c-.072-.187.46-1.308.657-1.383.077-.03.257-.025.4.01.202.05.262.134.262.36 0 .582-1.147 1.463-1.32 1.013zm.755-.45c.156-.204.192-.547.058-.547-.074 0-.167.146-.414.652-.08.16.22.072.355-.104zm-6.372.356c.046-.078.265-.298.486-.49.22-.19.445-.463.5-.602.09-.24.13-.25.637-.183.66.088.742.133.676.384-.065.25-.026.246.34-.024.166-.122.355-.188.42-.148.065.04.24 0 .386-.1.166-.11.363-.15.525-.11.31.078.272.304-.06.352-.16.023-.216.085-.174.192.04.1-.013.177-.148.212-.222.058-.282.286-.104.396.18.112 0 .26-.315.26-.403 0-.447-.107-.206-.503.282-.462.065-.432-.632.087-.662.492-.897.427-.58-.16.108-.2.172-.387.144-.416-.085-.084-.365.287-.475.627-.104.325-.386.432-.41.157-.01-.086-.02-.197-.027-.247-.01-.05-.174.032-.37.182-.388.294-.76.375-.615.133zm2.124-.434c0-.03-.024-.052-.052-.052-.03 0-.052.024-.052.052 0 .03.023.052.052.052.03 0 .052-.023.052-.052zm-.94-.208c0-.03-.024-.052-.053-.052-.03 0-.052.023-.052.052 0 .03.024.052.052.052.03 0 .052-.024.052-.052zm5.812.69c-.032-.052.015-.154.105-.228.09-.075.256-.317.37-.54.193-.377.452-.59.572-.47.048.05-.196.467-.638 1.095-.175.248-.316.296-.41.142zm2.205.013c-.064-.103.456-1.212.67-1.43.177-.178.343.1.21.35-.18.333.027.262.298-.104.398-.537.455-.2.086.508-.345.658-.686.896-.558.39.09-.354-.04-.33-.367.066-.16.194-.3.284-.34.22zm-1.386-.17c-.078-.2.94-1.24 1.17-1.195.27.052.306.3.053.367-.268.07-.275.126-.037.3.17.125.167.15-.07.402-.288.304-1.017.386-1.117.126zm.8-.326c-.01-.155-.244-.126-.298.036-.03.088.02.127.128.104.096-.02.172-.083.17-.14zm2.337.326c-.09-.233.022-.482.216-.482.088 0 .16.07.16.156s.048.157.108.157c.185 0 .24-.315.102-.573-.2-.373-.066-.593.34-.554.234.023.35.094.376.23.03.156-.01.185-.182.14-.25-.065-.278.042-.09.34.107.174.095.24-.08.414-.292.29-.864.395-.95.173zm70.308-.382c-.075-.12.546-1.143.694-1.143.14 0 .114.097-.13.488-.263.426-.16.613.132.242.444-.562.512-.626.668-.626.25 0 .027.335-.51.774-.46.377-.733.46-.855.264zm1.1-.01c0-.063.166-.306.367-.54.202-.235.367-.465.367-.512 0-.13.812-.103.894.03.04.062-.03.248-.15.412-.123.164-.222.368-.222.453 0 .23-.168.29-.315.115-.167-.2-.483-.2-.56 0-.07.18-.38.214-.38.043zm1.204-.72c.035-.058-.01-.105-.1-.105-.09 0-.162.047-.162.105 0 .058.044.104.098.104.054 0 .128-.047.163-.104zm3.19.726c0-.06.118-.34.262-.624.26-.51.617-.74.888-.572.143.09-.06.365-.268.365-.164 0-.464.4-.464.618 0 .12.028.127.126.03.07-.07.194-.125.278-.125.12 0 .113.043-.037.208-.196.216-.785.292-.785.1zm1.152-.023c0-.07.142-.376.316-.677.295-.514.56-.692.644-.435.026.08.125.073.324-.017.4-.18.498-.017.153.258-.205.163-.29.324-.29.558 0 .437-.19.535-.435.226l-.2-.25-.165.235c-.182.258-.35.308-.348.104zm-56.248-.44c.023-.066.44-.094 1.09-.074l1.052.032.375-.49c.325-.422.367-.542.313-.88-.07-.43.124-.68.293-.378.12.214.386.222.466.015.033-.086.126-.157.206-.157.252 0 .16.297-.168.54-.31.228-.81 1.086-.698 1.198.032.032.53.058 1.11.058.82 0 1.052.032 1.052.142 0 .118-.456.14-2.563.12-1.685-.013-2.55-.057-2.526-.126zm-.245-.37c-.29-.076-.294-.248-.014-.57.1-.116.364-.574.59-1.02.223-.445.456-.793.517-.773.096.032.29.34.407.645.022.057.152 0 .29-.118.28-.25.65-.456.817-.456.16 0 .07.496-.2 1.095-.128.287-.292.686-.363.887-.135.377-.412.523-.612.323-.083-.083-.08-.15.01-.24.07-.07.126-.187.126-.262 0-.075.117-.322.26-.547.278-.44.205-.656-.105-.314-.24.263-.43.262-.5 0-.06-.232-.267-.282-.328-.08-.022.072-.074.225-.116.34-.043.114-.087.284-.097.378-.01.094-.11.308-.22.477-.165.25-.25.295-.464.238zm23.747 0c-.14-.087-.136-.133.022-.388.335-.543.708-1.41.708-1.647 0-.27.217-.387.584-.31l.515.105c.32.066.345.36.052.624-.147.13-.21.32-.21.623 0 .497-.243.784-.827.98-.43.143-.64.146-.847.014zm.918-.37c.285-.2.32-.673.05-.67-.245 0-.39.105-.54.39-.22.42.06.58.49.28zm.52-1.234c.11-.235.013-.482-.187-.482-.075 0-.31.478-.31.63 0 .206.39.09.498-.148zm.19 1.618c-.027-.045.204-.352.513-.683.432-.462.61-.586.768-.536.204.065.204.07.01.475-.11.223-.198.484-.198.578 0 .094-.06.15-.13.126-.073-.024-.132-.106-.132-.182 0-.226-.238-.238-.356-.018-.12.226-.395.365-.472.24zm.952-.71c-.038-.037-.1-.037-.14 0-.038.04-.01.07.07.07.077 0 .11-.03.07-.07zm.244-.19c0-.03-.023-.052-.05-.052-.03 0-.053.023-.053.052 0 .03.023.052.052.052.028 0 .05-.024.05-.052zm-22.573.766c.054-.163.29-.19.297-.036 0 .058-.073.12-.17.14-.108.023-.156-.017-.127-.104zm23.097.055c0-.036.096-.22.213-.41l.213-.342-.213-.068c-.465-.148-.15-.366.528-.366.295 0 .41.043.41.155 0 .086-.093.157-.207.157-.21 0-.525.467-.525.777 0 .09-.09.16-.21.16-.115 0-.21-.03-.21-.066zm1.696-.247c.058-.393-.183-.428-.355-.052-.065.143-.182.26-.26.26-.202 0-.173-.1.176-.615.173-.25.313-.498.313-.547 0-.05.074-.09.164-.09.117 0 .145.062.097.21-.095.3.1.258.243-.052.134-.293.252-.326.426-.117.09.11.078.176-.056.287-.096.08-.264.343-.372.587-.23.516-.442.59-.375.13zm-48.908.04c-.036-.037-.017-.16.043-.27.06-.113.086-.228.06-.256-.073-.072-7.336-.043-7.982.032-.527.06-.82-.067-.542-.237.072-.044 2.46-.098 5.306-.12 4.814-.037 5.164-.028 5.03.133-.107.13-.292.168-.726.153-.796-.03-.845-.018-.776.16.097.253-.236.58-.412.404zm-8.938-.98c-.31-.126-.224-.327.407-.953.276-.273.532-.617.57-.763.036-.147.134-.305.217-.35.083-.047.215-.27.292-.494.177-.517.372-.647.727-.486.35.16.34.312-.045.72-.172.185-.313.364-.313.4 0 .038-.166.268-.367.513-.2.245-.366.528-.366.63 0 .153.06.17.38.11.262-.048.408-.03.464.06.11.178.412-.065.412-.33 0-.222.614-.724.884-.724.1 0 .417.13.702.288.503.278.523.28.666.09.08-.11.163-.246.183-.306.02-.06.12-.077.22-.038.17.065.164.1-.06.47-.478.787-.92 1.2-.92.856 0-.058-.14-.074-.327-.037-.32.064-.325.06-.25-.275.1-.46-.165-.383-.286.083-.095.365-.394.458-.394.124 0-.24-.29-.286-.377-.06-.078.202-.284.27-1.14.37-.403.048-.803.11-.89.142-.085.03-.26.014-.39-.037zm1.193-.485c-.038-.038-.1-.038-.14 0-.038.038-.01.07.07.07.077 0 .108-.03.07-.07zm64.082.5c-.093-.056-.128-1.08-.134-3.93-.01-5.085.084-13.48.153-13.593.106-.172 1.65-.863 1.8-.805.25.096 0 .412-.45.572-.757.27-.978.495-.963.983.017.548-.123 14.092-.15 14.517l-.02.313 3.17.018c2.32.013 3.212.052 3.324.145.086.07.13.152.1.183-.03.03.01.13.092.22.254.284.38.918.212 1.058-.227.187-.41.054-.563-.412-.244-.738-.15-.717-3.44-.78l-2.968-.055.072.765c.07.752.01.953-.235.802zm-59.076-.217c-.038-.06.028-.234.147-.385.12-.15.265-.454.325-.676.112-.414.22-.466.703-.338.31.083.298.23-.026.352-.144.055-.262.166-.262.247 0 .082-.072.176-.16.21-.104.04-.15.165-.132.35.026.244-.012.293-.247.32-.152.018-.308-.018-.346-.08zm-1.31-.106c0-.087.22-.576.515-1.15.206-.402.97-.123.782.285-.1.217-.12.313-.136.627-.014.265-.3.322-.393.078-.085-.22-.324-.194-.456.052-.116.216-.314.284-.314.108zm.92-.83c.027-.08-.012-.12-.09-.093-.075.025-.158.107-.183.182-.025.078.014.117.093.09.075-.024.158-.106.183-.18zm2.39.618c.078-.39-.043-.4-.342-.026-.33.412-.42.22-.166-.362.274-.63.553-.84.797-.597.128.127.208.142.31.058.15-.124.275-.052.275.16 0 .207-.65 1.08-.802 1.08-.093 0-.115-.095-.07-.312zm1.086.16c-.188-.226.193-1.068.55-1.216.247-.102.32-.098.397.022.162.256.105.384-.218.497-.357.124-.458.493-.105.38.232-.073.282.075.08.234-.228.177-.59.22-.704.084zm1.176.07c-.1-.064-.08-.215.085-.652.288-.764.616-.994 1.038-.728.124.08.13.125.026.228-.072.07-.13.21-.13.306 0 .1-.112.205-.262.242-.263.066-.35.307-.157.426.058.036.105.11.105.163 0 .118-.523.128-.704.013zm67.76-.36c-.26-.275-.232-.542.144-1.358.288-.627.665-1.04 1.127-1.23.467-.192.875.064.875.547 0 .296-.04.35-.274.378-.21.024-.29-.024-.342-.21-.068-.237-.072-.236-.364.103-.162.188-.36.47-.437.626-.078.156-.233.387-.343.513-.202.23-.18.553.04.553.066 0 .242-.14.393-.313.292-.332.543-.41.543-.167 0 .204-.698.793-.94.793-.112 0-.302-.106-.423-.235zm1.676.12c0-.062.093-.23.207-.375.153-.196.18-.31.103-.453-.182-.34-.125-.435.216-.36.197.043.377.02.474-.06.116-.097.188-.1.275-.014.086.087.073.134-.052.182-.093.036-.365.318-.606.63-.42.544-.62.688-.62.45zm2.795.05c-.035-.034.05-.244.192-.466.34-.54.332-.706-.033-.64-.368.065-.52.19-.826.673-.29.46-.62.544-.516.132.077-.304-.075-.344-.273-.072-.074.104-.194.224-.266.267-.185.11-.168-.195.022-.384.084-.084.24-.31.35-.503.21-.375.544-.53.544-.254 0 .205.092.21.307.015.205-.186 1.776-.392 2.32-.305.368.06.398.088.338.325-.09.352.175.27.362-.113.142-.29.39-.37.464-.152.06.174-.76 1.438-.933 1.438-.162 0-.183-.168-.033-.26.175-.108.117-.366-.082-.366-.102 0-.27.14-.372.313-.102.172-.23.313-.284.313-.185 0-.1-.276.163-.522.374-.35.343-.59-.08-.594-.428 0-.57.107-.66.52-.04.18-.125.412-.19.514-.113.183-.387.248-.513.123zm3.063.018c0-.036.11-.286.247-.557.135-.27.277-.622.315-.78.046-.19.138-.286.27-.286.34 0 .352.2.04.648-.163.235-.37.546-.458.69-.152.247-.414.427-.414.284zm-39.475-5.03c-.147-.147-.06-.445.19-.64.213-.167.236-.227.12-.322-.078-.066-.28-.09-.46-.053-.282.057-.34.025-.49-.26-.09-.177-.21-.323-.263-.323-.142 0-.264.235-.23.443.057.34-.34.197-.533-.192-.22-.44-.17-.564.233-.564.458 0 .63-.103.63-.376 0-.29.105-.31.53-.09.376.193.395.43.046.59-.322.144-.33.25-.035.406.18.097.25.09.34-.032.062-.084.246-.178.408-.208.243-.046.312-.01.392.198.053.14.097.416.097.613 0 .284-.042.358-.2.358-.112 0-.296.118-.41.26-.22.28-.258.3-.366.192zm-5.13-.818c-.094-.094-.17-.255-.17-.358 0-.103-.028-.326-.062-.495-.048-.237 0-.383.22-.64.32-.38.68-.444.68-.122 0 .115-.087.294-.192.4-.27.27-.354.542-.216.708.19.23.49.167.637-.133.208-.42.45-.533.687-.32.142.128.228.146.31.064.084-.082.148-.053.233.106.158.294.303.278.427-.047.12-.318.31-.245.31.12 0 .183.082.287.29.365.277.106.28.115.084.26-.292.213-.452.19-1.283-.194-.188-.086-.268-.065-.42.108-.26.3-1.29.422-1.532.18zm1.26-.537c-.038-.037-.1-.037-.14 0-.038.04-.01.07.07.07.077 0 .108-.03.07-.07zm5.292.275c-.13-.052-.236-.17-.236-.26 0-.507.58-.81.648-.337.042.293.4.39.4.108 0-.196.183-.446.327-.446.042 0 .15.074.24.163.09.09.214.132.276.094.128-.078-.145-.377-.45-.492-.223-.086-.13-.39.12-.39.26 0 .993.784.918.98-.037.096.025.222.154.312.385.27.21.337-.722.28-.072 0-.13-.067-.132-.138 0-.242-.17-.4-.35-.332-.096.037-.17.12-.16.186.037.318-.03.38-.404.373-.216 0-.498-.05-.627-.1zm-17.602-1.56c-.3-.088-.185-.154.455-.26.377-.063.392-.08.235-.25-.092-.102-.167-.308-.167-.458 0-.565-.368-.463-.57.16-.084.257-.178.346-.397.37-.326.04-.393-.18-.124-.403.322-.266.905-1.247.84-1.414-.052-.137-.206-.16-.873-.13-.45.022-.822-.01-.837-.06-.033-.118.194-.13 3.762-.206 2.644-.056 3.11-.02 2.863.227-.035.037-.907.054-1.937.038l-1.872-.03.063.236c.047.18-.02.303-.283.522-.318.265-.338.317-.26.685.045.22.073.453.063.517-.037.227 1.2.337 1.694.15.142-.054.432-.36.644-.678.39-.583.542-.678.753-.467.083.083.19.065.387-.064.43-.282.588-.152.466.385-.056.248-.147.533-.2.633-.09.166-.032.183.634.183.567 0 .733.035.733.15 0 .082-.082.17-.183.196-.304.078-5.604.05-5.885-.033zm4.155-.312c.158 0 .214-.05.175-.15-.03-.082 0-.25.064-.374.156-.293.078-.363-.214-.19-.184.11-.243.11-.28.01-.085-.234-.247-.138-.405.24-.18.43-.11.61.205.527.123-.033.328-.06.455-.06zm-3.272-1.485c.234-.333.203-.404-.122-.28-.307.115-.465.294-.382.428.097.156.34.084.504-.148zm22.737 1.634c-.097-.097.093-.653.29-.85.096-.096.26-.365.362-.598.103-.233.258-.517.344-.63.157-.204.162-.203.378.052.214.252.223.254.375.058.186-.24.172-.26-.197-.292-.157-.013-.336-.084-.397-.157-.072-.086-.383-.133-.872-.133-.58 0-.775-.037-.82-.156-.034-.086-.132-.157-.218-.157-.378 0-.388-.624-.016-.932.223-.184.32-.083.175.185-.167.31-.14.433.09.433.215 0 .737-.487.737-.686 0-.063-.094-.2-.21-.304-.276-.25-.263-.59.034-.87.3-.28.658-.29.802-.024.15.282.135.424-.05.424-.085 0-.156-.07-.156-.156 0-.217-.246-.196-.46.04-.17.187-.166.207.068.392.135.107.28.283.32.39.07.183.09.185.263.03.29-.262.69-.27.728-.012.023.156-.084.277-.4.454-.236.133-.455.307-.486.387-.032.08-.127.147-.214.147-.096 0-.133-.06-.097-.157.092-.243-.183-.186-.444.09-.17.18-.197.262-.097.3.074.027 1.23.03 2.567.01 1.62-.027 2.433 0 2.433.067 0 .068-.485.107-1.315.107-1.273 0-1.313.01-1.247.212.05.153-.02.29-.246.502-.27.253-.302.338-.24.65.083.4.432.575.432.216 0-.227.49-.673.64-.58.166.1.097.56-.117.773-.12.12-.366.216-.575.225-.2.01-.425.02-.497.026-.072.01-.138-.107-.147-.25-.01-.144-.02-.315-.026-.38-.017-.2-.308-.247-.478-.08-.088.09-.16.282-.16.43 0 .146-.082.33-.183.405-.21.16-.21.16 3.113.15 1.99-.01 2.044-.01 2.22-.24.2-.256.242-.13.09.265l-.095.252-2.97.018c-1.635.01-3-.01-3.034-.044zm2.743-1.09c0-.057-.044-.104-.098-.104-.054 0-.128.047-.163.104-.036.058.01.105.098.105.09 0 .163-.047.163-.105zm-2.232-2.468c-.038-.038-.1-.038-.14 0-.037.038-.01.07.07.07.078 0 .11-.03.07-.07zm.628-.21c-.038-.037-.1-.037-.14 0-.038.04-.01.07.07.07.077 0 .11-.03.07-.07zm-22.448 3.42c-.122-.08-.125-.15-.017-.41.246-.595.74-.825.74-.348 0 .294-.55.87-.724.757zm.41-.48c0-.03-.024-.053-.053-.053-.03 0-.052.025-.052.053 0 .03.025.052.053.052.03 0 .052-.024.052-.052zm2.472.5c-.118-.117-.072-.24.09-.24.086 0 .157.044.157.098 0 .132-.163.226-.247.142zm-3.9-.186c-.088-.23.305-.83.57-.87.34-.05.302.395-.064.744-.336.32-.42.343-.505.126zm.59-.367c0-.056-.044-.103-.1-.103-.053 0-.126.047-.162.104-.035.06.01.105.1.105.09 0 .162-.047.162-.104zm25.755.34c.484-1.016.504-1.036 1.013-1.025.266.01.496.045.51.088.014.043-.03.29-.1.55-.09.332-.176.463-.288.44-.097-.02-.15-.128-.135-.27.042-.386-.275-.405-.568-.033-.225.288-.535.467-.432.25zm-.787-.096c-.242-.24.106-.87.482-.87.285 0 .31.197.075.576-.215.346-.404.446-.557.294zm.453-.4c0-.086-.045-.156-.1-.156-.13 0-.225.163-.14.246.116.117.24.072.24-.09zm-5.217-1.4c0-.345.042-.656.096-.69.107-.066.113-.033.135.725.01.31-.033.528-.107.553-.084.028-.123-.156-.125-.588zm-23.335-.4c-.21-.17-.213-.197-.058-.416.22-.313.4-.3.338.026-.063.328.126.34.41.026.413-.453.46-.63.228-.876-.197-.21-.2-.244-.046-.54.09-.174.257-.346.37-.382.26-.082.633.11.633.323 0 .124-.07.146-.304.095-.413-.09-.506.104-.23.477.216.29.218.314.046.59-.515.827-.947 1.038-1.388.678zm2.503.07c0-.225.978-1.138 1.218-1.138.35 0 .384.154.135.64-.188.37-.24.412-.323.265-.137-.244-.324-.217-.61.087-.263.278-.42.333-.42.146zm-1.148-.06c.01-.21.588-1.13.732-1.158.088-.017.252.037.365.12.2.146.2.153.01.367-.11.12-.26.218-.332.218-.073 0-.277.123-.454.27-.177.15-.32.232-.32.184zm.835-.713c0-.028-.024-.05-.052-.05-.03 0-.052.023-.052.05 0 .03.023.053.052.053.03 0 .052-.023.052-.052zm1.883.72c0-.036.15-.296.334-.58.276-.423.383-.51.602-.483.2.023.258.082.232.24-.02.114-.046.313-.06.442-.036.326-.113.373-.36.22-.18-.112-.245-.104-.41.045-.202.182-.338.228-.338.114zm.837-.615c0-.03-.024-.052-.052-.052-.03 0-.052.024-.052.052 0 .03.023.052.052.052.03 0 .052-.024.052-.052zm.758.604c-.274-.054-.3-.162-.078-.344.086-.072.157-.21.157-.308 0-.283.44-.633.71-.563.288.076.302.313.022.4-.284.09-.468.442-.322.617.06.073.08.164.042.202-.072.072-.137.07-.53 0zm20.688-.344c.062-.115.152-.21.202-.21.05 0 .188-.163.307-.364.154-.26.29-.365.475-.365.363 0 .38.093.115.61-.17.33-.25.408-.297.286-.09-.236-.453-.207-.52.043-.03.115-.13.21-.224.21-.137 0-.148-.04-.057-.21zm1.518-.42c.218-.428.317-.526.502-.5.193.028.225.09.202.398-.044.585-.09.652-.336.5-.17-.107-.253-.107-.424 0-.196.12-.19.09.057-.4zm.575-.102c0-.058-.073-.104-.163-.104-.09 0-.134.047-.098.104.036.057.11.104.163.104.054 0 .098-.047.098-.104zm.5.568c-.032-.032.022-.277.118-.547.174-.482.373-.626.698-.5.208.078 0 .42-.358.58-.194.09-.227.147-.136.238.066.066.12.158.12.203 0 .094-.352.115-.44.026zM6.053 26.385c-.136-.164-.013-.337.398-.556.13-.07.235-.186.235-.26 0-.074.117-.245.26-.38.145-.134.263-.303.263-.375 0-.072.117-.27.26-.44.145-.17.263-.37.263-.443 0-.074.08-.22.173-.323.166-.184.097-.19-1.96-.144-4.87.107-5.18.1-5.585-.152-.43-.265-.466-.51-.143-.963.34-.476.82-1.45.82-1.664 0-.3.393-.624.713-.587.26.03.28.063.253.475-.034.554.107.564.445.03.3-.47.77-.654 1.73-.67l.574-.01.03.45c.05.658-.064.738-1.006.715l-.804-.02-.177.366c-.255.524-.444 1.295-.366 1.497.058.15.285.172 1.816.172 1.4 0 1.724-.026 1.62-.13-.075-.074-.392-.13-.728-.13-.58 0-.596-.01-.63-.302-.02-.166.035-.448.12-.626.085-.178.218-.462.296-.632.25-.54.86-1.1 1.202-1.1.375 0 .77.26.77.508 0 .193-.36.64-.52.64-.05 0-.122-.095-.16-.21-.035-.114-.124-.208-.196-.208-.153 0-.624.51-.654.71-.01.074-.095.25-.186.387-.174.264-.22.574-.087.568.163-.01.548-.402.548-.564 0-.22.293-.33.452-.17.095.098.088.154-.033.25-.086.067-.173.233-.192.37-.04.29 0 .27.81-.384.48-.388.62-.45.907-.404.186.03.37.024.408-.014.06-.06.613-.103 1.502-.12.432-.01.446.105.07.562-.202.246-.367.525-.367.62 0 .126-.096.17-.366.17-.257 0-.368-.046-.368-.156 0-.086.047-.156.105-.156.057 0 .105-.07.105-.157 0-.086-.035-.156-.078-.156-.108 0-.654.694-.654.83 0 .122.892.133 1.718.023.553-.074.802-.33.322-.33-.154 0-.263-.037-.244-.08.02-.046.126-.327.238-.626.21-.563.477-.762.735-.548.078.065.206.11.282.1.28-.038.4.01.4.16 0 .215.282.085.346-.16.06-.227.293-.26.614-.09.17.092.2.18.15.434-.036.176-.12.385-.187.466-.067.08-.134.26-.15.4-.04.38.336.35.408-.03.08-.418.334-1.057.478-1.2.098-.098.176-.094.348.013.19.118.236.114.317-.03.122-.216.668-.22.752 0 .035.092.016.252-.04.36-.135.248-.136.547 0 .502.056-.02.208-.246.34-.504.267-.53.678-.732.563-.276-.098.39.133.457.275.08.067-.175.184-.343.26-.372.27-.103.252.254-.043.843-.31.625-.558.833-.558.47 0-.31-.178-.366-.387-.123-.112.13-.31.213-.513.213-.18 0-.39.07-.46.157-.14.17-.142.168.94.2 1.67.05 1.796.064 1.755.187-.033.095-.712.12-2.79.105-1.51-.012-2.788-.047-2.84-.08-.05-.03 0-.24.122-.467.354-.677.16-.715-.335-.066l-.462.606-.65-.048c-.732-.055-.834-.012-.597.25.152.166.15.215-.016.565-.1.21-.263.432-.36.493-.183.114-.18.23.02.887.106.355.314.486.224.142-.066-.25.44-1.025.728-1.116.22-.07.54.214.436.384-.135.217.18.173.412-.06.304-.302.505-.33.737-.098.23.23.205.396-.116.776-.228.27-.252.348-.13.425.252.162.45.055.52-.28.035-.177.155-.505.265-.73l.198-.407.71-.01c.39-.01.733.027.76.072.03.045-.044.33-.16.635-.196.512-.2.564-.04.68.096.07.222.144.28.164.06.02.08.115.043.21-.06.156-.412.172-3.725.17-3.004 0-3.68-.03-3.78-.152zm6.47-.582c.04-.348-.247-.478-.518-.234-.244.22-.25.425-.01.488.342.092.496.017.528-.255zM8.11 25.5c0-.466-.025-.524-.207-.497-.13.02-.254.168-.333.396-.145.42-.043.625.31.625.205 0 .23-.055.23-.526zm2.132.264c0-.322-.357-.363-.52-.06-.157.295-.14.32.206.32.265 0 .314-.04.314-.26zm-1.847-1.626c.22-.258.193-.317-.112-.237-.138.037-.218.135-.21.258.02.254.09.25.322-.02zM7 23.048c0-.147-.153-.36-.258-.36-.15 0-.5.357-.424.433.053.054.68-.013.68-.07zm6.364.07c.113-.073.115-.13.01-.298-.108-.172-.1-.25.043-.454.194-.277.22-.41.077-.41-.127 0-.74 1.065-.675 1.17.066.108.367.103.544-.01zm-11.675-.64c.458-.65.48-.792.14-.857-.33-.062-.585.09-.585.346 0 .113-.07.374-.156.58-.162.383-.127.6.086.53.067-.022.297-.29.513-.597zm5.936.413c0-.117.067-.343.15-.5.19-.37.03-.717-.178-.38-.07.114-.158.325-.194.47-.036.142-.1.342-.142.442-.06.14-.025.183.144.183.152 0 .22-.066.22-.214zm78.648 3.226c-.065-.04-.016-.158.123-.296.127-.126.207-.253.178-.282-.03-.03.18-.435.462-.904.283-.468.514-.934.514-1.034.002-.146.093-.183.464-.183.86 0 1.014.244.52.83-.216.255-.247.352-.15.47.17.204.097.734-.1.734-.1 0-.2-.17-.27-.468-.168-.692-.383-.66-.753.107-.208.434-.268.655-.185.687.067.026 1.615.034 3.44.017l3.316-.03.244-.304c.142-.178.293-.273.365-.23.18.114.142.29-.143.638l-.257.313h-3.83c-2.105 0-3.877-.03-3.936-.065zm1.9-2.092c.268-.286.27-.398.01-.398-.185 0-.528.353-.528.545 0 .164.312.076.52-.146zM13.8 25.828c0-.206.26-.37.426-.267.052.033.095.15.095.263 0 .146-.07.202-.26.202-.187 0-.262-.056-.262-.197zm77.34-.285c-.037-.1 0-.207.1-.262.092-.05.27-.266.4-.48.336-.564.484-.662.787-.524.184.084.322.082.517-.01.558-.254.588-.134.186.734-.154.333-.342.605-.418.605-.16 0-.18-.293-.04-.517.13-.205.022-.356-.154-.21-.078.064-.248.1-.378.083-.174-.024-.278.05-.398.28-.252.486-.484.602-.6.3zm-.865-.137c-.166-.31-.132-.484.163-.833.262-.31.695-.43.82-.227.085.135-.294.93-.527 1.105-.263.2-.327.195-.455-.045zm.605-.626c.026-.078-.013-.118-.09-.09-.077.024-.16.106-.185.18-.026.08.013.12.092.093.075-.025.158-.107.183-.182zm-1.93.57c-.068-.18.357-.98.6-1.13.27-.168.512-.01.512.33 0 .22-.104.398-.37.63-.402.352-.65.41-.74.17zm.7-.482c.1-.186.09-.212-.075-.18-.105.02-.206.117-.226.217-.05.252.157.227.298-.037zm-59.06.218c-.037-.058.01-.104.09-.104.087 0 .187.047.223.104.036.058-.01.105-.092.105-.085 0-.185-.046-.22-.104zm-14.202-2.303c-.226-.13-.235-.34-.022-.517.122-.1.19-.104.282-.013.223.223.313.126.24-.26-.04-.21-.174-.464-.3-.567-.183-.15-.204-.222-.11-.375.168-.274.43-.29.512-.028.05.157.132.208.272.17.256-.066.546.215.454.44-.038.092-.115.323-.17.513-.06.21-.23.423-.433.547-.377.23-.467.24-.726.09zm41.35-.096c0-.077.03-.108.07-.07.037.038.037.1 0 .14-.04.037-.07.01-.07-.07zm24.736-.11c-.064-.105.21-.677.37-.777.06-.036.085-.103.057-.148-.027-.045.085-.294.25-.554.166-.26.318-.56.34-.666.02-.107.118-.21.218-.23.148-.028.182.043.182.385 0 .23.046.447.102.482.056.033.31-.13.566-.365.274-.252.492-.382.532-.317.106.17.244.128.317-.1.073-.23.457-.285.648-.095.083.083.185.068.372-.055.397-.26.797-.04.45.248-.082.07-.165.25-.183.404-.023.2-.1.29-.278.314-.224.032-.24.01-.174-.287.087-.397-.07-.423-.403-.066-.167.18-.308.24-.467.197-.126-.033-.298 0-.383.068-.162.134-.694 1.187-.67 1.328.04.24-.037.343-.256.343-.39 0-.4-.103-.068-.68.382-.666.404-.837.088-.668-.182.098-.242.09-.32-.05-.118-.21-.292-.218-.292-.01 0 .088-.043.24-.096.34-.053.1-.17.35-.26.56-.16.363-.524.588-.642.396zm3.987-.013c.046-.076.235-.326.422-.555.44-.543.88-1.42.88-1.757 0-.324.138-.422.476-.338.31.078.327.276.046.53-.235.21-.933 1.396-1.107 1.877-.09.248-.185.32-.456.346-.26.025-.32 0-.26-.104zm.948.04c-.03-.046.042-.142.157-.213.19-.118.2-.11.094.085-.126.232-.174.257-.253.13zm.793-.308c.025-.223-.01-.28-.15-.256-.228.038-.234-.07-.02-.372.19-.273.415-.3.506-.064.054.14.092.145.227.034.09-.074.265-.147.39-.16.127-.016.364-.06.528-.1.256-.064.293-.046.26.122-.02.11-.14.21-.27.23-.13.018-.286.128-.348.244-.128.237-.028.42.108.2.052-.085.163-.114.27-.073.224.087.572-.202.572-.472 0-.106.07-.193.157-.193.197 0 .198.15 0 .448-.17.257-.06.57.15.44.072-.045.222-.288.334-.542.247-.555.632-.783.89-.526.157.156.148.175-.114.24-.172.043-.264.125-.233.205.03.078-.053.16-.203.197-.257.065-.342.306-.15.425.276.17.014.223-1.02.207-.97-.016-1.13-.043-1.16-.196-.018-.098.023-.247.092-.33.1-.12.094-.15-.035-.15-.088 0-.262.163-.387.364-.27.438-.437.47-.396.078zm8.87.08c0-.115.043-.21.094-.21.05 0 .165-.178.253-.396.223-.555.43-.708.756-.56.436.2.264.66-.317.852-.202.067-.416.212-.475.322-.14.26-.31.256-.31-.01zm.838-.68c0-.028-.024-.05-.052-.05-.03 0-.052.022-.052.05 0 .03.024.053.052.053.03 0 .052-.024.052-.053zm-74.745.58c-.045-.14.013-.327.165-.54.188-.263.21-.363.114-.517-.082-.13-.085-.212-.01-.258.06-.037.15-.176.2-.31.076-.2.192-.253.648-.302.305-.033.672-.057.816-.054.305.01 1.764.023 3.4.036l1.15.01.03-.74c.025-.574-.01-.77-.134-.877-.14-.117-.218-.087-.52.206-.372.36-.683.375-.683.033 0-.353 1.162-1.066 1.517-.93.166.064.187.51.154 3.346-.01 1.04-.05 1.17-.28.98-.122-.103-.144-.26-.095-.676.108-.914.272-.86-2.595-.865-1.854 0-2.583.03-2.71.123-.096.07-.328.432-.515.8-.367.727-.545.872-.652.534zM3.36 21.994c-.382-.43-.266-.56.422-.477.446.055.514.2.137.293-.153.037-.234.118-.203.2.098.255-.122.244-.356-.017zm68.203-1.777c-.014-2.51-.015-2.505.813-2.93.368-.19.744-.33.835-.31.328.062.156.332-.38.596-.3.147-.597.32-.662.386-.146.146-.227 2.02-.094 2.18.058.07.36.105.752.086 1.26-.06 4.998-.053 5.198.01.48.153.914 1.513.51 1.597-.127.028-.24-.11-.403-.487-.124-.29-.28-.57-.347-.626-.137-.113-5.667-.196-5.777-.087-.038.038-.083.364-.1.725-.02.473-.07.664-.18.687-.13.026-.155-.26-.163-1.826zm13.64 1.332c-.086-.137-.1-.132.44-.168.244-.016.444.013.444.066 0 .052-.114.095-.253.095-.14 0-.323.028-.408.06-.085.033-.186.01-.224-.052zm-40.596-.527c.043-.135-.012-.203-.206-.25-.32-.082-.337-.277-.045-.542.207-.186.226-.187.352-.016.176.24.4.23.638-.033.19-.21.188-.22-.103-.45-.268-.214-.284-.26-.165-.49.332-.64.827-.902 1.13-.6.133.133.177.606.056.606-.04 0-.148-.07-.243-.156-.153-.138-.195-.137-.374 0-.198.156-.197.162.034.325.336.238.297.398-.238.968-.307.327-.427.522-.34.554.073.027 1.098.04 2.278.03l4.917-.048c1.525-.016 2.772.012 2.772.06 0 .097-.362.106-6.412.176-3.908.045-4.107.038-4.05-.138zm15.634.08c-.59-.217-.04-.278 2.573-.282 1.526 0 2.886-.032 3.022-.066.265-.067.464.116.302.278-.114.114-5.602.18-5.896.072zm-21.39-.406c-.088-.276.257-.77.538-.77.263 0 .317.405.1.736-.207.314-.543.332-.638.034zm59.83.072c-.115-.302.01-.633.248-.667.19-.028.236.016.236.225 0 .37-.103.59-.276.59-.082 0-.175-.067-.207-.15zm-51.78-.073c-.095-.156.885-1.1 1.232-1.188.334-.084.477.104.264.347-.085.097-.187.28-.226.41-.08.264-.168.292-.348.113-.094-.094-.184-.057-.382.156-.28.303-.425.346-.54.163zm1.212-.822c0-.057-.02-.103-.046-.103s-.075.047-.11.104c-.037.06-.016.106.045.106.062 0 .112-.047.112-.105zm11.792.876c-.027-.027.157-.362.41-.744.25-.382.456-.803.456-.934 0-.22-.045-.24-.575-.24-.39 0-.575-.042-.575-.13 0-.1.516-.127 2.275-.115 2.89.02 2.873.02 2.81.124-.03.048-.563.077-1.184.065-.62-.012-1.305 0-1.52.03-.348.047-.393.086-.393.346 0 .16-.047.322-.104.358-.058.035-.105.226-.105.423 0 .473.25.474.474 0 .274-.577.757-.636.56-.07-.142.405-.38.594-.853.68-.376.066-.397.055-.458-.247-.098-.486-.29-.584-.507-.256-.1.152-.192.348-.205.436-.023.16-.41.366-.506.27zm1.39-1.448c.108-.13.093-.157-.093-.157-.126 0-.22.068-.22.158 0 .086.04.156.09.156.05 0 .152-.07.223-.156zm4.812 1.257c0-.212.205-.313.348-.17.09.09.083.145-.035.22-.222.138-.314.124-.314-.05zm-19.772-.104c0-.09.047-.162.104-.162.058 0 .105.044.105.098 0 .054-.047.128-.105.163-.058.035-.104-.01-.104-.1zm2.092.084c0-.165.59-.975.71-.975.147-.002-.08.527-.373.86-.16.18-.337.242-.337.114zm2.93-.02c0-.048.142-.214.317-.37.175-.155.362-.398.416-.54.073-.192.173-.255.413-.255.174 0 .317.016.317.038s-.096.257-.215.523c-.183.414-.25.475-.452.424-.15-.037-.29 0-.374.104-.145.173-.425.223-.425.076zm.993-.643c.034-.057.014-.103-.047-.103-.06 0-.11.047-.11.104 0 .058.02.105.045.105.025 0 .075-.047.11-.104zm3.41.588c-.09-.108-.08-.174.044-.277.2-.164.423.01.328.258-.078.2-.215.21-.372.02zm6.928-.022c-.035-.09.028-.336.14-.547.148-.283.27-.384.458-.384.22 0 .253.044.234.313-.014.197-.13.397-.314.546-.346.278-.434.29-.518.07zm.956.055c-.038-.06.01-.194.097-.295.093-.102.168-.255.168-.34 0-.087.11-.217.247-.29.2-.107.29-.105.47.01.173.11.247.11.348.01.124-.123.61-.183.61-.075 0 .144-.454.99-.53.99-.048 0-.126-.06-.172-.13-.045-.072-.188-.22-.318-.33-.227-.19-.242-.192-.444-.01-.116.104-.21.25-.21.324 0 .183-.18.28-.264.14zm-13.126-.196c0-.327.418-.945.638-.945.294 0 .242.28-.08.437-.324.156-.444.396-.2.396.214 0 .214.168 0 .25-.275.105-.358.073-.358-.14zm2.406.053c0-.083.047-.18.105-.215.056-.036.104-.015.104.046 0 .06.094.11.21.11.252 0 .287-.362.047-.496-.21-.12-.096-.405.193-.48.33-.087.49.12.237.305-.112.082-.147.15-.078.15.212 0 .137.396-.108.568-.294.205-.71.212-.71.012zm1.15.097c0-.03.147-.312.325-.626.275-.488.367-.572.627-.572.38 0 .41.264.038.357-.147.037-.24.11-.207.162.033.053-.043.15-.17.218-.203.11-.21.133-.054.22.286.16.197.294-.193.294-.2 0-.365-.024-.365-.054zm-4.916-.105c0-.03.124-.242.276-.47.214-.324.34-.416.575-.416.297 0 .418.227.194.365-.057.035-.104.178-.104.318s-.047.255-.105.255c-.058 0-.105-.047-.105-.104 0-.06-.09-.105-.203-.105-.11 0-.232.047-.267.104-.067.107-.262.144-.262.05zm.942-.573c0-.057-.068-.104-.15-.104-.084 0-.18.047-.217.104-.036.058.032.105.15.105.12 0 .217-.047.217-.105zm-3.512.23c.037-.116.018-.243-.043-.28-.06-.038-.083-.112-.05-.166.07-.114.78-.13.78-.018 0 .043-.17.214-.377.38-.33.26-.37.272-.31.086zM36.354 18.49c.506-.864.91-1.237 1.115-1.03.186.185-.042.522-.504.745-.257.124-.466.268-.466.32 0 .052-.05.095-.11.095-.062 0-.077-.06-.035-.13zm.773-.652c0-.03-.023-.052-.052-.052-.03 0-.052.024-.052.052 0 .03.024.052.052.052.03 0 .052-.023.052-.052zm62.77.73c0-.03.023-.052.05-.052.03 0 .053.023.053.052 0 .03-.024.052-.052.052-.03 0-.052-.023-.052-.052zm-62.456-.165c0-.052.095-.153.21-.225.116-.072.21-.182.21-.245 0-.163.352-.46.545-.46.264 0 .426.262.25.407-.08.067-.175.234-.21.37-.053.215-.124.248-.533.248-.26 0-.47-.043-.47-.095zm.838-.41c0-.057-.047-.103-.104-.103-.058 0-.105.047-.105.104 0 .057.046.104.104.104.058 0 .104-.047.104-.104zm20.897.377c-.225-.17-.235-.41-.026-.585.13-.108.156-.093.156.095 0 .34.306.4.534.104.236-.306.25-.547.04-.72-.25-.208-.18-.45.204-.713.4-.27.718-.265.77.013.03.15-.03.178-.31.155-.292-.023-.355.01-.383.207-.017.13.018.235.08.235.32 0-.108 1.034-.52 1.253-.247.132-.323.127-.546-.042zm2.51-.02c-.035-.035.19-.32.502-.635.444-.45.61-.557.783-.502.296.094.205.297-.168.378-.168.037-.223.073-.122.08.196.012.234.186.09.412-.072.116-.126.116-.307 0-.19-.12-.25-.106-.467.096-.136.127-.276.203-.31.17zm1.49-.133c0-.05.087-.202.193-.34.105-.136.22-.33.258-.43.043-.118.177-.183.378-.183.387 0 .5.165.28.406-.09.1-.166.286-.166.41 0 .263-.034.273-.313.1-.162-.1-.232-.1-.333 0-.15.148-.296.167-.296.038zm.884-.547c-.074-.117-.36-.123-.36-.01 0 .147.117.215.27.156.08-.03.12-.098.09-.15zm.53.533c-.036-.057.014-.257.112-.443.098-.187.21-.41.252-.496.094-.198.51-.264.667-.106.09.09.05.18-.16.363-.156.134-.344.266-.42.294-.11.04-.11.078-.01.188.072.076.13.176.13.222 0 .12-.498.103-.574-.02zM46.8 18.09c-.038-.06-.04-.14 0-.174.034-.035 1.604-.078 3.487-.095 1.884-.016 3.743-.055 4.13-.085.657-.052.707-.04.707.154 0 .2-.067.208-1.857.205-1.02 0-2.878.02-4.127.05-1.52.035-2.293.017-2.338-.056zm13.98-.356c.318-.468.747-.696.943-.5.186.185-.032.45-.583.71-.3.143-.576.26-.612.26-.036 0 .078-.212.253-.47zm.618-.114c0-.184-.225-.152-.29.04-.023.07.033.125.124.125.09 0 .166-.074.166-.165zm-14.643-.346c-.085-.056-.118-.138-.074-.182.045-.044 1.962-.09 4.26-.105 3.595-.022 4.182 0 4.182.126 0 .13-.544.15-3.74.152-2.057 0-3.905.026-4.106.056-.202.03-.436.01-.52-.047zm-.076-.877c-.03-.047-.036-.103-.015-.124.067-.067 8.46-.082 8.527-.015.035.035 0 .088-.083.116-.248.092-8.376.113-8.432.022zm-.033-.717c0-.04.05-.103.11-.14.06-.037 1.99-.075 4.29-.085 3.652-.015 4.178 0 4.178.14 0 .136-.546.156-4.29.156-2.358 0-4.288-.03-4.288-.07zm.233-.81c.025-.128.642-.15 4.213-.143 3.362.01 4.185.035 4.185.144 0 .11-.828.138-4.214.144-3.622.01-4.21-.014-4.184-.143zm-.225-.778c-.087-.105-.143-.752-.172-2.005-.04-1.714-.12-2.218-.303-1.922-.04.064-.076.937-.08 1.94-.01 1.448-.038 1.82-.15 1.82-.112 0-.14-.376-.14-1.87 0-1.824-.06-2.177-.33-1.91-.058.06-.11.9-.117 1.942-.01 1.44-.044 1.84-.15 1.84-.11 0-.135-.385-.122-1.837.014-1.47-.012-1.854-.128-1.928-.318-.2-.355-.01-.366 1.872-.01 1.043-.045 1.93-.087 1.973-.043.042-.132 0-.2-.09-.086-.12-.106-.636-.066-1.774.03-.884.036-1.69.014-1.79-.045-.2-.28-.245-.386-.074-.037.06-.07.902-.075 1.872-.01 1.375-.038 1.775-.148 1.817-.084.03-.143-.02-.146-.126v-1.927c.01-1.66 0-1.747-.193-1.747-.11 0-.224.06-.252.13-.027.073-.044.918-.037 1.88.012 1.505-.01 1.746-.143 1.72-.17-.035-.178-.14-.198-2.403-.01-1.024-.04-1.24-.18-1.293-.092-.035-.206 0-.254.077-.048.078-.063.953-.033 1.946.034 1.124.016 1.804-.047 1.804-.265 0-.32-.344-.316-2.015 0-.964-.023-1.778-.054-1.81-.03-.03-.11-.023-.172.016-.078.05-.11.666-.103 1.897.01 1.004-.012 1.85-.043 1.882-.03.03-.134.026-.228-.01-.153-.06-.17-.275-.136-1.9l.036-1.832-3.4.01c-3.272.01-3.865-.04-3.608-.297.172-.17 12.3-.143 12.578.03.093.056.127.56.123 1.845 0 .97.024 1.814.06 1.873.045.07 1.434.098 4.114.08l4.047-.028v-1.947c0-1.07.024-1.97.053-2 .03-.03 2.69-.084 5.91-.122 3.222-.037 5.975-.07 6.12-.07.512-.01.627.022.627.166 0 .08-.073.173-.164.208-.09.034-1.593.065-3.342.068H61.09l.01 1.883c0 1.15-.036 1.924-.1 1.99-.214.212-.323-.032-.28-.624.064-.876.053-3.166-.015-3.276-.033-.054-.124-.04-.207.028-.12.1-.144.48-.122 1.987.025 1.708.012 1.863-.154 1.863-.167 0-.178-.154-.142-1.923.034-1.67.018-1.93-.124-1.985-.325-.125-.376.144-.392 2.05-.01 1.338-.052 1.91-.138 1.94-.153.05-.15.108-.124-2.09.02-1.788.015-1.852-.186-1.852-.177 0-.22.092-.275.6-.035.33-.044 1.222-.02 1.982.025.76.01 1.405-.038 1.433-.173.107-.284-.23-.257-.78.027-.54.065-2.82.052-3.104 0-.072-.117-.13-.252-.13-.23 0-.25.047-.303.756-.03.415-.043 1.33-.025 2.034.025 1.015 0 1.277-.11 1.277-.076 0-.17-.048-.207-.107-.037-.06-.06-.975-.054-2.034l.013-1.927h-.253c-.223 0-.26.058-.31.496-.033.27-.05 1.163-.04 1.98.017 1.36 0 1.487-.167 1.487-.172 0-.183-.127-.144-1.71.048-1.96.016-2.254-.247-2.254-.103 0-.206.06-.23.13-.022.073-.04.94-.036 1.93 0 1.614-.013 1.8-.17 1.8s-.175-.194-.172-1.9c0-1.045-.038-1.913-.087-1.928-.293-.092-.343.18-.357 1.954-.01 1-.035 1.898-.06 1.992-.04.156-.447.173-4.316.186-3.654.012-4.288-.01-4.398-.14zm-36.014-.247l-1.534-.03-.07-.31c-.07-.323-.062-.34.652-1.403.186-.276.308-.548.273-.605-.04-.064-.426-.08-1.016-.038-.524.035-1.707.095-2.63.13-1.89.076-1.905.07-2.007-.685-.03-.23-.098-.42-.148-.42-.05 0-.092-.092-.092-.203 0-.14.084-.21.272-.234.223-.027.303-.126.445-.552.128-.383.275-.587.565-.782.508-.34.844-.354 1.177-.046.258.238.262.258.096.51-.196.3-.337.334-.424.106-.083-.213-.344-.197-.426.026-.037.1-.2.38-.363.62-.162.24-.295.485-.295.547 0 .2.187.118.403-.176.19-.255.235-.27.436-.15.268.165.467.04.566-.354.062-.244.105-.26.664-.24.76.027.828.054.905.362.08.322.2.32.458-.01.114-.144.308-.26.433-.26.126 0 .308-.042.405-.093.21-.11.856-.03.856.107 0 .053-.1.133-.226.18-.158.057-.188.107-.1.162.223.137-.077.38-.392.315l-.275-.057.235.174c.388.286.298.46-.235.46-.26 0-.47-.043-.47-.098 0-.055.095-.262.213-.46.248-.42.105-.624-.185-.264-.667.826-.853.98-1.043.86-.104-.066-.178-.207-.164-.314.014-.106 0-.31-.034-.455-.058-.252-.064-.254-.208-.058-.082.11-.15.312-.15.446 0 .308-.298.436-.47.202-.158-.215-.404-.223-.575-.017-.07.087-.238.158-.372.158-.133 0-.27.047-.307.104-.04.068.622.108 1.904.114 1.082.01 2.415.023 2.962.04 1.182.034 2.07-.067 1.7-.192-.303-.104-.297-.243.04-.89.247-.474.315-.533.616-.533.502 0 .598.185.365.703-.107.24-.293.495-.412.57-.12.075-.217.17-.217.214 0 .044.612.08 1.36.08 1.175 0 1.36-.024 1.36-.168 0-.093.1-.308.224-.48.124-.174.24-.46.262-.638.05-.422.19-.56.4-.39.088.075.16.2.16.28 0 .078.047.142.105.142.056 0 .103-.063.103-.14 0-.22.35-.487.51-.39.17.105.09.403-.27 1.026-.297.507-.578.596-.53.167.038-.355-.202-.443-.326-.12-.052.137-.17.31-.26.386-.312.258-.057.32 1.247.303.715-.01 1.33.012 1.365.047.236.237-.275.272-3.375.232-2.087-.027-3.378 0-3.502.062-.107.058-.195.198-.195.314 0 .116-.09.306-.2.423-.163.176-.18.272-.097.543.057.182.115.4.13.487.022.112.22.173.7.215.83.073.96.035.87-.254-.113-.378-.21-.4-.54-.123-.528.444-.918.047-.566-.576.274-.486.96-.557.96-.1 0 .292.15.267.294-.048.134-.294.542-.356.743-.114.157.186.05.62-.21.852-.25.228-.254.357-.01.357.2 0 .397-.31.588-.926.158-.51.435-.65.682-.35.24.29.295.29.592.012.13-.122.307-.195.393-.162.133.05.125.138-.06.613-.12.304-.225.65-.236.767-.043.445-.124.47-1.463.45-.706-.01-1.326 0-1.378.024-.053.023-.787.03-1.632.014zm-.166-.5c.096-.095-.254-.88-.393-.88-.164 0-.404.575-.325.78.058.153.593.227.72.1zm4.37-.123c0-.27-.124-.403-.434-.48-.243-.058-.292-.025-.393.262-.063.18-.114.344-.114.364 0 .02.212.037.47.037.38 0 .47-.036.47-.182zm-2.787-.704c.035-.092 0-.156-.082-.156-.078 0-.17.07-.202.156-.035.092 0 .157.082.157.078 0 .17-.07.202-.157zm1.085.094c-.035-.035-.125-.038-.2-.01-.083.034-.06.058.063.063.11 0 .172-.02.137-.055zm-2.482-.85c0-.157-.38-.175-.474-.02-.037.06-.04.178-.01.263.05.127.096.13.27.022.117-.073.212-.19.212-.263zm-5.022-1.12c0-.03-.023-.053-.052-.053-.03 0-.052.023-.052.05 0 .03.024.053.052.053.03 0 .052-.023.052-.052zm6.883-.08c.173-.206.272-.703.14-.703-.115 0-.43.528-.43.724 0 .15.16.137.29-.022zm70.637 2.686c0-.086.035-.162.078-.17.043-.01 1.28-.022 2.746-.034 1.47-.012 2.82-.056 3.003-.098.257-.06.384-.18.55-.52.118-.244.215-.475.215-.515 0-.124-.295-.076-.34.058-.024.07-.157.13-.296.13-.185 0-.294.096-.403.342-.135.304-.398.437-.555.28-.032-.03.054-.254.19-.494.137-.24.296-.547.355-.68.11-.248.497-.28.446-.04-.035.168.28.152.602-.03.143-.083.32-.152.392-.154.205-.01.154.57-.07.77-.258.234-.365.666-.21.853.09.108.092.183.01.286-.09.112-.8.145-3.412.158-2.868.014-3.296 0-3.296-.14zm.578-.465c-.034-.055.085-.3.264-.547.367-.505.622-1.056.622-1.347 0-.173-.085-.197-.684-.197-.542 0-.732-.044-.91-.21l-.228-.21.373-.307c.205-.168.548-.6.762-.958.356-.597.375-.663.213-.78-.116-.086-.443-.117-.95-.09-.62.03-.773.01-.773-.112 0-.083.094-.15.21-.15.114 0 .21-.047.21-.104 0-.058-.095-.104-.21-.104-.287 0-.265-.105.13-.627.187-.246.468-.616.623-.823.156-.206.287-.422.292-.48.014-.182.46-.63.755-.756.232-.098.314-.09.445.04.206.205.21.173-.138.917-.38.81-.486 1.314-.278 1.314.187 0 .367-.32.367-.653 0-.16.095-.3.263-.39.384-.204.428-.062.146.47-.206.39-.226.492-.108.565.19.12.044.345-.18.277-.095-.03-.348-.014-.56.035-.445.102-.524.01-.37-.436.243-.708-.197-.794-.655-.13-.18.258-.293.47-.254.47.038 0 .015.066-.052.147-.207.25.026.29 1.784.306 1.92.018 1.736.104 2.457-1.158.37-.646.378-.65.84-.65.59 0 .698.21.31.614-.238.247-.263.33-.173.566.058.152.08.34.05.42-.077.2.37.297.994.214l.507-.067.448-.87c.247-.48.503-.89.57-.916.193-.074.665.047.796.204.092.11.09.223-.01.464-.156.374-.927 1.037-1.213 1.042-.186 0-.187.01-.013.11.102.06.16.148.13.196-.03.05-1.172.073-2.538.054-2.92-.04-3.12-.02-3.315.353-.078.15-.246.39-.372.534-.334.38-.59.956-.547 1.226.04.23.067.235 1.497.235 1.382 0 1.85-.107 1.144-.26-.444-.1-.43-.524.032-.972.37-.358.607-.416.792-.193.157.19.036.287-.26.213-.192-.048-.27 0-.368.21-.154.337-.075.43.225.27.323-.17.495.01.337.355-.153.336-.122.344 1.336.364 1.496.02 2.092-.058 2.092-.276 0-.09.118-.315.262-.503.352-.46.338-.598-.052-.512-.374.083-.437-.116-.078-.247.384-.142 1.323-.22 1.388-.114.033.052.01.194-.057.313-.092.172-.148.192-.263.097-.224-.185-.37-.082-.53.372-.24.69-.205.796.246.76.325-.028.4-.077.43-.285.02-.14.148-.43.287-.65.138-.22.252-.44.252-.493 0-.133.294-.233.362-.123.03.05.027.166-.01.257-.105.273.19.192.444-.12.175-.218.26-.258.354-.167.094.092.04.262-.23.722-.41.703-.67.874-.56.37.092-.42-.15-.445-.46-.05-.385.486-.305.558.62.558h.836v-.35c0-.396.22-.887.514-1.154.165-.148.243-.16.43-.06s.218.182.164.447c-.07.356-.436.804-.655.804-.077 0-.14.07-.14.156 0 .11.11.157.355.157.37 0 .452-.11.97-1.33.095-.226.214-.34.357-.34.53 0 .81.443.463.73-.09.077-.157.304-.157.543 0 .336.034.406.183.377.102-.02.185-.082.187-.138 0-.088.3-.766.572-1.303.1-.2.71-.172.926.043.14.14.138.18-.025.36-.193.213-.09.37.177.268.094-.035.133-.14.1-.264-.068-.263.248-.616.554-.616.22 0 .236.046.237.652 0 .728-.06.842-.58 1.088-.32.152-1.047.172-6.55.18l-6.188.01.033.39c.03.334-.01.408-.235.512-.3.137-.314.196-.166.712.057.198.068.395.025.438-.153.152-.354-.097-.384-.475-.017-.21-.06-.41-.093-.445-.128-.13-.38.07-.446.35-.14.596-.536.96-.72.66zm1.428-1.428c.246-.222.243-.35-.01-.35-.182 0-.325.19-.325.427 0 .143.118.116.332-.077zm10.653-1.34c0-.444-.266-.504-.422-.096-.123.32-.057.46.22.46.16 0 .202-.073.202-.365zm1.85.284c.067-.044.114-.173.104-.286-.02-.233-.44-.377-.713-.244-.235.114-.336.42-.173.522.17.106.618.11.78.01zm-3-.968c0-.048-.046-.115-.1-.15-.122-.073-.447.515-.343.618.075.075.442-.314.442-.468zm2.815-.19c-.145-.048-.315.2-.23.336.035.055.127.01.207-.098.103-.14.11-.208.024-.237zm-1.342.013c.115-.15.115-.16 0-.06-.076.067-.204.098-.283.067-.08-.03-.144 0-.144.06 0 .18.273.137.428-.066zm-8.21-1.443c-.035-.09-.063-.278-.063-.417 0-.138-.054-.252-.12-.252-.175 0-.395.33-.4.6 0 .193.054.234.322.234.254 0 .31-.036.262-.165zm2.964-.555c.39-.545.214-.758-.183-.223-.127.17-.23.358-.23.418 0 .2.194.11.412-.195zm-7.84.042c0-.03-.022-.053-.05-.053-.03 0-.053.024-.053.052 0 .028.023.05.05.05.03 0 .053-.023.053-.05zm5.11-.61c.025-.14-.017-.182-.156-.155-.105.02-.208.122-.228.227-.026.138.016.18.155.154.105-.02.208-.122.228-.227zM84.4 5.933c.17-.37.1-.403-.226-.103-.264.245-.272.378-.022.378.068 0 .18-.123.248-.274zm1.547 6.672c-.135-.134-.067-.407.196-.793.32-.468.625-.512.712-.102.05.237-.01.347-.32.626-.392.352-.47.387-.588.27zm.663-.777c0-.052-.048-.094-.108-.094-.097 0-.316.432-.307.607 0 .104.415-.404.415-.514zm.488.776c-.255-.254.315-1.113.7-1.057.352.05.33.38-.05.77-.336.348-.51.425-.65.286zm.59-.692c-.037-.062-.12-.027-.202.083-.076.103-.108.235-.073.292.038.06.122.026.203-.084.076-.103.108-.234.073-.292zm-77.63-.976c.026-.05.175-.36.33-.693.313-.67.54-.834.754-.544.113.154.168.166.294.06.34-.28.366.016.054.633-.324.64-.585.766-.55.263.027-.367-.228-.36-.406.01-.075.157-.225.302-.332.323-.107.02-.172 0-.145-.052zm3.945-.198c-.11-.133-.105-.19.038-.334.162-.16.184-.16.316.02.148.203.383.147.383-.092 0-.076-.105-.206-.232-.29-.227-.15-.228-.16-.046-.437.14-.212.256-.275.466-.25.346.04.434.347.122.428-.216.057-.217.065-.036.34.183.278.182.285-.103.53-.33.283-.712.32-.907.085zm3.202 0c-.09-.09-.164-.232-.164-.316 0-.21.316-.312.424-.138.05.08.124.108.166.066.042-.042.022-.132-.047-.2-.17-.17-.156-.512.03-.777.142-.2.137-.225-.05-.274-.274-.07-.265-.348.014-.497.244-.13.4 0 .403.34 0 .096.096.204.21.24.286.09.268.43-.025.512-.23.065-.23.07-.034.22.182.137.188.18.057.424-.12.224-.583.565-.768.565-.028 0-.125-.074-.215-.164zm-4.034-.02c0-.042.095-.23.21-.418.115-.188.21-.406.21-.485 0-.156.28-.302.417-.217.15.092-.453 1.195-.654 1.198-.1 0-.182-.033-.182-.076zm71.766-.65c0-.252-.163-.274-.294-.04-.053.094-.15.153-.215.13-.11-.036.658-1.238.79-1.238.032 0 .035.118.01.263-.064.34.086.432.258.158.073-.117.192-.213.265-.213.16 0 .174.17.023.264-.06.037-.225.25-.368.475-.283.446-.465.524-.465.2zm2.51.114c0-.17.727-1.262.84-1.262.17 0 .114.317-.108.598-.162.206-.182.3-.09.41.148.178.124.2-.302.292-.215.046-.34.032-.34-.038zm1.224-.054c-.068-.2.678-1.21.945-1.276.36-.09.56.136.23.262-.222.085-.23.107-.07.17.287.117.213.26-.135.26-.387 0-.523.262-.245.472.224.17.225.17-.298.2-.214.015-.406-.026-.427-.088zm-57.74-.713c-.026-.072-.043-.576-.037-1.12l.01-.992.864-.03.863-.03.012.395c.01.218.018.654.026.97l.014.573-.62.055c-.352.03-.64.11-.663.182-.057.167-.408.165-.47 0zm1.364-.555c.096-.03.127-.22.104-.643l-.03-.602-.573.032c-.315.017-.606.086-.648.152-.07.11-.025.793.07 1.085.035.11.688.097 1.077-.024zm1.216.402c-.51-.064-.595-.47-.232-1.125.37-.67.375-.826.023-.738-.235.06-.264.038-.234-.172s.11-.247.712-.313c.414-.046.72-.034.782.03.145.143-.073.462-.316.462-.11 0-.283.157-.402.365-.116.2-.24.377-.273.392-.13.058.026.754.17.754.08 0 .144-.047.144-.105 0-.206 1.127-1.25 1.35-1.25.225 0 .304.25.115.366-.058.036-.106.203-.106.372 0 .342-.145.402-.302.124-.098-.172-.12-.172-.398-.01-.16.097-.31.25-.33.344-.03.144.064.164.627.138.582-.028.663-.057.664-.24 0-.115.117-.41.26-.657.21-.365.305-.44.522-.416.147.017.27.1.276.187.03.446.05.523.147.523.057 0 .103-.06.103-.133 0-.21.318-.607.43-.538.066.04.058.118-.018.21-.067.08-.1.26-.073.402.044.23.01.26-.38.32-.965.148-1.11.184-1.11.278 0 .06.583.087 1.44.07 1.213-.026 1.438-.01 1.438.123 0 .13-.308.156-1.988.164-1.093.01-2.152.032-2.353.06-.203.028-.512.034-.69.01zm2.655-.872c-.02-.062-.082-.112-.136-.112-.056 0-.118.05-.138.112-.02.062.04.112.137.112.095 0 .156-.05.135-.112zm-1.13-.357c0-.03-.023-.052-.052-.052-.03 0-.052.024-.052.052 0 .03.025.052.053.052.03 0 .052-.024.052-.052zm7.677 1.09c-.42-.146-.107-.23.784-.212.89.02.975 0 .912-.158-.128-.332 1.442-1.602 1.683-1.362.035.034-.01.174-.1.31-.09.137-.18.408-.198.602-.023.236-.094.365-.216.388-.154.03-.172-.02-.115-.312.038-.19.12-.378.18-.418.06-.04.08-.102.045-.14-.037-.036-.164.032-.284.152-.12.12-.254.217-.3.217-.08 0-.44.547-.44.67 0 .033.33.06.732.06.587 0 .732-.03.732-.158 0-.286.627-1.405.786-1.405.204 0 .197.066-.054.47-.185.298-.19.353-.052.468.278.23.193.42-.156.35-.246-.05-.314-.026-.314.107 0 .184.115.204.615.104.178-.036.326-.122.326-.192s.09-.208.198-.307c.11-.1.23-.343.268-.543.038-.2.138-.39.224-.423.263-.1.294.054.087.435-.197.365-.197.366.035.528.318.222.292.38-.055.34-.158-.018-.288.014-.288.072 0 .057.118.1.262.09.143-.01.367-.018.497-.025.148-.01.236-.08.238-.195 0-.243.535-1.18.742-1.31.17-.107.722-.02.716.113 0 .042-.213.203-.47.36-.503.303-.6.498-.25.498.3 0 .197.252-.122.296-.45.062-.477.225-.04.24.423.017 1.563.014 2.037-.01.33-.012.587-.524.538-1.078-.036-.413.11-.52.285-.21.094.168.123.163.373-.07.2-.187.303-.224.388-.14.085.086-.043.272-.48.697-.677.66-.675.842.01.766.484-.054.813.13.543.304-.146.095-10.027.125-10.294.03zM8.36 8.843c-.68-.03-.824-.072-1.074-.31-.235-.225-.288-.366-.288-.77 0-.41.038-.507.217-.564.52-.164.927.175.568.472-.19.157-.207.418-.026.414.176 0 .524-.494.444-.624-.034-.057-.018-.103.037-.103.09 0 .54-.663.54-.797 0-.03-.06-.034-.13-.01-.255.09-.513-.13-.437-.375.102-.326.206-.366.976-.373.83-.01 1.02.044 1.167.315.17.314-.042.506-.48.435-.34-.055-.367-.034-.834.686-.266.41-.554.743-.64.743-.088 0-.132.045-.1.098.034.053-.034.127-.15.163-.505.16-.08.216 1.89.245 2.098.03 2.102.03 2.032-.19-.04-.12-.028-.276.025-.345.052-.07.152-.323.22-.564.156-.542.216-.58.593-.386.267.138.31.137.39-.01.07-.124.138-.136.294-.053.275.146.256.28-.117.828-.45.662-.725.78-.725.31 0-.243-.265-.27-.355-.038-.152.394-.078.46.512.46.53 0 .756.12.443.235-.072.026-.965.052-1.985.056-1.02 0-1.938.024-2.04.045-.102.02-.538.022-.97 0zm34.486-.2c-.15-.147-.06-.87.16-1.277.202-.378.767-.843 1.024-.843.228 0 .4.318.325.6-.09.334-.248.345-.324.023-.05-.216-.058-.218-.21-.032-.59.718-.805 1.288-.49 1.288.21 0 .388-.224.388-.49 0-.17.06-.24.212-.24.473 0 .33.608-.21.886-.318.164-.754.208-.874.088zM53.15 8.54c.022-.106.108-.192.194-.192.224 0 .192.303-.037.347-.14.027-.183-.016-.156-.155zm-15.43 0c-.037-.038-.015-.132.05-.21.063-.077.146-.29.184-.47.075-.367.555-.627.767-.416.14.14-.167.643-.392.643-.202 0-.2.198 0 .275.086.033.156.102.156.153 0 .107-.662.128-.766.025zm12.275-.01c0-.13.543-1.116.654-1.187.275-.178.837.236.616.456-.067.066-.12.248-.12.405 0 .39-.187.476-.315.142-.11-.29-.254-.27-.5.072-.14.19-.335.254-.335.11zm.94-.756c0-.058-.046-.105-.104-.105-.056 0-.103.046-.103.104 0 .058.047.104.104.104.06 0 .106-.047.106-.104zm47.39.52c-.077-.146-.07-.262.025-.414.163-.26.312-.267.535-.02.14.153.148.22.042.35-.218.27-.482.307-.6.084zm-87.693-.06c-.14-.14-.08-.465.158-.885.254-.445.568-.517.525-.12-.03.287.18.305.256.022.053-.198.34-.284.48-.144.068.068-.23.682-.492 1.015-.185.235-.376.146-.3-.14.075-.29-.078-.262-.334.06-.118.146-.25.232-.292.19zm-1.484-.14c-.033-.053 0-.23.066-.39.277-.65.933-.877 1.15-.398.107.23.085.3-.177.574-.3.31-.902.436-1.04.214zm.675-.27c0-.085-.047-.155-.105-.155-.057 0-.104.07-.104.155 0 .086.047.157.104.157.058 0 .105-.07.105-.157zm78.774-.176c0-.073.126-.39.28-.708l.35-.73c.087-.19.992-.225.992-.04 0 .24-.507.768-.738.768-.13 0-.263.074-.298.165-.094.244-.087.253.198.253.17 0 .26.058.26.168 0 .13-.074.157-.34.117-.186-.027-.42-.01-.522.045-.128.067-.183.056-.183-.037zm1.1-1.126c.035-.058.014-.105-.047-.105-.06 0-.11.047-.11.105 0 .057.02.104.045.104.025 0 .075-.047.11-.104zm-4.238 1.07c0-.147.74-1.41.885-1.51.117-.083.77-.03.87.07.035.035-.042.167-.17.294-.2.198-.247.21-.33.076-.075-.12-.125-.127-.222-.03-.098.097-.095.16.01.288.16.19.12.252-.21.315-.133.026-.375.174-.538.33-.163.155-.296.23-.296.166zm-52.936-3.21c-.107-.127-.048-.28.335-.86.72-1.092.877-1.44.728-1.62-.07-.084-.097-.228-.06-.322.05-.134.216-.17.785-.17.793 0 1.14.198 1.14.65 0 .265-.493.735-.668.635-.064-.037-.01.05.122.196.27.297.217.59-.194 1.062-.342.393-1.957.71-2.19.43zm1.648-.602c.305-.28.298-.468-.026-.615-.215-.098-.298-.086-.464.065-.274.247-.452.76-.288.825.192.076.52-.04.777-.275zm-.916-.022c0-.03-.024-.052-.052-.052-.03 0-.052.024-.052.052 0 .03.023.052.052.052.03 0 .052-.024.052-.052zm1.674-.626c0-.03-.023-.052-.052-.052-.028 0-.052.024-.052.052 0 .03.024.052.052.052.03 0 .052-.024.052-.052zm-.36-.62c.19-.29.128-.475-.157-.475-.175 0-.315.262-.318.6 0 .222.3.142.476-.126zm-.477-.32c0-.028-.024-.05-.052-.05-.028 0-.05.023-.05.05 0 .03.023.053.05.053.03 0 .053-.024.053-.052zm.942-.208c0-.03-.023-.052-.052-.052-.03 0-.052.024-.052.052 0 .03.025.052.053.052.03 0 .052-.024.052-.052zm6.334 1.43c-.018-.016-.715-.03-1.55-.028-1.66 0-1.758-.03-1.774-.596-.01-.28.663-1.35.962-1.535.19-.117.118-.487-.108-.546-.126-.034-.2-.126-.18-.226.027-.14.17-.166.815-.153l.783.017.094.364c.078.3.053.43-.14.74l-.233.377h.322c.417 0 .423.228.017.634-.377.376-.51.384-.596.04-.067-.267-.068-.267-.29-.065-.122.112-.333.236-.468.277-.17.052-.212.11-.138.183.067.067 1.09.12 2.678.137l2.57.03-.056-.226c-.037-.15.07-.418.314-.796.204-.314.37-.654.37-.756 0-.213-.212-.246-.397-.06-.158.156-.295.027-.395-.375-.073-.296-.068-.3.28-.237.382.07 1.058.133 1.69.157.32.012.39.054.39.226 0 .27-.23.36-.522.205-.308-.163-.54.058-.937.896-.17.36-.36.683-.418.72-.35.215.084.263 2.35.263 1.568 0 2.457-.04 2.457-.105 0-.057-.094-.104-.21-.104-.26 0-.26.02.06-.617.183-.364.33-.53.47-.53.112 0 .238 0 .28-.01.042 0 .093.043.113.104.02.062-.037.113-.128.113-.09 0-.166.065-.166.144 0 .08-.093.17-.208.2-.203.052-.304.386-.117.386.05 0 .117.094.147.208.11.423.357.24.765-.57.27-.534.366-.634.675-.698.51-.106.724.107.48.476-.094.145-.172.36-.172.476 0 .245-.262.287-.35.056-.1-.26-.422-.176-.612.157l-.18.312h.95c.81 0 .932-.022.827-.148-.15-.18-.106-1.23.052-1.28.062-.02.156.14.21.356l.098.393.26-.278c.144-.152.323-.353.4-.445.128-.16.332-.14.332.03 0 .102-.296.404-.773.79-.646.52-.54.59.852.557 1.22-.03 1.23-.03 1.195-.273-.018-.133.044-.327.138-.43.094-.104.207-.323.25-.487.094-.35.39-.446.58-.19.123.17.147.17.4 0 .177-.115.292-.138.337-.065.092.148-.106.452-.702 1.076-.16.166-.288.31-.288.32 0 .05 13.53-.048 13.802-.1.32-.065.39.01.238.243-.062.097-3.01.14-12.63.192-6.904.035-13.155.073-13.894.082-.737.01-1.355 0-1.37-.013zm13.75-.59c0-.14.05-.283.107-.32.116-.07.04-.26-.105-.26-.125 0-.43.63-.36.744.12.194.36.086.36-.163zm-16.424.1c0-.03-.023-.053-.052-.053-.03 0-.052.025-.052.053 0 .03.024.052.052.052.03 0 .052-.024.052-.052zm1.655-.66c.04-.262-.136-.31-.23-.063-.1.26-.075.38.067.332.072-.024.146-.145.164-.27zM39.1 2.36c.132-.083.255-.266.55-.814.164-.307.047-.628-.164-.453-.083.07-.183.227-.22.35-.04.125-.13.297-.202.383-.17.203-.3.626-.19.624.047 0 .15-.042.226-.09zm12.047-.273c0-.088-.093-.158-.21-.158-.115 0-.208.07-.208.157 0 .086.093.155.21.155.115 0 .208-.07.208-.156zm-11.298 0c0-.03-.024-.053-.052-.053-.03 0-.052.024-.052.052 0 .028.024.05.052.05.03 0 .052-.023.052-.05zm15.483-.106c0-.03-.023-.052-.052-.052-.03 0-.052.024-.052.052 0 .03.024.052.052.052.03 0 .052-.024.052-.052zm-9.73.674c-.152-.28-.05-.563.275-.777.53-.345.76.11.346.688-.253.356-.463.386-.62.09zm.524-.367c0-.17-.165-.2-.262-.045-.085.138.04.333.164.257.054-.033.097-.128.097-.21zm1.177.513c-.18-.074-.163-.464.033-.743.222-.317.382-.292.34.053-.053.457.29.44.512-.026.173-.36.173-.387 0-.482-.226-.127-.232-.54-.012-.876.132-.202.26-.26.58-.26.282 0 .43.054.475.172.108.282-.12.51-.48.48-.382-.03-.42.096-.092.313.25.165.253.144-.173.92-.176.32-.864.58-1.184.448zm5.473-.026c-.032-.052.096-.25.285-.443.19-.193.44-.485.558-.65.146-.205.304-.3.5-.3.412 0 .562.183.346.42-.095.104-.183.352-.196.55-.023.335-.133.512-.322.515-.043 0-.078-.093-.078-.208 0-.152-.07-.208-.26-.208-.148 0-.318.09-.392.208-.138.22-.342.273-.44.115zm1.197-.636c0-.056-.047-.103-.105-.103-.058 0-.104.047-.104.104 0 .06.048.105.105.105.057 0 .105-.047.105-.104zm-13.112.557c-.138-.138-.065-.446.172-.72.187-.216.296-.263.48-.205.196.062.226.125.168.353-.123.49-.58.81-.82.572zm.512-.533c-.087-.087-.268.097-.264.27 0 .155.022.152.156-.025.084-.112.132-.222.108-.246zm.36.496c0-.06.124-.293.276-.52.23-.35.332-.416.63-.416.395 0 .558.22.35.47-.07.084-.102.222-.07.307.092.24-.13.307-.353.107-.186-.168-.22-.17-.46-.01-.304.198-.373.21-.373.064zm.917-.54c-.052-.156-.233-.11-.27.067-.024.112.017.142.135.097.093-.036.154-.11.135-.164zm15.56.503c-.194-.14-.193-.15.01-.443l.203-.3.032.276c.025.215.077.264.235.222.2-.052.296-.446.11-.446-.05 0-.125-.082-.163-.18-.103-.268.314-.583.58-.44.306.163.25.388-.088.352l-.288-.03.236.19c.336.275.293.454-.17.714-.482.27-.445.265-.694.084zm2.1.054c-.085-.14.112-.625.418-1.024.14-.183.254-.384.254-.448 0-.063.073-.227.164-.365.09-.138.15-.336.133-.44-.058-.353.1-.45.622-.38.59.08.962.3.962.568 0 .108-.16.373-.356.59-.32.354-.35.438-.303.864.04.35.01.507-.11.607-.223.184-.412.042-.338-.253.08-.312-.1-.778-.296-.778-.085 0-.286.245-.448.546-.28.52-.568.73-.704.51zm1.788-.606c-.038-.037-.07-.01-.07.07 0 .078.03.11.07.07.038-.037.038-.1 0-.138zm-.03-.984c.084-.122.13-.286.098-.365-.084-.217-.43-.173-.56.073-.244.454.165.714.46.292zm7.84 1.51c-.034-.087-.01-.206.05-.268.157-.155.462-.015.422.194-.043.222-.395.276-.473.073zM56.69 2.538c0-.07.106-.237.235-.374.218-.23.22-.257.052-.35-.1-.057-.183-.17-.183-.254 0-.12.17-.15.785-.15.84 0 1.004.12.426.31-.197.064-.43.225-.516.357-.34.517-.8.78-.8.46zm6.128.03c-.096-.155.264-1.053.466-1.16.38-.204.778.17.62.586-.167.443-.92.842-1.086.575zm.67-.376c.072-.086.1-.233.063-.33-.06-.156-.08-.154-.217.026-.276.365-.13.65.156.304zm.828.3c-.12-.146-.102-.24.126-.647.367-.655.573-.767.833-.45.275.333.257.466-.122.896-.353.4-.617.464-.837.2zm.693-.357c.174-.337.13-.543-.096-.456-.174.068-.4.547-.32.677.108.175.25.1.415-.22zm.72-.023c.15-.254.27-.538.27-.63 0-.095.104-.226.23-.293.192-.102.255-.087.404.097l.177.218.242-.256c.252-.27.47-.317.718-.16.125.08.122.144-.02.443-.09.192-.216.48-.276.638-.104.274-.375.474-.488.36-.03-.028.03-.22.128-.427.22-.46.122-.6-.205-.293-.256.24-.49.297-.49.122 0-.232-.272-.08-.42.237-.085.184-.243.352-.35.37-.17.033-.162-.014.08-.425zm2.374.3c-.114-.137-.097-.246.103-.662.288-.597.48-.766.828-.732.202.02.26.085.26.286 0 .174-.057.26-.174.262-.313 0-.35.164-.083.366.236.178.245.21.096.36-.247.25-.862.32-1.03.12zm.572-.18c.04-.065.01-.156-.07-.204-.15-.092-.33.088-.24.236.075.118.225.102.31-.033zM59.563.78c.044-.63.203-.87.48-.724.336.18.346.484.028.882-.416.52-.55.48-.506-.157z"/>
</svg>
