<?xml version="1.0" encoding="UTF-8"?>
<svg xmlns="http://www.w3.org/2000/svg" xmlns:se="https://standardebooks.org/vocab/1.0" version="1.1" viewBox="0 0 1400 440" se:generated-from="0d75c73e1e92c954510e1013a367b915d61f34d6">
	<path d="M 255.06857,66.843806 273.40829,66.843806 273.40829,128.60001 290.99945,128.60001 290.99945,66.843806 309.33917,66.843806 309.33917,51.404756 255.06857,51.404756 255.06857,66.843806 Z"/>
	<path d="M 338.26531,97.628336 363.15493,97.628336 363.15493,128.60001 380.74609,128.60001 380.74609,51.404756 363.15493,51.404756 363.15493,82.189286 338.26531,82.189286 338.26531,51.404756 320.67415,51.404756 320.67415,128.60001 338.26531,128.60001 338.26531,97.628336 Z"/>
	<path d="M 441.11321,51.404756 396.94817,51.404756 396.94817,128.60001 441.11321,128.60001 441.11321,113.16096 414.53933,113.16096 414.53933,97.628336 439.99037,97.628336 439.99037,82.189286 414.53933,82.189286 414.53933,66.843806 441.11321,66.843806 441.11321,51.404756 Z"/>
	<path d="M 550.62637,128.60001 568.21753,128.60001 561.29335,51.404756 542.57935,51.404756 525.45604,95.944076 508.33273,51.404756 489.61873,51.404756 482.69455,128.60001 500.28571,128.60001 503.93494,82.844276 504.40279,82.844276 520.21612,128.13216 530.69596,128.13216 546.50929,82.844276 546.97714,82.844276 550.62637,128.60001 Z"/>
	<path d="M 563.43655,51.404756 591.88183,93.979106 591.88183,128.60001 609.47299,128.60001 609.47299,93.979106 637.91827,51.404756 616.77145,51.404756 600.67741,76.107236 584.58337,51.404756 563.43655,51.404756 Z"/>
	<path d="M 669.63251,50.001206 C 657.1877,50.001206 644.46218,59.171066 644.46218,73.580846 644.46218,81.627866 649.88924,88.832756 659.15267,93.417686 668.32253,98.002616 676.55669,100.52901 676.55669,106.14321 676.55669,113.3481 669.25823,113.72238 665.42186,113.72238 656.81342,113.72238 646.52072,105.02037 646.52072,105.02037 L 637.72514,119.80443 C 637.72514,119.80443 648.67283,130.00356 666.73184,130.00356 681.79661,130.00356 695.83211,123.54723 695.83211,105.11394 695.83211,95.008376 686.38154,87.709916 677.7731,84.060686 668.97752,80.317886 661.67906,77.230076 661.67906,72.925856 661.67906,68.715206 664.86044,66.001676 670.84892,66.001676 678.80237,66.001676 686.47511,71.335166 686.47511,71.335166 L 693.58643,57.299666 C 693.58643,57.299666 683.66801,50.001206 669.63251,50.001206 Z"/>
	<path d="M 699.62008,66.843806 717.9598,66.843806 717.9598,128.60001 735.55096,128.60001 735.55096,66.843806 753.89068,66.843806 753.89068,51.404756 699.62008,51.404756 699.62008,66.843806 Z"/>
	<path d="M 809.39069,51.404756 765.22565,51.404756 765.22565,128.60001 809.39069,128.60001 809.39069,113.16096 782.81681,113.16096 782.81681,97.628336 808.26785,97.628336 808.26785,82.189286 782.81681,82.189286 782.81681,66.843806 809.39069,66.843806 809.39069,51.404756 Z"/>
	<path d="M 824.50354,51.404756 824.50354,128.60001 842.0947,128.60001 842.0947,98.096186 865.67434,128.60001 888.03757,128.60001 861.46369,96.692636 C 870.91426,93.698396 877.27702,85.932086 877.27702,74.329406 877.27702,59.171066 866.4229,51.404756 852.10669,51.404756 L 824.50354,51.404756 Z M 842.0947,85.651376 842.0947,65.440256 844.15324,65.440256 C 850.79671,65.440256 858.75016,65.908106 858.75016,75.545816 858.75016,85.183526 850.79671,85.651376 844.15324,85.651376 L 842.0947,85.651376 Z"/>
	<path d="M 914.16538,51.404756 896.57422,51.404756 896.57422,128.60001 914.16538,128.60001 914.16538,51.404756 Z"/>
	<path d="M 926.98725,89.955596 C 926.98725,112.50597 943.08129,130.00356 965.91237,130.00356 988.08846,130.00356 1004.7439,112.50597 1004.7439,89.955596 1004.7439,67.405226 987.3399,50.001206 965.91237,50.001206 944.67198,50.001206 926.98725,67.405226 926.98725,89.955596 Z M 945.98196,89.955596 C 945.98196,78.446486 952.34472,66.937376 965.91237,66.937376 979.57359,66.937376 985.74921,78.446486 985.74921,89.955596 985.74921,101.46471 979.94787,112.97382 965.91237,112.97382 951.50259,112.97382 945.98196,101.46471 945.98196,89.955596 Z"/>
	<path d="M 1076.8292,51.404756 1059.2381,51.404756 1059.2381,96.037646 C 1059.2381,108.95031 1055.3081,112.69311 1046.6997,112.69311 1038.0913,112.69311 1034.1613,108.95031 1034.1613,96.037646 L 1034.1613,51.404756 1016.5702,51.404756 1016.5702,101.184 C 1016.5702,120.27228 1027.05,130.00356 1046.6997,130.00356 1066.3494,130.00356 1076.8292,120.27228 1076.8292,101.184 L 1076.8292,51.404756 Z"/>
	<path d="M 1118.7528,50.001206 C 1106.308,50.001206 1093.5825,59.171066 1093.5825,73.580846 1093.5825,81.627866 1099.0096,88.832756 1108.273,93.417686 1117.4429,98.002616 1125.677,100.52901 1125.677,106.14321 1125.677,113.3481 1118.3786,113.72238 1114.5422,113.72238 1105.9337,113.72238 1095.641,105.02037 1095.641,105.02037 L 1086.8455,119.80443 C 1086.8455,119.80443 1097.7932,130.00356 1115.8522,130.00356 1130.9169,130.00356 1144.9524,123.54723 1144.9524,105.11394 1144.9524,95.008376 1135.5019,87.709916 1126.8934,84.060686 1118.0978,80.317886 1110.7994,77.230076 1110.7994,72.925856 1110.7994,68.715206 1113.9808,66.001676 1119.9692,66.001676 1127.9227,66.001676 1135.5954,71.335166 1135.5954,71.335166 L 1142.7068,57.299666 C 1142.7068,57.299666 1132.7883,50.001206 1118.7528,50.001206 Z"/>
	<path d="M 273.99003,151.40476 257.70885,151.40476 226.55004,228.60001 245.45118,228.60001 251.15895,213.16096 280.53993,213.16096 286.2477,228.60001 305.14884,228.60001 273.99003,151.40476 Z M 274.55145,197.72191 257.14743,197.72191 265.75587,175.26511 265.94301,175.26511 274.55145,197.72191 Z"/>
	<path d="M 357.70141,151.40476 313.06852,151.40476 313.06852,228.60001 330.65968,228.60001 330.65968,197.62834 355.64287,197.62834 355.64287,182.18929 330.65968,182.18929 330.65968,166.84381 357.70141,166.84381 357.70141,151.40476 Z"/>
	<path d="M 415.70005,151.40476 371.06716,151.40476 371.06716,228.60001 388.65832,228.60001 388.65832,197.62834 413.64151,197.62834 413.64151,182.18929 388.65832,182.18929 388.65832,166.84381 415.70005,166.84381 415.70005,151.40476 Z"/>
	<path d="M 464.98203,151.40476 448.70085,151.40476 417.54204,228.60001 436.44318,228.60001 442.15095,213.16096 471.53193,213.16096 477.2397,228.60001 496.14084,228.60001 464.98203,151.40476 Z M 465.54345,197.72191 448.13943,197.72191 456.74787,175.26511 456.93501,175.26511 465.54345,197.72191 Z"/>
	<path d="M 521.65169,151.40476 504.06053,151.40476 504.06053,228.60001 521.65169,228.60001 521.65169,151.40476 Z"/>
	<path d="M 537.93566,151.40476 537.93566,228.60001 555.52682,228.60001 555.52682,198.09619 579.10646,228.60001 601.46969,228.60001 574.89581,196.69264 C 584.34638,193.6984 590.70914,185.93209 590.70914,174.32941 590.70914,159.17107 579.85502,151.40476 565.53881,151.40476 L 537.93566,151.40476 Z M 555.52682,185.65138 555.52682,165.44026 557.58536,165.44026 C 564.22883,165.44026 572.18228,165.90811 572.18228,175.54582 572.18228,185.18353 564.22883,185.65138 557.58536,185.65138 L 555.52682,185.65138 Z"/>
	<path d="M 679.79771,151.40476 663.51653,151.40476 632.35772,228.60001 651.25886,228.60001 656.96663,213.16096 686.34761,213.16096 692.05538,228.60001 710.95652,228.60001 679.79771,151.40476 Z M 680.35913,197.72191 662.95511,197.72191 671.56355,175.26511 671.75069,175.26511 680.35913,197.72191 Z"/>
	<path d="M 709.44169,166.84381 727.78141,166.84381 727.78141,228.60001 745.37257,228.60001 745.37257,166.84381 763.71229,166.84381 763.71229,151.40476 709.44169,151.40476 709.44169,166.84381 Z"/>
	<path d="M 832.2506,150.00121 C 819.80579,150.00121 807.08027,159.17107 807.08027,173.58085 807.08027,181.62787 812.50733,188.83276 821.77076,193.41769 830.94062,198.00262 839.17478,200.52901 839.17478,206.14321 839.17478,213.3481 831.87632,213.72238 828.03995,213.72238 819.43151,213.72238 809.13881,205.02037 809.13881,205.02037 L 800.34323,219.80443 C 800.34323,219.80443 811.29092,230.00356 829.34993,230.00356 844.4147,230.00356 858.4502,223.54723 858.4502,205.11394 858.4502,195.00838 848.99963,187.70992 840.39119,184.06069 831.59561,180.31789 824.29715,177.23008 824.29715,172.92586 824.29715,168.71521 827.47853,166.00168 833.46701,166.00168 841.42046,166.00168 849.0932,171.33517 849.0932,171.33517 L 856.20452,157.29967 C 856.20452,157.29967 846.2861,150.00121 832.2506,150.00121 Z"/>
	<path d="M 862.23814,166.84381 880.57786,166.84381 880.57786,228.60001 898.16902,228.60001 898.16902,166.84381 916.50874,166.84381 916.50874,151.40476 862.23814,151.40476 862.23814,166.84381 Z"/>
	<path d="M 919.42241,151.40476 947.86769,193.97911 947.86769,228.60001 965.45885,228.60001 965.45885,193.97911 993.90413,151.40476 972.75731,151.40476 956.66327,176.10724 940.56923,151.40476 919.42241,151.40476 Z"/>
	<path d="M 1019.3331,151.40476 1001.742,151.40476 1001.742,228.60001 1045.907,228.60001 1045.907,213.16096 1019.3331,213.16096 1019.3331,151.40476 Z"/>
	<path d="M 1103.7229,151.40476 1059.5578,151.40476 1059.5578,228.60001 1103.7229,228.60001 1103.7229,213.16096 1077.149,213.16096 1077.149,197.62834 1102.6,197.62834 1102.6,182.18929 1077.149,182.18929 1077.149,166.84381 1103.7229,166.84381 1103.7229,151.40476 Z"/>
	<path d="M 1147.281,150.00121 C 1134.8362,150.00121 1122.1107,159.17107 1122.1107,173.58085 1122.1107,181.62787 1127.5377,188.83276 1136.8012,193.41769 1145.971,198.00262 1154.2052,200.52901 1154.2052,206.14321 1154.2052,213.3481 1146.9067,213.72238 1143.0703,213.72238 1134.4619,213.72238 1124.1692,205.02037 1124.1692,205.02037 L 1115.3736,219.80443 C 1115.3736,219.80443 1126.3213,230.00356 1144.3803,230.00356 1159.4451,230.00356 1173.4806,223.54723 1173.4806,205.11394 1173.4806,195.00838 1164.03,187.70992 1155.4216,184.06069 1146.626,180.31789 1139.3275,177.23008 1139.3275,172.92586 1139.3275,168.71521 1142.5089,166.00168 1148.4974,166.00168 1156.4509,166.00168 1164.1236,171.33517 1164.1236,171.33517 L 1171.2349,157.29967 C 1171.2349,157.29967 1161.3165,150.00121 1147.281,150.00121 Z"/>
	<path d="M 372.95622,331.05151 360.7449,331.05151 337.37496,388.95001 351.55132,388.95001 355.8323,377.37031 377.86882,377.37031 382.1498,388.95001 396.32616,388.95001 372.95622,331.05151 Z M 373.3773,365.79061 360.32382,365.79061 366.78038,348.94741 366.92074,348.94741 373.3773,365.79061 Z"/>
	<path d="M 455.87027,356.52685 429.13169,356.52685 429.13169,366.70295 442.46589,366.70295 C 442.46589,373.79113 436.21987,377.86157 429.90367,377.86157 421.76279,377.86157 415.16587,369.86105 415.16587,360.03585 415.16587,350.00011 421.76279,341.92941 429.90367,341.92941 435.02681,341.92941 439.44815,343.96463 442.81679,349.36849 L 451.44893,339.89419 C 446.39597,333.78853 439.30779,329.99881 429.13169,329.99881 412.84993,329.99881 400.91933,343.40319 400.91933,360.03585 400.91933,376.59833 413.55173,390.00271 429.13169,390.00271 440.50085,390.00271 452.71217,383.75669 455.87027,369.08907 L 455.87027,356.52685 Z"/>
	<path d="M 496.03922,331.05151 483.8279,331.05151 460.45796,388.95001 474.63432,388.95001 478.9153,377.37031 500.95182,377.37031 505.2328,388.95001 519.40916,388.95001 496.03922,331.05151 Z M 496.4603,365.79061 483.40682,365.79061 489.86338,348.94741 490.00374,348.94741 496.4603,365.79061 Z"/>
	<path d="M 519.52288,342.63121 533.27816,342.63121 533.27816,388.95001 546.472,388.95001 546.472,342.63121 560.22728,342.63121 560.22728,331.05151 519.52288,331.05151 519.52288,342.63121 Z"/>
	<path d="M 583.17252,365.72043 601.8404,365.72043 601.8404,388.95001 615.03424,388.95001 615.03424,331.05151 601.8404,331.05151 601.8404,354.14073 583.17252,354.14073 583.17252,331.05151 569.97868,331.05151 569.97868,388.95001 583.17252,388.95001 583.17252,365.72043 Z"/>
	<path d="M 657.84153,331.05151 645.63021,331.05151 622.26027,388.95001 636.43663,388.95001 640.71761,377.37031 662.75413,377.37031 667.03511,388.95001 681.21147,388.95001 657.84153,331.05151 Z M 658.26261,365.79061 645.20913,365.79061 651.66569,348.94741 651.80605,348.94741 658.26261,365.79061 Z"/>
	<path d="M 741.20705,377.01941 C 727.94303,377.01941 722.11809,367.75565 722.11809,359.96567 722.11809,352.24587 727.94303,342.98211 741.20705,342.98211 747.94433,342.98211 752.57621,346.56129 752.57621,346.56129 L 758.19061,335.33249 C 758.19061,335.33249 751.73405,329.99881 739.17183,329.99881 722.74971,329.99881 707.80137,343.47337 707.80137,360.10603 707.80137,376.66851 722.81989,390.00271 739.17183,390.00271 751.73405,390.00271 758.19061,384.66903 758.19061,384.66903 L 752.57621,373.44023 C 752.57621,373.44023 747.94433,377.01941 741.20705,377.01941 Z"/>
	<path d="M 781.50101,365.72043 800.16889,365.72043 800.16889,388.95001 813.36273,388.95001 813.36273,331.05151 800.16889,331.05151 800.16889,354.14073 781.50101,354.14073 781.50101,331.05151 768.30717,331.05151 768.30717,388.95001 781.50101,388.95001 781.50101,365.72043 Z"/>
	<path d="M 826.76457,331.05151 826.76457,388.95001 839.95841,388.95001 839.95841,366.07133 857.64377,388.95001 874.41679,388.95001 854.48567,365.01863 C 861.57385,362.77287 866.34609,356.94793 866.34609,348.24561 866.34609,336.87645 858.20521,331.05151 847.46767,331.05151 L 826.76457,331.05151 Z M 839.95841,356.73739 839.95841,341.57851 841.50237,341.57851 C 846.48515,341.57851 852.45045,341.92941 852.45045,349.15795 852.45045,356.38649 846.48515,356.73739 841.50237,356.73739 L 839.95841,356.73739 Z"/>
	<path d="M 895.26325,331.05151 882.06941,331.05151 882.06941,388.95001 895.26325,388.95001 895.26325,331.05151 Z"/>
	<path d="M 928.69051,329.99881 C 919.35657,329.99881 909.81209,336.87645 909.81209,347.68417 909.81209,353.71965 913.88253,359.12351 920.83035,362.56233 927.70799,366.00115 933.88383,367.89601 933.88383,372.10681 933.88383,377.51067 928.40979,377.79139 925.53241,377.79139 919.07585,377.79139 911.35605,371.26465 911.35605,371.26465 L 904.75913,382.35309 C 904.75913,382.35309 912.97019,390.00271 926.51493,390.00271 937.81391,390.00271 948.34091,385.16029 948.34091,371.33483 948.34091,363.75539 941.25273,358.28135 934.79617,355.54433 928.19925,352.73713 922.72521,350.42119 922.72521,347.19291 922.72521,344.03481 925.11133,341.99959 929.60285,341.99959 935.56815,341.99959 941.32291,345.99985 941.32291,345.99985 L 946.65659,335.47285 C 946.65659,335.47285 939.21751,329.99881 928.69051,329.99881 Z"/>
	<path d="M 952.43189,342.63121 966.18717,342.63121 966.18717,388.95001 979.38101,388.95001 979.38101,342.63121 993.13629,342.63121 993.13629,331.05151 952.43189,331.05151 952.43189,342.63121 Z"/>
	<path d="M 1016.0815,331.05151 1002.8876,331.05151 1002.8876,388.95001 1016.0815,388.95001 1016.0815,331.05151 Z"/>
	<path d="M 1062.6697,331.05151 1029.5448,331.05151 1029.5448,388.95001 1062.6697,388.95001 1062.6697,377.37031 1042.7386,377.37031 1042.7386,365.72043 1061.8276,365.72043 1061.8276,354.14073 1042.7386,354.14073 1042.7386,342.63121 1062.6697,342.63121 1062.6697,331.05151 Z"/>
</svg>
